<?xml version="1.0" encoding="utf-8"?>
<!-- Generator: Adobe Illustrator 22.1.0, SVG Export Plug-In . SVG Version: 6.00 Build 0)  -->
<svg version="1.1" id="レイヤー_3" xmlns="http://www.w3.org/2000/svg" xmlns:xlink="http://www.w3.org/1999/xlink" x="0px"
	 y="0px" viewBox="0 0 183.09 382.63" style="enable-background:new 0 0 183.09 382.63;" xml:space="preserve">
<style type="text/css">
	.st0{fill:url(#SVGID_1_);}
	.st1{fill:url(#SVGID_2_);}
</style>
<g>
	<linearGradient id="SVGID_1_" gradientUnits="userSpaceOnUse" x1="172.258" y1="273.4264" x2="172.258" y2="273.3805">
		<stop  offset="0" style="stop-color:#B4B54B"/>
		<stop  offset="1" style="stop-color:#3F4C2B"/>
	</linearGradient>
	<path class="st0" d="M172.27,273.4c-0.01-0.01-0.02-0.01-0.02-0.02c0,0,0,0,0,0C172.25,273.39,172.26,273.39,172.27,273.4
		l-0.02,0.03C172.25,273.43,172.27,273.4,172.27,273.4C172.27,273.4,172.27,273.4,172.27,273.4L172.27,273.4
		C172.27,273.4,172.27,273.4,172.27,273.4z"/>
	<linearGradient id="SVGID_2_" gradientUnits="userSpaceOnUse" x1="91.5427" y1="382.6318" x2="91.5427" y2="-9.094947e-13">
		<stop  offset="0" style="stop-color:#B4B54B"/>
		<stop  offset="1" style="stop-color:#3F4C2B"/>
	</linearGradient>
	<path class="st1" d="M178.79,248.68c-0.68-0.89-1.08-2-1.61-3.01c0.77-0.04,1.19,0.18,1.64,0.31c0.42,0.12,0.87,0.15,1.31,0.22
		c0.17-0.14,0.34-0.29,0.5-0.43c-2.83-5.46-5.67-10.92-8.5-16.37c0.69,0.11,1.45,0.27,2.21,0.33c0.49,0.04,1-0.05,1.5-0.09
		c-0.12-0.55-0.11-1.17-0.37-1.64c-2.12-3.7-4.45-7.24-7.7-10.11c-2.46-2.17-4.77-4.52-7.13-6.81c-0.23-0.22-0.39-0.5-0.64-0.83
		c0.93-0.19,1.7-0.32,2.46-0.5c0.73-0.17,1.44-0.4,2.49-0.69c-7.74-7.82-17.3-11.06-27.71-13.41c1.71-1.49,3.03-2.64,4.35-3.8
		c-0.07-0.16-0.14-0.33-0.21-0.49c-3.77-0.71-7.59-0.6-11.4-0.29c-5.68,0.46-11.36,0.85-16.98-0.49c-1.77-0.42-3.43-1.3-5.19-1.8
		c-2.82-0.79-5.68-1.39-8.51-2.14c-3.71-0.97-7.14-2.66-10.3-4.78c-1.68-1.13-2.99-2.81-4.46-4.24c0.12-0.17,0.24-0.34,0.35-0.51
		c7.77,6.69,16.47,10.46,27.29,9.07c-1.16-1.23-2.03-2.16-3.21-3.41c1.16,0.07,1.86,0.08,2.55,0.17c3.09,0.37,6.18,0.79,9.28,1.14
		c2.64,0.3,3.42-0.54,2.91-3.03c-0.05-0.22-0.04-0.46-0.08-1.03c1,0,1.95-0.13,2.84,0.02c2.95,0.51,5.87,1.13,8.81,1.67
		c0.7,0.13,1.42,0.15,2.13,0.22c0.11-0.21,0.22-0.42,0.34-0.64c-4.42-2.65-7.83-6.33-11.22-10.09c-3.43-3.81-7.37-7.16-11.15-10.77
		c0.7-0.35,1.15-0.57,1.98-0.99c-1.35-0.76-2.36-1.48-3.47-1.93c-4.32-1.75-8.68-3.43-13.03-5.09c-0.96-0.37-1.87-0.74-1.59-1.98
		c0.5-2.18-0.72-3.35-2.48-3.92c-3.23-1.05-6.54-1.85-9.79-2.85c-0.53-0.16-1.29-0.77-1.3-1.2c-0.05-1.92-1.22-1.82-2.47-1.52
		c-4.12,0.97-8.22,2.01-12.34,2.99c-0.5,0.12-1.18,0.26-1.55,0.03c-1.73-1.05-4.05-1.45-4.6-3.92c-0.03-0.13-0.38-0.19-1.09-0.51
		c0.54,3.35,1.01,6.34,1.49,9.33c-4.97-5.49-9.57-11.08-14.07-16.76c-1.23-1.56-2.16-3.36-3.37-5.29
		c-1.96,0.02-7.94-10.39-7.81-14.31c-0.52-0.57-1.04-0.96-1.33-1.48c-0.48-0.88-0.76-1.86-1.19-2.76c-1.42-2.94-3.39-5.51-5.43-8.05
		c-1.17-1.46-2.76-3.09-2.9-4.75c-0.16-1.89-1.34-2.46-2.21-3.57c-0.42-0.53-0.61-1.48-0.49-2.16c1.09-6.3,2.51-12.56,3.36-18.89
		c0.67-4.96,1.61-9.78,3.39-14.45c0.23-0.6,0.42-1.3,0.33-1.9c-0.51-3.43-0.83-6.92-1.79-10.23c-0.62-2.17,0.13-3.62,1.12-5.5
		c0.66,0.75,1.12,1.47,1.75,1.96c1.33,1.03,1.11,2.05,0.27,3.23c-0.59,0.83-1.12,1.71-1.58,2.61c-0.46,0.89-0.53,1.54,0.6,2.31
		c2.99,2.04,5.8,4.28,7.69,7.56c1.22,2.11,3.03,3.83,5.5,4.65c2.27,0.75,4.54,1.51,6.73,2.46c3.94,1.71,7.96,3.33,11.68,5.46
		c2.46,1.41,4.58,2.53,7.22,0.76c0.29-0.2,0.65-0.3,0.97-0.46c3.1-1.56,6.45-1.82,9.25-2c0.69,1.27,0.98,2.32,1.67,2.95
		c0.81,0.75,1.93,1.2,2.96,1.66c3.45,1.52,7.16,2.59,10.34,4.54c5.54,3.4,10.77,7.31,16.12,11.03c1.36,0.94,2.54,2.53,4.01,2.85
		c3.37,0.73,6.86,0.88,10.31,1.21c0.5,0.05,1.24-0.06,1.52-0.39c1.12-1.28,2.52-0.82,3.85-0.81c2.69,0.03,5.45,0.45,8.05-0.03
		c2.49-0.47,4.82-0.69,7.27-0.12c2.07,0.48,4.17,0.83,6.27,1.14c0.61,0.09,1.26-0.16,1.9-0.25c-1.85-1.66-3.61-2.85-5.41-3.97
		c-1.26-0.79-2.68-1.36-3.86-2.24c-1.51-1.13-2.88-2.46-4.27-3.75c-1.51-1.4-3.24-2.67-4.42-4.32c-2.49-3.5-4.67-7.22-7.01-10.83
		c-1.22-1.88-2.5-3.72-3.75-5.59c0.47-0.33,0.61-0.43,0.76-0.53c0.53-0.33,1.06-0.66,1.59-0.99c-0.5-0.44-0.93-1.06-1.52-1.3
		c-3.76-1.54-7.47-3.32-11.37-4.38c-4.18-1.14-8.54-1.6-12.83-2.28c-0.8-0.13-1.65,0.13-2.94,0.25c0.97-0.67,1.56-0.98,2.02-1.43
		c0.64-0.62,1.19-1.33,1.78-2c-0.93-0.25-1.87-0.71-2.8-0.71c-3.59-0.02-7.2,0.31-10.78,0.14c-5.16-0.24-10.12,0.89-15.11,1.8
		c-0.91,0.17-2.13,1.02-2.36,1.81c-0.23,0.76,0.4,2.08,1.06,2.75c2.44,2.49,3.21,5.68,4.02,8.86c0.08,0.31-0.48,1.06-0.88,1.18
		c-1.71,0.51-3.46,0.97-5.22,1.24c-0.82,0.12-1.77-0.1-2.55-0.42c-1.31-0.54-2.49-1.37-3.8-1.92c-2.96-1.25-6.04-2.22-8.91-3.64
		c-2.34-1.16-4.28-3.17-6.66-4.17c-4.35-1.84-7.72-4.87-10.71-8.27c-4.22-4.8-8.26-9.78-12.06-14.92
		c-2.89-3.91-5.31-8.17-7.86-12.33c-1.28-2.09-2.36-4.3-3.59-6.42c-2.04-3.51-4.11-7-6.19-10.49C11.05,1.44,10.54,0.74,10.05,0
		C8.23,1.53,6.14,5.7,6.63,7.15c1.1-1.83,2.1-3.49,3.21-5.35c1.87,3.36-0.73,5.42-1.61,8.26C5.4,6.57,3.01,3.21,0.11,0.29
		c-0.16,0.35-0.13,0.54-0.03,0.68c3.45,4.52,6.92,9.01,10.34,13.56c1.57,2.09,3.29,4.14,4.46,6.45c1.97,3.89,3.45,8.04,5.33,11.98
		c2.55,5.33,4.11,10.8,3.72,16.8c-0.51,7.64-0.74,15.3-1.18,22.95c-0.24,4.2-1.04,8.29-2.69,12.22c-1.32,3.14-2.34,6.41-3.54,9.6
		c-0.38,1.02-0.17,1.57,0.79,2.18c2.86,1.83,5.74,3.67,8.38,5.79c1.34,1.08,3.5,1.9,2.99,4.38c-0.03,0.16,0.34,0.41,0.53,0.61
		c0.36,0.37,0.94,0.67,1.05,1.1c0.7,2.83,1.26,5.7,1.94,8.54c0.24,1,0.48,2.13,1.1,2.9c1.38,1.71,3.08,3.17,4.52,4.84
		c4.7,5.46,9.36,10.95,14.01,16.46c2.16,2.56,4.01,5.44,6.43,7.71c2.74,2.56,5.37,5.1,7.15,8.43c0.83,1.55,1.83,3.02,2.8,4.59
		c1.78-1.7-1.92-3.33,0.04-4.93c1.89,1.35,2.14,3.14,1.62,5.25c0.42-0.52,0.84-1.04,1.26-1.55c0.18,0.02,0.37,0.03,0.55,0.05
		c0.03,0.63,0.33,1.51,0.03,1.84c-0.44,0.49-1.35,0.86-2,0.79c-2.07-0.23-4.1-0.8-6.17-1.03c-2.79-0.31-5.61-0.6-8.41-0.6
		c-2.5,0.01-5,0.43-7.9,0.71c0.81,1.16,1.24,1.77,1.66,2.37c-6.44,3.03-12.88,5.85-19.12,9.06c-5.16,2.65-10.14,5.69-13.41,10.75
		c-0.43,0.67-0.57,1.52-0.85,2.29c0.7,0.22,1.41,0.44,2.11,0.65c0.26,0.08,0.53,0.14,0.55,0.14c-1.48,3.54-3.16,6.92-4.3,10.47
		c-1.26,3.94-1.74,8.03-1.25,12.24c0.35,3.01,0.16,6.09,0.16,9.14c0,1.32-0.15,2.64-0.22,3.74c0.52,1.57,1.18,3.05,1.49,4.59
		c0.32,1.58,0.86,2.02,1.8,1.2c1.72,3.74,3.33,7.52,5.2,11.17c1.17,2.28,1.54,2.21,3.28,0.16c0.4,1,0.68,1.98,1.16,2.84
		c2.64,4.75,5.33,9.48,8,14.21c0.79,1.4,1.67,2.62,3.57,1.25c1.27,4.16,1.93,8.37,4.03,12.24c0.84-0.62,1.43-1.07,2.12-1.57
		c0.15,2.42,0.29,4.66,0.46,7.45c0.8-0.75,1.21-1.09,1.57-1.49c2.31-2.53,4.24-5.57,8.14-5.95c0.33-0.03,0.65-0.48,0.92-0.79
		c2.37-2.79,4.67-5.62,7.09-8.36c0.98-1.11,2.14-2.09,3.34-2.97c0.7-0.52,1.59-0.88,2.25,0.33c0.43,0.8,1.08,0.75,1.76,0.09
		c1.05-1.02,2.17-1.96,3.03-2.73c0,3.32,0.05,6.78-0.02,10.23c-0.04,1.64-0.6,3.31-0.43,4.91c0.52,4.86-1.17,9.35-2.07,13.97
		c-0.02,0.11-0.11,0.21-0.19,0.3c-1.71,1.92-3.28,3.99-5.18,5.69c-1.14,1.02-1.38,1.8-0.98,3.2c0.26,0.92,0.05,2.04-0.15,3.02
		c-0.19,0.97-0.81,1.86-0.94,2.82c-0.44,3.33-2.01,5.75-5.02,7.38c-4.1,2.23-8.05,4.73-12.15,6.95c-2.14,1.16-3.34,2.79-3.12,5.15
		c0.24,2.46-0.43,4.6-2.06,6.27c-3.91,4.04-7.8,8.15-12.05,11.8c-2.67,2.3-4.39,4.94-5.39,8.18c-0.18,0.58-0.11,1.7,0.21,1.88
		c1.02,0.56,0.72,1.24,0.52,1.97c-0.28,1.04-0.59,2.07-0.88,3.11c-0.39,1.39-0.09,2.47,1.34,3.11c0.35,0.16,0.72,0.46,0.91,0.79
		c1.55,2.73,2.94,5.56,4.64,8.19c0.91,1.4,2.18,2.7,3.57,3.63c1.89,1.26,3.03,3.07,3.85,4.94c1.22,2.78,2.74,5.51,2.98,8.66
		c0.04,0.47,0.64,0.89,0.98,1.33c0.35-0.35,0.74-0.66,1.03-1.05c1.96-2.63,3.88-5.29,5.85-7.91c1.9-2.52,3.93-4.94,5.71-7.54
		c0.85-1.24,1.74-2.11,3.23-2.25c1.11-0.11,1.52-0.67,1.55-1.77c0.05-1.91,0.39-3.83,0.3-5.73c-0.13-2.47,0.73-4,3.16-4.74
		c0.49-0.15,1.09-1.19,1-1.7c-0.19-1.02-0.63-2.14-1.31-2.91c-2.72-3.1-5.36-6.31-8.42-9.03c-2.87-2.54-5.05-5.4-6.51-8.88
		c-0.74-1.75-1.85-3.49,0.03-5.24c0.13-0.12-0.02-0.54-0.04-0.81c-0.09-1.91,0.07-3.54,2.1-4.68c3.16-1.79,6.17-3.87,9.16-5.94
		c2.01-1.39,3.91-2.95,5.8-4.5c0.37-0.3,0.46-0.93,0.68-1.41c-0.57,0.12-1.22,0.1-1.68,0.4c-0.8,0.52-1.45,1.25-2.2,1.84
		c-0.33,0.26-0.75,0.41-1.13,0.61c-0.12-0.13-0.25-0.27-0.37-0.4c0.97-1.25,1.83-2.61,2.95-3.7c1.34-1.31,2.92-2.38,4.37-3.58
		c0.63-0.51,1.2-1.09,2.07-1.88c-0.23,1.51-1.69,3.15,1.17,3.42c-1.86,0.52-1.47,3.78-4.33,2.65c0.2,0.55,0.26,1.05,0.52,1.4
		c1.97,2.63,3.97,5.24,6,7.83c0.62,0.79,1.3,1.55,2.04,2.23c1.91,1.77,3.91,3.45,5.79,5.25c0.39,0.38,0.61,1.19,0.54,1.75
		c-0.18,1.42-0.58,2.81-0.87,4.21c-0.64,3.1-1.34,6.2-1.87,9.32c-0.15,0.88,0.18,1.84,0.28,2.77c0.86-0.43,1.71-0.85,2.57-1.27
		c0.15-0.07,0.32-0.11,0.55-0.18c0.11,0.24,0.24,0.44,0.29,0.66c0.8,3.05,2.65,5,5.59,6.3c2.37,1.05,5.26,1.53,6.42,4.09
		c0.74,0,1.45-0.22,1.86,0.04c2,1.27,3.92,2.67,5.87,4c0.32,0.22,0.77,0.56,1.01,0.47c0.28-0.12,0.52-0.64,0.54-1
		c0.08-1.13,0.03-2.27,0.06-3.41c0.04-1.43-0.33-3.08,0.26-4.24c0.99-1.94,0.79-3.51-0.2-5.22c-0.84-1.45-1.65-2.91-2.49-4.37
		c-0.79-1.38-1.59-2.74-2.46-4.23c0.66-0.28,1.02-0.45,1.4-0.6c2.12-0.86,2.21-1.22,0.51-2.72c-1.3-1.14-2.77-2.11-4.03-3.29
		c-1.8-1.69-3.76-2.82-6.29-3.12c-2.3-0.27-4.69-0.69-6.34-2.59c-1.72-1.99-3.35-4.05-4.99-6.11c-0.39-0.48-0.57-1.41-1.01-1.52
		c-1.43-0.37-1.78-1.16-1.33-2.45c-2.2-0.22-2.96-1.52-2.11-3.44c-1.69-0.24-3-1.85-3.02-3.54c-0.01-0.68-0.25-1.36-0.44-2.37
		c0.26-0.47,1-3.72,1.09-4.82c0.04-0.43,0.33-0.86,0.6-1.23c1.79-2.51,3.29-5.11,3.69-8.27c0.49-3.85,1.16-7.69,1.74-11.53
		c0.67-4.37,1.39-8.73,1.97-13.12c0.54-4.04,0.93-8.11,1.4-12.24c0.65,1.41,1.27,2.76,1.92,4.16c1.23-0.46,2.02,0.19,2.61,2.47
		c0.74,0.33,1.44,0.51,1.97,0.91c0.84,0.64,1.49,1.53,2.35,2.13c4.18,2.88,8.41,5.67,12.6,8.53c1.82,1.24,3.55,2.69,3.5,5.09
		c-0.15,7.96-0.31,15.93-0.71,23.89c-0.25,5.05,1.77,8.9,5.35,12.16c0.26,0.24,0.68,0.29,1.02,0.43c0.3-1.36,0.57-2.54,0.95-4.23
		c3.03,4.25,6.39,7.32,10.86,9.07c0.48-1.03,0.84-1.81,1.26-2.72c4.69,3.29,9.26,6.3,14.71,7.76c0.32-2.06,0.59-3.85,0.94-6.16
		c3.53,2.31,6.63,4.34,9.97,6.53c0.19-1.09,0.3-1.74,0.43-2.43c1.15,1.45,2.13,2.87,3.32,4.1c1.1,1.14,0.82,3.65,3.53,3.49
		c-0.33-3.71-0.57-7.33-1-10.93c-0.19-1.58-0.09-2.73,1.9-2.93c-1.07-4.5-4.98-7.12-7.06-10.99c1.27-0.23,2.1-0.38,3.41-0.62
		c-3.68-4.03-7.04-7.7-10.64-11.64c1.78-0.2,3.12-0.35,4.47-0.51c0.05-0.21,0.1-0.42,0.15-0.63c-5.52-4.89-11.79-8.78-18.02-12.76
		c0.89-0.98,1.66-1.84,2.79-3.09c-2.65-0.51-4.84-1.24-7.04-1.29c-5.36-0.12-10.73,0.09-16.1,0.14c-0.33,0-0.73-0.13-0.99-0.34
		c-1.16-0.93-2.39-1.8-3.39-2.89c-3.5-3.83-6.94-7.75-12.16-9.28c-4.5-1.32-6.95-4.6-8.63-8.66c-0.19-0.47-0.18-1.23,0.08-1.65
		c1.29-2.14,2.69-4.2,4.13-6.4c0.1,0.44,0.1,0.82,0.26,1.11c0.18,0.33,0.51,0.58,0.77,0.87c0.28-0.27,0.68-0.48,0.81-0.81
		c1.21-2.93,2.5-5.84,3.51-8.84c0.83-2.46,1.3-5.03,1.9-7.43c0.73,0.32,1.41,0.62,2.09,0.92c0.16-0.48,0.51-0.98,0.45-1.43
		c-0.6-4.87-0.84-9.84-2.01-14.57c-1.44-5.83-3.65-11.47-5.56-17.18c-0.37-1.1-0.93-2.14-1.46-3.35c0.83,0.06,1.45,0.11,2.17,0.16
		c-0.3-0.83-0.54-1.48-0.97-2.64c4.95,2.02,9.35,3.87,13.79,5.6c1.45,0.56,2.01,1.34,1.9,2.94c-0.42,6.45-0.79,12.9-1.04,19.36
		c-0.22,5.81-0.35,11.63-0.35,17.44c0,2.14,0.39,4.3,0.74,6.42c0.1,0.62,0.68,1.16,1.04,1.74c0.5-0.37,1.09-0.65,1.47-1.11
		c0.67-0.81,1.21-1.74,2.03-2.95c2.01,4.51,3.89,8.71,7.06,12.18c3.14,3.43,6.14,6.96,10.64,9.35c-0.17-1.97-0.29-3.45-0.46-5.47
		c9.02,6.77,18.03,12.26,28.61,15.31c-0.07-1.16-0.13-2.15-0.21-3.29c1.84,0.95,3.54,1.61,5.01,2.61c3.78,2.57,8.5,3.61,11.54,7.42
		c1.97,2.48,4.35,4.64,4.88,7.99c0.03,0.19,1.03,0.5,1.25,0.33c0.43-0.33,0.82-0.94,0.9-1.48c0.42-2.84,0.93-5.68,1.06-8.54
		c0.18-3.75,0.04-7.51,0.04-11.47c0.54,0,1.43,0.11,2.28-0.05c0.4-0.07,1.06-0.78,0.99-0.99
		C181.72,256.35,181.4,252.09,178.79,248.68z M143.79,83.41c2.18,1.88,4.9,3.13,7.38,4.66c0.35,0.22,0.71,0.42,1.39,0.82
		c-4.39,0.35-7.98-0.64-11.58-2.66c-2.74-1.54-6.09-2.04-9.19-2.92c-2.18-0.62-4.52-0.84-6.58-1.72c-2.61-1.11-5.12-2.55-7.48-4.14
		c-4.51-3.03-8.86-6.3-13.33-9.39c-1.7-1.18-3.53-2.15-5.3-3.22c0.04-0.18,0.08-0.35,0.13-0.53c4.12,0.26,8.27,0.37,12.36,0.88
		c1.19,0.15,2.29,1.37,3.33,2.21c3.2,2.6,6.47,5.13,9.5,7.92c2.83,2.6,6,3.94,9.81,4.22C137.77,79.79,140.96,80.97,143.79,83.41z
		 M139.18,79.68c-4.1-1.15-8.09-1.8-11.63-3.42c-2.5-1.14-4.37-3.65-6.58-5.47c-2.12-1.75-4.31-3.4-6.7-5.28
		c4.13-0.29,7.67,0.06,10.83,2.99c3.09,2.87,6.72,5.15,10.07,7.74C136.44,77.22,137.6,78.32,139.18,79.68z M132.24,68
		c1.68,2.62,3.27,5.28,5.03,8.15c-4.42-3.32-8.63-6.5-12.85-9.67c0.04-0.11,0.09-0.23,0.13-0.34c2.05,0.14,4.12,0.19,6.15,0.49
		C131.27,66.71,131.87,67.43,132.24,68z M128.26,58.43c-1.74,0.98-1.76,0.98-0.68,2.79c0.79,1.33,1.62,2.63,2.61,4.24
		c-9.15-0.87-17.98-1.7-27.3-2.58c2.76-1.87,5.15-3.61,7.68-5.1c0.61-0.36,1.74,0,2.58,0.22c2.64,0.71,5.09,1,7.78-0.32
		C123.28,56.53,125.92,56.94,128.26,58.43z M122.41,55.83c-3.37,1.5-6.72,1.69-10.25,0.74c-0.94-0.25-2.28,0.04-3.14,0.57
		c-2.23,1.38-4.18,3.22-6.46,4.49c-1.6,0.89-3.55,1.15-5.35,1.66c-0.84,0.24-1.7,0.42-2.55,0.63c-0.85,0.22-1.7,0.44-3.07,0.8
		c2.26-5.34,2.83-11.09,8.48-13.82c-0.25,0.5-0.48,0.97-0.71,1.44c0.54,0.13,1.09,0.42,1.62,0.38
		C108.97,52.08,115,52.94,122.41,55.83z M93.38,48.59c2.47-0.13,4.95-0.05,7.43-0.05c0.04,0.11,0.09,0.22,0.13,0.33
		c-0.75,0.42-1.46,0.97-2.26,1.22c-2.16,0.68-3.54,1.98-4.31,4.16c-0.99,2.82-2.19,5.56-3.32,8.32c-0.8,1.97-4.17,2.71-5.72,1.23
		c-0.25-0.24-0.35-0.89-0.23-1.25c0.86-2.52,1.62-5.1,2.78-7.49c0.93-1.92,2.3-3.64,3.6-5.35C91.9,49.15,92.72,48.62,93.38,48.59z
		 M76.32,52.32c-0.66-0.64-0.59-1.39,0.33-1.68c4.49-1.41,9.05-2.38,14.14-2.14c-1.11,1.73-2.04,3.16-2.95,4.61
		c-1.75,2.79-3.34,5.63-3.76,9.01c-0.07,0.58-0.68,1.38-1.22,1.55c-0.98,0.32-1.42-0.41-1.64-1.38
		C80.39,58.59,79.14,55.07,76.32,52.32z M79.92,64.96c0.99,0.24,2.12-0.18,3.18-0.1c3.24,0.25,6.63,1.35,9.68,0.73
		c4.94-1,8.25,1.56,11.81,3.83c2.01,1.28,3.7,3.05,5.67,4.4c2.91,2,6.14,3.57,8.86,5.78c4.45,3.62,9.99,3.69,15.06,5.26
		c2,0.62,4.01,1.23,5.94,2.03c0.71,0.3,1.21,1.12,1.81,1.7c-0.1,0.25-0.2,0.49-0.31,0.74c-2.18,0-4.37,0.05-6.55-0.01
		c-1.79-0.05-3.58-0.29-5.37-0.31c-0.53,0-1.06,0.48-1.59,0.73c-0.01,0.24-0.03,0.48-0.04,0.71c-2.84-0.34-5.71-0.56-8.52-1.08
		c-1.27-0.23-2.55-0.9-3.63-1.65c-5.83-4.06-11.5-8.36-17.44-12.26c-2.25-1.48-5.08-2.06-7.58-3.19c-1.91-0.86-3.75-1.88-5.53-2.98
		c-0.42-0.26-0.83-1.27-0.64-1.65c0.72-1.52-0.22-1.71-1.25-1.69c-1.07,0.03-2.13,0.31-3.2,0.44c-1.06,0.13-2.13,0.2-3.51,0.33
		C77.69,65.46,78.31,64.57,79.92,64.96z M70.82,65.69c-0.63,0.83-1.26,1.66-1.89,2.5c0.14,0.12,0.28,0.24,0.41,0.36
		c0.95-0.79,1.79-1.83,2.88-2.28c1.15-0.48,2.53-0.39,3.93-0.56c-1.53,2.67-4.32,3.2-6.73,3.75c-1.21,0.28-2.86-1.32-4.28-2.05
		C66.74,63.58,67.51,63.26,70.82,65.69z M62.97,62.3c0.94,0.56,2.09,0.78,3.23,1.17c-0.7,1.1-1.33,2.09-2.04,3.19
		c-1.31-0.61-2.75-1.28-4.37-2.03c0.41-0.65,0.81-1.23,1.16-1.83C61.45,61.94,61.98,61.72,62.97,62.3z M56.49,59.17
		c1.43,0.57,2.8,1.29,4.18,1.95c-1.5,3.42-2.3,3.54-7.06,0.92c0.55-0.92,0.96-1.79,1.55-2.51C55.4,59.23,56.13,59.02,56.49,59.17z
		 M54.61,58.19c-1.49,3.86-2.5,4.21-5.74,1.87c0.49-0.59,0.98-1.18,1.46-1.77C52.32,55.79,52.32,55.79,54.61,58.19z M44.28,50.79
		c0.68,1.16,1.27,2.18,1.87,3.2c0.2-0.1,0.39-0.2,0.59-0.3c-0.7,1.39-1.4,2.78-2.09,4.16c0.2,0.11,0.39,0.22,0.59,0.34
		c0.87-1.41,1.75-2.82,2.73-4.42c1.03,0.61,1.97,1.16,3.1,1.83c-1.07,1.41-1.96,2.66-2.95,3.82c-0.21,0.25-0.85,0.31-1.22,0.21
		c-2.37-0.69-3.66-2.61-4.79-4.58c-0.23-0.4,0.25-1.3,0.56-1.89C43.01,52.47,43.52,51.87,44.28,50.79z M43.31,50.13
		c-0.7,1.15-1.39,2.28-2.17,3.56c-1.09-1.25-2.03-2.33-3.07-3.52c0.61-0.9,1.23-1.81,1.97-2.91C41.28,48.35,42.21,49.16,43.31,50.13
		z M36.19,43.87c0.27-0.18,1.03,0.03,1.32,0.31c0.72,0.7,1.3,1.54,1.86,2.24c-0.79,1.07-1.51,2.06-2.28,3.11
		c-0.32-0.15-0.59-0.26-0.84-0.41C33.98,47.7,33.92,45.34,36.19,43.87z M30.11,364.55c-1.48-2.71-2.8-4.97-3.95-7.32
		c-0.26-0.52-0.23-1.51,0.11-1.95c4.72-6.18,9.51-12.3,14.3-18.43c0.06-0.07,0.21-0.07,0.62-0.18c-0.17,3.23,0,6.43-0.64,9.46
		c-0.36,1.72-2.02,3.19-3.15,4.73C34.4,354.92,31.75,359.16,30.11,364.55z M39.52,377.76c-1.06-2.67-1.97-4.89-2.79-7.14
		c-0.14-0.39-0.05-0.99,0.17-1.36c0.98-1.61,2.04-3.17,3.07-4.74c0.2,0.06,0.39,0.13,0.59,0.19
		C40.22,368.93,39.89,373.15,39.52,377.76z M40.69,356.19c-0.03,1.55-0.16,3.11-0.3,4.65c-0.05,0.51-0.16,1.09-0.45,1.49
		c-1.47,2.09-3.01,4.14-4.61,6.31c-1.19-0.82-2.43-1.61-3.58-2.52c-0.28-0.22-0.44-0.89-0.32-1.24c1.99-5.86,5.3-10.97,9.27-15.77
		C40.7,351.48,40.74,353.84,40.69,356.19z M46.5,372.26c-1.86,2.23-3.79,4.4-5.73,6.63c0.38-4.32,0.78-8.75,1.17-13.19
		c0.15-0.09,0.3-0.18,0.45-0.27c1.62,1.68,3.28,3.31,4.79,5.08C47.37,370.75,46.89,371.79,46.5,372.26z M56.48,355.83
		c-0.06,1.01-0.28,2.03-0.23,3.04c0.1,2.22-0.06,4.02-2.79,4.78c-1.01,0.28-1.68,1.88-2.45,2.92c-0.84,1.14-1.62,2.32-2.46,3.52
		c-2.1-1.96-4.01-3.55-5.67-5.37c-0.68-0.75-1.14-2.01-1.12-3.03c0.07-4.23,0.36-8.45,0.6-13.19c3.96,4.7,7.69,9.12,11.41,13.53
		c-0.59-2.07-1.52-3.95-3.02-5.56c-2.45-2.63-4.81-5.34-7.27-7.96c-1.12-1.19-1.39-2.6-1.35-4.09c0.05-2.15,0.23-4.3,0.38-6.9
		c0.95,1.09,1.65,1.9,2.36,2.71c1.94,2.2,3.97,4.31,5.8,6.6c2,2.51,3.83,5.17,5.69,7.79C56.56,354.92,56.5,355.43,56.48,355.83z
		 M44.22,319.92c-0.15,0.45-0.61,1.04-0.46,1.3c0.98,1.71,0.03,3.22-0.34,4.8c-0.08,0.32,0,0.73,0.14,1.05
		c1.82,4.25,3.8,8.29,7.52,11.41c3,2.51,5.45,5.66,8.13,8.55c0.32,0.34,0.52,0.8,0.74,1.23c1.06,2.07,0.91,2.44-1.24,3.3
		c-0.79,0.32-1.57,0.68-1.99,0.86c-3.77-4.37-7.49-8.8-11.35-13.12c-2.02-2.26-3.37-4.62-2.98-7.8c0.21-1.69,0.04-3.42,0.04-5.13
		c-0.16-0.06-0.33-0.12-0.49-0.18c-0.25,0.48-0.67,0.94-0.73,1.45c-0.11,0.95-0.17,1.95,0.03,2.87c0.52,2.33-0.57,3.98-1.93,5.68
		c-4.86,6.06-9.65,12.18-14.58,18.42c-1.56-0.35-1.91-1.38-1.39-2.9c0.36-1.08,0.65-2.18,0.95-3.28c0.31-1.15,0.48-2.26-0.85-2.75
		c0.79-3.56,2.98-5.94,5.59-8.2c3.66-3.17,7.12-6.59,10.48-10.08c2.45-2.55,3.43-5.82,3.53-9.35c0.05-1.64,0.94-2.6,2.9-3.29
		C45.29,316.72,44.76,318.32,44.22,319.92z M46.54,317.37c-0.04-2.8,1.47-4.25,4.09-4.88C50.63,315.36,49.07,316.76,46.54,317.37z
		 M51.48,314.89c0.58-3.92,3.15-5.31,5.96-6.91C57.04,311.76,53.81,312.57,51.48,314.89z M109.23,307.53
		c-1.69-1.58-2.24-3.12-1.97-4.92c0.56-3.77,1.14-7.54,1.77-11.3c0.84-4.99,1.74-9.97,2.62-14.96c2.65,0.56,2.45,2.34,2.2,4.07
		c-0.58,4.08-1.24,8.16-1.84,12.24c-0.25,1.72-0.33,3.46-0.67,5.16C110.73,300.95,109.99,304.06,109.23,307.53z M115.63,308.92
		c-1.39-1.65-2.7-3.15-3.92-4.71c-0.2-0.26-0.12-0.81-0.06-1.21c1.16-7.97,2.33-15.95,3.5-23.92c0.02-0.16,0.1-0.32,0.16-0.48
		c3.24,1.34,3.26,1.46,2.93,4.79c-0.66,6.59-1.23,13.19-1.87,19.78C116.2,305,115.91,306.81,115.63,308.92z M126.07,299.7
		c-0.19,3.64-0.26,7.28-0.39,10.93c-0.01,0.22-0.09,0.43-0.17,0.82c-1.46-0.87-2.94-2.45-4.41,0.09c0.57-5.44,1.18-10.88,1.7-16.33
		c0.29-3.04,0.46-6.09,0.61-9.14c0.03-0.55-0.28-1.12-0.43-1.68c-0.16,0.05-0.31,0.09-0.47,0.14c-0.94,9-1.88,17.99-2.83,27.09
		c-1.92-0.76-2.76-1.82-2.5-4.09c0.93-8.32,1.59-16.66,2.35-25c0.02-0.23,0.13-0.45,0.31-1.04c0.95,0.68,1.84,1.21,2.58,1.89
		c1.28,1.17,2.54,2.38,3.68,3.68c0.42,0.48,0.72,1.27,0.69,1.9C126.6,292.53,126.25,296.11,126.07,299.7z M131.1,314.48
		c0,0.1-0.11,0.2-0.27,0.49c-1.01-0.58-2.07-1.1-3.01-1.79c-0.4-0.3-0.78-0.96-0.76-1.45c0.25-5.78,0.58-11.55,0.88-17.33
		c0.09-1.66,0.15-3.32,0.24-5.37c1.25,1.11,2.25,1.95,3.18,2.87c0.24,0.24,0.36,0.72,0.35,1.08
		C131.52,300.15,131.31,307.32,131.1,314.48z M136.83,317.44c-3.14-0.55-3.98-1.14-4.11-3.81c-0.2-4.23-0.11-8.48-0.07-12.72
		c0.02-2.36,0.18-4.73,0.3-7.6c1.41,1.18,2.42,1.93,3.3,2.8c0.33,0.32,0.57,0.94,0.54,1.4c-0.36,4.7-0.88,9.39-1.11,14.1
		c-0.07,1.42-0.43,3.11,1.03,4.32C136.97,316.14,136.8,316.89,136.83,317.44z M139.83,312.01c-2.2-0.46-2.14,1.32-2.88,2.4
		c0.3-5.39,0.61-10.79,0.93-16.42c1.26,0.72,1.89,1.27,1.81,2.78c-0.17,3.03,0.07,6.09,0.14,9.13
		C139.84,310.56,139.83,311.2,139.83,312.01z M148.11,317.56c-2.37-1.57-4.49-2.89-6.49-4.35c-0.4-0.29-0.55-1.13-0.56-1.73
		c-0.05-3.4-0.02-6.81-0.02-10.37c2.07,1.7,3.74,3.59,3.42,6.58c-0.19,1.85-0.31,3.7-0.4,5.56c-0.02,0.54,0.18,1.09,0.28,1.64
		c0.22-0.02,0.45-0.03,0.67-0.05c0.27-2.45,0.55-4.91,0.88-7.82c0.51,0.89,0.91,1.48,1.19,2.12c0.57,1.31,1.36,2.62,1.54,3.99
		C148.8,314.44,148.34,315.85,148.11,317.56z M154.04,319.17c-1.33-2-2.81-3.93-3.98-6.04c-1.17-2.11-2.03-4.39-3.22-7.01
		c2.89,1.21,5.47,2.3,8.05,3.38C152.6,312.69,154.89,316.04,154.04,319.17z M148.66,298.91c-0.09,0.79,0.33,1.77,0.82,2.47
		c1.13,1.61,2.44,3.08,3.65,4.63c0.44,0.56,0.77,1.2,1.47,2.28c-4.88-1.93-9.42-3.32-12.39-7.53c-1.86-2.62-4.13-4.95-5.59-6.67
		c3.84,0.86,8.91,2,14.43,3.23C149.83,298.09,148.71,298.44,148.66,298.91z M144.38,285.8c-1.01,0.43-2.03,0.84-3.05,1.25
		c0.59,0.84,1.11,1.73,1.78,2.51c1.82,2.12,3.69,4.18,5.43,6.13c-4.21-0.95-8.63-1.89-13.01-2.97c-1.24-0.31-2.58-0.81-3.53-1.62
		c-2.9-2.49-5.64-5.17-8.43-7.78c0.06-0.15,0.11-0.3,0.17-0.44c3.52,0.23,7.06,0.33,10.56,0.71c3.45,0.38,7.17-0.49,10.36,1.73
		C144.49,285.62,144.46,285.77,144.38,285.8z M107.93,270.31c7.09-0.52,14.46-0.84,22.26,0.84c-1.21,0.96-2.07,1.64-3.04,2.4
		c4.72,3.07,9.24,6.02,13.77,8.96c-0.04,0.11-0.08,0.23-0.12,0.34c-4.61-0.33-9.23-0.94-13.83-0.89c-4.07,0.04-7.18-1.74-10.36-3.82
		c-2.82-1.85-5.7-3.54-7.3-6.7c-0.13-0.25-0.5-0.37-1.05-0.32c0.52,0.82,1.17,1.59,1.53,2.47c0.4,0.99,0.88,2.14,0.73,3.12
		c-1.03,6.44-2.24,12.84-3.35,19.26c-0.36,2.05-0.59,4.13-0.88,6.19c-0.19,0.03-0.38,0.06-0.56,0.1c-0.33-1.43-0.87-2.86-0.93-4.3
		c-0.11-2.32,0.1-4.65,0.17-6.98c0.15-4.55,0.28-9.1,0.5-13.65c0.04-0.7,0.61-1.36,0.86-2.06
		C106.86,273.7,107.35,272.11,107.93,270.31z M105.8,274.33c-0.45-1.98-0.93-4.12-1.43-6.34
		C107.17,269.8,107.44,271.41,105.8,274.33z M100.89,264.43c2.06,0.83,2.86,1.92,2.63,3.89
		C102.32,267.03,100.09,266.8,100.89,264.43z M95.12,259.69c3.44,0.07,1.91,2.17,1.81,3.61c0.17,0.01,0.34,0.03,0.5,0.04
		c0.28-0.6,0.57-1.21,0.86-1.83c2.01,1.09,2.23,1.71,1.33,3.98c-1.47-0.91-3.1-1.63-4.29-2.79
		C94.8,262.18,95.16,260.76,95.12,259.69z M92.74,258.45c0.49,0.15,0.89,0.25,1.27,0.39c0.21,0.08,0.4,0.23,0.66,0.39
		c-0.1,0.41-0.18,0.8-0.3,1.17c-0.13,0.39-0.32,0.75-0.48,1.12C91.66,260.67,91.6,260.53,92.74,258.45z M89.57,257.04
		c2.13,0.56,2.29,0.81,1.22,2.8c-0.66-0.91-1.21-1.67-1.76-2.43C89.21,257.29,89.39,257.16,89.57,257.04z M172.37,225.14
		c0.56,1.05,1.18,2.07,1.94,3.39c-0.94-0.24-1.59-0.54-2.25-0.54c-0.58,0-1.43,0.18-1.67,0.57c-0.21,0.36,0.15,1.17,0.44,1.68
		c2.24,3.9,4.53,7.78,6.81,11.66c-0.15,0.12-0.3,0.25-0.45,0.37c-4.94-2.94-10.67-3.28-15.97-5.01c-3.21-1.05-6.32-1.99-8.12-5.51
		c-1.92-3.73-5.15-6.54-8.54-9.05c-1.1-0.81-2.14-1.69-3.12-2.96c1.77,0.18,3.54,0.4,5.31,0.54c3.04,0.24,6.09,0.35,9.13,0.68
		c4.33,0.48,8.66,1.07,12.97,1.68C170.39,222.88,171.61,223.71,172.37,225.14z M86.02,181.34c-0.2,0.13-0.4,0.25-0.6,0.38
		c-0.85-1.45-2.92-2.16-2.86-4.17c0.2-0.12,0.4-0.24,0.59-0.37C84.11,178.57,85.07,179.95,86.02,181.34z M121.28,182.94
		c-2.63-0.21-5.24-0.57-7.86-0.82c-1.61-0.15-3.23-0.22-4.85-0.26c-0.41-0.01-0.82,0.25-1.48,0.48c0.93,1.12,1.68,2.01,2.68,3.22
		c-5.99-0.36-11.68-0.41-16.56-3.93c-4.35-3.14-8.69-6.3-12.91-9.61c-1.85-1.45-3.38-3.3-5.39-5.31c2.43-0.47,4.14-0.91,5.89,0.54
		c3.78,3.12,7.63,6.2,12.29,7.99c0.64,0.25,1.31,0.43,1.96,0.64c0.07-0.14,0.14-0.28,0.21-0.42c-5.12-2.36-9.91-5.2-14-9.11
		c2.44-0.66,4.77-1.31,7.11-1.9c0.3-0.08,0.7,0.09,1.02,0.23c3.31,1.54,6.59,3.13,9.91,4.64c2.92,1.33,5.82,2.76,8.86,3.76
		c2.06,0.68,4.37,0.55,6.51,1.03c3.18,0.71,5.47,2.91,7.47,5.3c0.56,0.67,0.52,1.93,0.54,2.92
		C122.7,182.54,121.76,182.98,121.28,182.94z M81.77,174.95c0.2,0.69,0.07,1.47,0.07,2.22c-0.24,0.07-0.48,0.14-0.72,0.21
		c-1.36-2.15-2.73-4.3-4.09-6.45c0.15-0.1,0.29-0.2,0.44-0.3c1.03,1.26,2.06,2.53,3.09,3.79c-0.1,0.07-0.19,0.14-0.29,0.21
		C80.8,174.73,81.71,174.71,81.77,174.95z M126.75,173.07c1.99,1.95,3.93,3.95,5.87,5.94c0.2,0.2,0.34,0.45,0.48,0.65
		c-3.07-0.22-6.08-0.41-9.09-0.69c-0.46-0.04-0.92-0.48-1.31-0.81c-1.14-0.96-2.21-2.02-3.38-2.94c-2.67-2.12-5.83-2.46-9.11-2.74
		c-2.27-0.2-4.57-0.98-6.69-1.89c-3.79-1.62-7.45-3.53-11.16-5.34c-0.63-0.31-1.2-0.74-1.8-1.11c0.02-0.16,0.05-0.31,0.07-0.47
		c3.94-0.75,7.86-2.47,11.91-0.91c3.17,1.22,6.22,2.79,9.17,4.48c4.16,2.39,8.55,3.97,13.28,4.73
		C125.64,172.05,126.26,172.59,126.75,173.07z M124.4,170.4c-7.67-0.42-13.41-5.58-20.27-7.94c0.02-0.19,0.04-0.38,0.05-0.58
		c2.49,0,4.98-0.09,7.46,0.05c0.74,0.04,1.56,0.59,2.13,1.14c1.89,1.83,4.08,3.01,6.52,3.97
		C121.87,167.67,123.12,169.12,124.4,170.4z M119.14,165.34c-0.1,0.13-0.19,0.26-0.29,0.38c-1.85-1.5-3.7-2.99-5.55-4.49
		c0.15-0.21,0.3-0.43,0.45-0.64C115.54,162.17,117.34,163.76,119.14,165.34z M105.95,155.4c2.65,1,5.27,2.09,7.91,3.15
		c-0.05,0.21-0.1,0.42-0.15,0.63c-4.25,2.78-9.02,1.72-13.63,1.9c-0.13-0.16-0.27-0.33-0.4-0.49c1.63-1.66,3.24-3.34,4.93-4.95
		C104.89,155.37,105.58,155.26,105.95,155.4z M87.25,161.89c0.22-2.04,0.6-4.1,0.55-6.14c-0.08-3.01-0.53-6.02-0.74-9.03
		c-0.1-1.43,0.7-1.98,2.05-1.54c2.54,0.82,5.09,1.63,7.6,2.54c1.27,0.46,1.62,1.49,1.15,2.97c-0.41,0.06-0.84,0.13-1.26,0.2
		c-0.07,0.2-0.14,0.4-0.21,0.6c2.26,1.02,4.52,2.04,6.96,3.14c-1.29,1.5-2.72,2.91-3.85,4.54c-1.01,1.46-2.15,2.22-3.95,2.51
		c-2.87,0.46-5.67,1.3-8.72,2.04C86.97,163.1,87.18,162.5,87.25,161.89z M26.17,71.45c-0.02,0.03-0.04,0.07-0.06,0.1
		c-0.47,0.8-0.95,1.61-1.43,2.42c-0.18,0.3-0.36,0.61-0.54,0.91c-0.09-1.39-0.06-2.67,0.11-3.9c0.51-3.66,2.3-6.8,5.89-10.91
		c0,0,0,0,0,0c0,0,0,0,0,0C30.02,64.29,28.27,67.84,26.17,71.45z M31.91,50.98c-0.16,1.29,0.03,2.77-0.55,3.84
		c-1.91,3.55-4.1,6.96-6.18,10.42c-0.16-0.07-0.32-0.14-0.49-0.21c-0.75-6.13,3.9-9.69,6.53-14.2
		C31.46,50.87,31.69,50.92,31.91,50.98z M29.96,43.91c1.54,2.58,1.4,4.58-0.13,6.74c-1.79,2.52-3.47,5.11-5.19,7.66
		C23.41,52.47,27.79,48.7,29.96,43.91z M29.83,34.94c2.24,2.28,2.35,2.54,1.01,5.03c-1.71,3.18-3.55,6.3-5.52,9.36
		C24.78,43.93,26.57,39.27,29.83,34.94z M10.09,8.67c0.45-0.97,0.88-1.95,1.41-3.12c2,3.13,1.87,4.72-0.44,7.61
		C8.93,11.34,8.91,11.21,10.09,8.67z M13.53,16.08c-1.61-1.43-1.28-4,0.79-6.09C15.64,11.83,15.39,13.75,13.53,16.08z M16.39,13.19
		c2.9,2.52,1.04,5.16,0.47,7.82C13.96,18.53,14.72,15.9,16.39,13.19z M20.67,27.28c0.47-1.3,0.68-2.7,1.01-4.06
		c-0.3-0.06-0.61-0.12-0.91-0.17c-0.4,1.26-0.81,2.52-1.25,3.9c-3.11-3.02-1.26-6.02-0.48-9.31c1.63,2.93,3.36,5.52,4.48,8.34
		c0.42,1.06-0.52,2.7-0.95,4.04c-0.23,0.72-0.71,1.37-1.16,2.21C20.4,30.6,20.03,29.07,20.67,27.28z M23.34,36.46
		c-1.03-1.23-1.46-2.26-0.76-3.67c0.8-1.58,1.41-3.26,2.16-5.04c1.26,1.74,2.54,3.38,3.63,5.12c0.3,0.48,0.29,1.43,0.02,1.96
		c-1.04,2.01-2.24,3.93-3.46,6.01c-1.1-1.58-1.11-2.91-0.26-4.4c0.67-1.18,1.08-2.52,1.54-3.82c0.17-0.49,0.14-1.04,0.21-1.57
		c-0.19-0.06-0.39-0.11-0.58-0.17C25.04,32.68,24.23,34.47,23.34,36.46z M28.5,70.19c-0.23,1.79-0.44,3.49-0.66,5.2
		c-0.04,0.29-0.07,0.61-0.22,0.85c-2.21,3.6-4.44,7.19-6.68,10.78c-0.04,0.07-0.18,0.07-0.23,0.09
		C22.79,81.31,24.15,75.15,28.5,70.19z M18.07,94.04c1.26-2.21,2.51-4.41,3.81-6.59c1.73-2.92,3.49-5.81,5.24-8.71
		c0.12,0.04,0.24,0.08,0.36,0.12c-0.49,2.26-0.56,4.73-1.56,6.74c-1.89,3.79-4.32,7.31-6.47,10.85
		C17.67,96.07,17.38,95.26,18.07,94.04z M20.39,97.34c1.28-2.23,2.56-4.46,3.83-6.69c0.15,0,0.3-0.01,0.45-0.01
		c0.04,0.88,0.43,1.98,0.05,2.61c-1.01,1.65-2.35,3.11-3.56,4.64C20.91,97.71,20.65,97.52,20.39,97.34z M25.01,100.56
		c-0.54-0.17-1.28-0.79-2.58-1.95c0.02-0.11,0.02-0.25,0.08-0.34c1.24-1.65,2.49-3.3,3.74-4.94c1.47,0.94,2.17,3.13,1.22,4.58
		c-0.63,0.97-1.03,1.7-1.37,2.16S25.45,100.7,25.01,100.56z M29.74,104.32c-3.39-1.95-3.5-2.47-1.11-5.73
		C31.86,101.06,32.06,102.17,29.74,104.32z M31.32,104.7c0.36-0.47,1.07-0.66,1.61-0.98c0.32,0.81,1.02,1.69,0.87,2.41
		c-0.22,1.1-1.02,2.09-1.58,3.13C31.5,107.72,30.03,106.39,31.32,104.7z M35.09,106.98c1.84,2.44,1.84,2.68,0.3,4.94
		c-0.6,0.88-1.16,1.78-1.76,2.7C32.14,112.2,32.3,111.33,35.09,106.98z M34.18,116.01c0.57-0.68,1.01-1.47,1.51-2.21
		c0.46-0.69,0.93-1.37,1.58-2.34c2.3,3.9-1.55,5.41-2.29,8.04C33.4,118.51,33.21,117.18,34.18,116.01z M35.74,120.41
		c0.94-1.45,1.9-2.93,2.88-4.44c2.17,2.48,1.96,4.07-0.78,6.79C37.16,122.01,36.49,121.26,35.74,120.41z M41.14,120.36
		c2.37,2.38,2.46,3.62,0.41,6.63C38.03,123.38,38.35,124.45,41.14,120.36z M44.14,125.03c3.1,3.26,3.06,3.44,0.87,5.78
		C42.13,127.93,42.09,127.66,44.14,125.03z M47.62,129.37c1.86,2.3,1.86,2.62,0.04,4.76C45.49,132.19,45.49,132.19,47.62,129.37z
		 M50.88,137.94c-2.94-2.91-2.55-2.12-1.11-4.89C52.4,134.81,52.71,136.03,50.88,137.94z M53.08,137c1.75,1.74,1.76,1.97,0.08,3.79
		C51.02,139.44,52.23,138.25,53.08,137z M55.38,139.87c2.37,1.93,2.39,2.13,0.39,4.11C53.58,142.17,53.58,142.11,55.38,139.87z
		 M57.56,146.66c-1.26-1.37-1.24-1.62,0.78-3.58c0.55,1.25,2.75,1.73,1.1,3.57C58.75,147.41,58.25,147.4,57.56,146.66z
		 M64.32,152.57c-1.57-1.4-3.15-2.82-4.8-4.29c0.49-0.6,0.93-1.15,1.38-1.7C64.45,149.64,65.31,151.37,64.32,152.57z M66.72,157.33
		c-0.47-1.51-2.18-2.28-1.55-4.3C67.63,154.58,67.87,155.22,66.72,157.33z M69.89,156.85c-0.95-1.79-2.04-3.51-3.06-5.25
		c-0.09-0.15-0.24-0.3-0.26-0.47c-0.35-2.52-0.68-5.05-1.04-7.75c0.39,0.15,0.74,0.2,0.97,0.39c2.53,2.03,5.16,1.36,7.92,0.53
		c3.13-0.94,6.34-1.59,9.83-2.45c0.04,1.75,0.16,2.99,1.62,2.91c0.35,4.75,0.82,9.36,0.94,13.98c0.04,1.72-0.71,3.48-1.19,5.19
		c-0.08,0.29-0.61,0.58-0.97,0.63c-3.02,0.39-6.04,0.77-9.08,1.03c-0.35,0.03-0.92-0.54-1.12-0.96c-0.7-1.42-1.51-2.85-1.84-4.36
		C72.23,158.59,70.58,158.16,69.89,156.85z M16.78,186.37c1.05-1.4,1.77-2.87,2.92-3.78c3.18-2.51,6.41-5.04,9.89-7.1
		c3.27-1.94,6.89-3.27,10.34-4.9c2.7-1.28,5.36-2.64,8.08-3.89c0.94-0.43,2-0.63,3.21-0.99c-0.52-0.75-0.95-1.37-1.41-2.04
		c4.29-1.62,8.49,0.27,12.71-0.08c0.06,0.17,0.13,0.34,0.19,0.51c-3.02,1.63-5.89,3.65-9.08,4.81c-7.67,2.8-14.56,7.02-21.51,11.14
		c-3.74,2.22-7.35,4.67-11.27,7.18C19.89,187.03,18.53,186.74,16.78,186.37z M19.84,188.17c0.13,0.19,0.27,0.38,0.4,0.57
		c0.54-0.06,1.24,0.07,1.58-0.22c6.75-5.68,14.74-9.37,22.18-13.93c2.67-1.64,5.83-2.46,8.67-3.85c3.22-1.58,6.44-3.19,9.45-5.13
		c2.59-1.67,4.94-2.36,7.92,0.22c-0.85,0.76-1.52,1.7-2.44,2.15c-6.01,2.96-12.16,5.64-18.09,8.74
		c-7.36,3.86-14.52,8.13-21.84,12.07c-3.45,1.85-7.09,3.34-11.14,5.22C17.78,191.82,18.81,190,19.84,188.17z M16.12,195.56
		c0.1-0.31,0.89-0.37,1.35-0.59c3.61-1.74,7.28-3.36,10.79-5.27c4.41-2.4,8.6-5.23,13.06-7.53c6-3.1,12.19-5.83,18.27-8.79
		c2.79-1.36,5.51-2.89,8.26-4.33c0.25-0.13,0.53-0.23,1.23-0.53c-0.38,1.98-0.66,3.55-0.99,5.11c-0.05,0.25-0.29,0.52-0.52,0.65
		c-9.17,5.4-18.27,10.95-27.56,16.14c-8.25,4.61-16.71,8.84-25.08,13.24c-0.21,0.11-0.43,0.19-1.26,0.55
		C14.55,201.03,15.27,198.27,16.12,195.56z M14.34,215.5c0.03-0.46,0.65-0.96,1.1-1.3c8.08-6.03,16.86-10.94,25.57-15.97
		c6.73-3.88,13.46-7.76,20.15-11.71c1.65-0.98,3.14-2.23,4.71-3.35c-0.13-0.21-0.26-0.41-0.4-0.62c-0.72,0.4-1.46,0.77-2.16,1.21
		c-4.07,2.52-8.08,5.15-12.19,7.58c-10.45,6.19-20.97,12.27-31.42,18.46c-1.89,1.12-3.59,2.55-5.57,3.97
		c-0.18-1.85-0.21-3.45-0.51-5c-0.43-2.24,0.7-3.4,2.49-4.35c9.15-4.86,18.36-9.6,27.38-14.68c7.71-4.35,15.19-9.1,22.77-13.67
		c0.35-0.21,0.73-0.39,1.24-0.66c-0.78,3.95-1.51,7.69-2.26,11.43c-0.08,0.37-0.24,0.84-0.52,1.05c-5.91,4.27-11.74,8.66-17.8,12.72
		c-5.16,3.46-10.63,6.46-15.88,9.81c-5.2,3.32-10.29,6.81-15.43,10.22c-0.34,0.22-0.69,0.42-1.32,0.8
		C14.29,219.27,14.22,217.37,14.34,215.5z M17.69,228.62c-0.42-2.15-0.42-2.15-2.44-1.54c-0.17-0.62-0.33-1.24-0.52-1.86
		c-0.5-1.67,0.06-2.7,1.57-3.67c7.05-4.51,14-9.2,21.03-13.75c2.66-1.72,5.54-3.11,8.16-4.89c4.3-2.92,8.47-6.03,12.69-9.08
		c2.16-1.56,4.29-3.15,6.38-4.69c0.83,4.45-2.14,6.66-4.99,8.95c-7.7,6.17-15.34,12.43-23.12,18.51
		c-5.8,4.53-11.78,8.84-17.68,13.25c-0.18,0.14-0.4,0.23-0.68,0.39C17.94,229.63,17.79,229.13,17.69,228.62z M24.23,236.73
		c-0.86,0.82-1.42,1.95-2.27,3.17c-0.95-2.05-1.92-4.23-2.97-6.37c-0.63-1.29-0.19-2.15,0.85-2.92c3.23-2.38,6.49-4.7,9.66-7.16
		c6.28-4.89,12.52-9.82,18.74-14.79c4.58-3.66,9.1-7.39,13.66-11.08c0.22-0.18,0.52-0.25,1.04-0.51c0.25,1.63,0.49,3.02-0.77,4.21
		c-9.72,9.16-19.43,18.33-29.17,27.47C30.11,231.45,27.09,234.01,24.23,236.73z M24.68,238.31c12.52-11.78,24.97-23.49,37.75-35.53
		c-0.55,2.15-1.17,3.89-1.41,5.68c-0.39,3.01-2.18,5.06-4.2,7.06c-6.07,6.03-12.14,12.06-18.13,18.16c-2.72,2.77-5.25,5.72-7.9,8.55
		c-0.85,0.9-1.82,1.69-3.1,2.86C26.56,242.54,25.6,240.37,24.68,238.31z M34.16,255.86c-1.49-2.38-3.08-4.98-4.75-7.53
		c-0.76-1.16-0.87-2.03,0.24-3.12c5.62-5.53,11.23-11.09,16.72-16.75c4.09-4.21,7.99-8.6,11.98-12.91c0.27-0.29,0.55-0.58,1.11-0.72
		c-0.74,2.99-1.13,6.13-2.33,8.92c-0.77,1.81-2.67,3.16-4.14,4.65c-5.64,5.7-11.35,11.32-16.92,17.07c-1.46,1.5-2.55,3.36-3.76,5.09
		c-0.18,0.26-0.11,0.71,0.11,1.23c6.85-9.51,16.21-16.52,24-25.28c-1.02,3.77-1.98,7.35-2.97,10.93c-0.09,0.33-0.29,0.67-0.53,0.9
		C46.69,244.17,40.45,249.99,34.16,255.86z M35.27,257.76c5.02-6.39,11.26-11.57,16.85-17.37c0.16,0.08,0.31,0.16,0.47,0.24
		c-0.1,0.46-0.2,0.92-0.29,1.38c-0.82,4.27-3.22,7.57-6.23,10.58c-2.32,2.31-4.43,4.83-6.76,7.4
		C37.82,257.49,37.82,257.49,35.27,257.76z M45.22,271.32c-0.13,0-0.26,0-0.39,0c-0.16-1.32-0.32-2.64-0.53-4.4
		c-1.07,0.85-1.83,1.44-2.89,2.28c-0.77-2.56-1.53-5.02-2.22-7.51c-0.07-0.25,0.19-0.67,0.41-0.9c3.42-3.59,6.86-7.17,10.31-10.75
		c0.06-0.06,0.22-0.03,0.48-0.06c-0.58,2.52-0.74,5.21-1.85,7.42c-1.03,2.05-3.09,3.58-4.7,5.34c-0.4,0.44-0.85,0.87-1.15,1.37
		c-0.19,0.31-0.14,0.76-0.2,1.14c0.19,0.1,0.37,0.19,0.56,0.29c1.64-1.91,3.28-3.83,4.92-5.74c0.16,0.06,0.33,0.11,0.49,0.17
		C47.38,263.76,46.3,267.54,45.22,271.32z M63.97,256.25c-3.23,3.59-6.5,7.15-9.82,10.65c-0.55,0.58-1.4,0.86-2.12,1.28
		c-1.8,1.04-3.6,2.08-5.13,2.97c3.33-13.94,6.75-28.26,10.17-42.58c0.23-0.01,0.46-0.02,0.69-0.02c0.56,1.43,1.22,2.84,1.64,4.31
		c0.94,3.27,1.86,6.54,2.62,9.86c0.91,3.96,1.67,7.96,2.42,11.96C64.54,255.15,64.31,255.87,63.97,256.25z M69.04,255.88
		c-0.25,0.25-0.54,0.47-0.8,0.69c-3.07-0.87-2.57-3.55-3.12-5.6c-1.47-5.47-2.71-11.01-4.2-16.47c-0.69-2.51-1.78-4.91-2.64-7.38
		c-0.13-0.36-0.06-0.84,0.04-1.23c1.83-7.62,3.68-15.24,5.53-22.86c0.03-0.11,0.14-0.19,0.54-0.75c1.72,3.52,3.5,6.73,4.89,10.1
		c4.4,10.65,6.01,22.01,8.17,33.22c0.12,0.61,0.01,1.68-0.38,1.92C73.66,249.62,71.73,253.11,69.04,255.88z M91.78,347.75
		c-1.74-0.9-2.97-1.46-4.1-2.18c-0.36-0.23-0.65-0.9-0.64-1.36c0.11-4.4,0.29-8.8,0.69-13.33c1.53,1.85,3.66,3.1,4.21,5.77
		C92.67,340.26,91.59,343.71,91.78,347.75z M93.61,348.62c-0.44-0.27-0.73-1.19-0.7-1.78c0.15-2.78,0.43-5.55,0.68-8.61
		c4.49,3.82,5.63,8.91,6.9,14.14C98.03,351.05,95.77,349.92,93.61,348.62z M100.19,345.94c-0.87-1.7-1.69-3.3-2.52-4.92
		C101.15,341.76,102.72,343.69,100.19,345.94z M99.98,340.47c-3.06-0.56-8.78-6.14-10.78-10.75c2.34,0.51,4.46,0.97,6.57,1.43
		C95.74,335.13,98.81,337.38,99.98,340.47z M97.97,330.62c-1.26-0.26-2.32-0.47-3.38-0.7c-1.28-0.28-2.57-0.85-3.84-0.82
		c-3.26,0.08-4.66-2.45-6.52-4.32c-0.35-0.35-0.23-1.17-0.34-1.82C89.77,323.65,96.14,327.06,97.97,330.62z M78.34,316.96
		c1.16,2.17,3.13,3.7,3.64,6.39c0.27,1.41,1.72,2.69,2.85,3.8c1.22,1.2,1.71,2.42,1.57,4.14c-0.31,3.75-0.43,7.51-0.63,11.27
		c-0.03,0.58-0.09,1.15-0.15,1.95c-1.9-0.89-3.31-1.85-4.01-3.74c-1.2-3.25-1.25-3.23-4.29-1.47c0.06-0.77,0.05-1.4,0.17-2
		c0.87-4.21,1.75-8.42,2.69-12.62c0.28-1.24,0.09-2.21-0.94-3.01c-0.42-0.33-0.71-0.81-1.1-1.19
		C76.97,319.34,76.74,318.23,78.34,316.96z M75.5,314.51c2.04,1.18,2.08,1.63,0.37,3.51C73.81,316.94,73.77,316.54,75.5,314.51z
		 M73.46,312.13c1.99,1.55,0.16,2.27-0.44,3.26C71.4,314.32,71.43,314.11,73.46,312.13z M70.84,308.7c2.09,2.46,2.08,2.61-0.36,4.55
		c-0.56-0.73-1.12-1.46-1.75-2.28C69.49,310.15,70.16,309.44,70.84,308.7z M67.96,309.92c-2.44-2.41-1.92-2.33,0.71-5.24
		C70.59,307.81,70.59,307.81,67.96,309.92z M70.67,291.89c-2.06,3.38-3.53,7.16-6.84,9.66c-0.45,0.34-0.84,0.76-1.53,1.4
		c0.44-3.27,1.4-5.75,3.78-7.63c1.76-1.39,3.31-3.04,5.14-4.45C71.03,291.21,70.87,291.56,70.67,291.89z M71.52,288.57
		c-2.27,1.93-4.35,4.09-6.64,6.27c-1.31-2.51-1.18-2.51,0.7-3.99c2.11-1.65,4.02-3.56,5.96-5.4c0.47-0.44,0.75-1.07,1.36-1.43
		C72.99,285.81,72.98,287.33,71.52,288.57z M71.2,284.12c-0.17-0.1-0.34-0.19-0.5-0.29c0.86-1.49,1.72-2.97,2.8-4.85
		C74.59,282.12,72.22,282.73,71.2,284.12z M72.22,278.77c-0.51-2.4,1.26-3.51,2.55-5.11C75.05,276.1,73.88,277.53,72.22,278.77z
		 M72.69,273.99c0-2.78-0.31-5.46,2.37-7.28c0.47-0.32,0.65-1.09,0.96-1.65C75.59,268.28,75.68,271.66,72.69,273.99z M73.11,266.28
		c-1.31-4.02,2.03-6.16,4.06-9.07C77.69,261.24,75.41,263.86,73.11,266.28z M73.54,259.61c-0.95-4.31,2.87-5.19,4.46-7.47
		C77.77,255.28,75.47,257.12,73.54,259.61z M73.78,254.26c-0.4-3.58,3.02-3.88,4.47-6.19C78.25,250.04,77.21,251.4,73.78,254.26z
		 M81.85,251.29c-0.99-0.82-0.91-1.09,0.7-2.76c0.15,0.05,0.31,0.11,0.46,0.16C82.63,249.54,82.25,250.39,81.85,251.29z
		 M85.67,254.08c0.77,1.08,2.9,1.05,2.5,3.02C87.18,256.2,85.18,256.16,85.67,254.08z M84.32,254.12c-0.89-1.16-2.58-1.96-0.79-3.72
		C84.15,251.55,85.65,252.39,84.32,254.12z M91.04,234.85c-0.54,1.12-1,2.28-1.52,3.48c-0.43-0.71-0.74-1.23-1.05-1.75
		c-0.34,0.42-0.74,0.8-1.02,1.25c-2.1,3.46-4.17,6.93-6.27,10.43c-2.12-1.5-2.42-3.5-2.85-5.62c-1.42-7.03-3.02-14.03-4.63-21.02
		c-1.53-6.66-4.24-12.89-7.96-18.58c-1.47-2.25-1.36-4.27-0.91-6.57c0.82-4.22,1.59-8.45,2.39-12.68c0.23-1.23,0.49-2.46,0.81-4.03
		c0.93,1.96,1.66,3.66,2.51,5.29c1.05,2.01,2.27,3.92,3.3,5.94c2.35,4.63,4.69,9.27,6.93,13.96c2.88,6.05,5.68,12.14,8.47,18.23
		c0.77,1.69,1.3,3.48,2.1,5.16C92.41,230.61,92.07,232.72,91.04,234.85z M86.63,188.16c5.99,11.23,8.81,23.02,9.59,35.54
		c-1.96-1.02-2.42-0.02-2.56,1.59c-0.09,1-0.38,1.98-0.94,3.02c-0.73-1.77-1.4-3.57-2.2-5.31c-2.43-5.34-4.87-10.67-7.36-15.97
		c-1.94-4.12-3.93-8.21-5.97-12.28c-0.88-1.76-1.88-3.48-2.98-5.11c-2.46-3.64-4.07-7.65-5.45-11.78c-0.17-0.52,0.02-1.17,0.11-1.75
		c0.51-3.02,0.92-6.07,1.63-9.05c0.3-1.25,1.22-2.36,2.01-3.83c0.28,0.61,0.45,0.81,0.44,1c-0.1,2.81,1.77,4.71,3.1,6.88
		c2.16,3.53,4.54,6.83,7.47,9.8c2.04,2.08,3.54,4.69,5.41,7.24C88.15,188.16,87.7,188.16,86.63,188.16z M89.71,185.38
		c-2.18-0.92-3.22-2.32-2.59-3.6c1.06,0.64,2.1,1.27,3.24,1.95C90.13,184.33,89.92,184.85,89.71,185.38z M93.41,187.18
		c-1.06-0.55-3.31-0.33-2.14-2.82c1.22,0.67,2.39,1.32,3.56,1.96c0.05,0.17,0.1,0.33,0.15,0.5
		C94.45,186.96,93.77,187.37,93.41,187.18z M99.24,189.47c-1.25-0.44-2.45-0.86-3.64-1.28c0.43-1.82,1.19-1.83,4.34-0.09
		C99.73,188.5,99.53,188.9,99.24,189.47z M100.24,189.95c0.9-1.82,0.95-1.83,3.97-0.56C104.04,191.41,103.34,191.74,100.24,189.95z
		 M104.62,191.86c0.76-2.4,0.91-2.48,3.16-1.75c-0.51,0.81-0.94,1.5-1.48,2.36C105.79,192.29,105.2,192.07,104.62,191.86z
		 M109.33,212.62c-0.5,6.99-0.49,14.01-0.92,21c-0.1,1.55-1.12,3.03-1.71,4.55c-0.29-0.04-0.58-0.08-0.87-0.11
		c-0.16-3.14-0.46-6.28-0.46-9.43c0-4.19,0.6-8.4,0.31-12.56c-0.49-6.98,0.33-13.86,0.87-20.78c0.05-0.69,0.32-1.39,0.6-2.04
		c0.68-1.63,1.15-1.71,2.42-0.56c0.33,0.3,0.81,0.47,1.11,0.79c0.29,0.32,0.67,0.78,0.63,1.15
		C110.66,200.63,109.75,206.61,109.33,212.62z M113.12,238.59c-0.04,0.51-0.27,1-0.47,1.72c-0.81-1.66-1.56-3.07-2.18-4.54
		c-0.17-0.41-0.1-1.05,0.11-1.46c0.57-1.13,0-1.33-0.96-1.29c0.21-12.61,0.59-25.16,2.3-38.14c1.36,1.32,2.42,2.31,3.42,3.36
		c0.17,0.18,0.13,0.65,0.06,0.96c-0.42,1.9-0.8,3.7-0.25,5.74c0.39,1.41-0.2,3.07-0.28,4.62c-0.34,6.09-0.64,12.18-0.99,18.27
		C113.67,231.42,113.4,235,113.12,238.59z M119.22,239.68c-0.06,2.97-0.35,5.93-0.53,8.91c-2.43-1.13-4.83-5.64-4.64-8.4
		c0.41-6.14,0.71-12.29,1.1-18.44c0.36-5.73,0.78-11.46,1.12-17.19c0.1-1.62,0.01-3.24,0.01-5.1c1.99,1.49,3.24,2.86,3.09,5.44
		c-0.21,3.57,0.23,7.16,0.21,10.75C119.52,223.66,119.39,231.67,119.22,239.68z M118.16,199.87c-1.54-1.51-3.15-2.97-4.54-4.61
		c-0.89-1.05-1.45-2.4-2.42-4.08c9.69,2.64,18.92,0.09,28.56,0.7c-1.52,1.37-2.81,2.52-4.09,3.68c0.05,0.2,0.11,0.41,0.16,0.61
		c3.99,1.12,8.09,1.97,11.95,3.42c3.88,1.46,7.53,3.52,11.37,5.37c-2.98-0.21-5.68-0.5-8.37-0.56c-7.36-0.14-14.73-0.11-22.09-0.33
		c-1.67-0.05-3.31-0.84-4.97-1.3c-0.29-0.08-0.58-0.33-0.84-0.29C120.6,202.87,119.49,201.18,118.16,199.87z M125.88,247.14
		c-0.1,2.71-0.42,5.41-0.66,8.39c-1.61-1.43-3.1-2.69-4.49-4.06c-0.38-0.37-0.63-1.06-0.61-1.6c0.16-5.14,0.55-10.29,0.56-15.43
		c0.02-7.53-0.22-15.05-0.32-22.58c-0.04-2.72-0.01-5.44-0.01-8.58c2.27,1.98,4.13,3.55,5.91,5.2c0.29,0.26,0.37,0.87,0.35,1.31
		c-0.28,10.12-0.62,20.23-0.88,30.35C125.68,242.46,125.96,244.81,125.88,247.14z M133.13,252.63c0.06,0.88,0.13,1.76,0.2,2.64
		c-0.15,0.12-0.3,0.24-0.45,0.36c-1.71-1.33-3.45-2.63-5.12-4.01c-0.3-0.25-0.44-0.86-0.44-1.3c0.02-13.36,0.07-26.71,0.12-40.07
		c0.21-0.06,0.43-0.11,0.64-0.17c1.57,1.37,3.18,2.68,4.67,4.13c0.4,0.39,0.6,1.18,0.59,1.78c-0.19,9.89-0.47,19.77-0.63,29.66
		C132.67,247.97,132.97,250.3,133.13,252.63z M140.11,259.82c-0.48-0.16-0.65-0.22-0.82-0.28c-3.76-1.27-5.08-3.82-4.97-7.82
		c0.27-9.15,0.15-18.31,0.18-27.47c0.01-2.67,0-5.34,0-8.33c1.07,0.79,1.8,1.37,2.58,1.9c1.61,1.1,2.75,1.95,2.53,4.57
		c-0.49,5.63-0.16,11.35-0.05,17.02c0.12,6.16,0.36,12.31,0.55,18.47C140.12,258.47,140.11,259.05,140.11,259.82z M136,215.72
		c-3.43-3.25-7.24-6.04-10.72-9.23c-0.88-0.81-1.76-1.62-2.57-2.37c2.44,0.39,4.83,1.05,7.25,1.12c6.94,0.2,13.88,0.31,20.82,0.16
		c3.47-0.08,6.75,0.54,10.02,1.47c0.66,0.19,1.17,0.93,1.9,1.54c-1.82,0.46-3.42,0.87-5,1.27c4.2,4.03,8.14,7.82,12.09,11.62
		c-0.08,0.17-0.16,0.34-0.24,0.51c-3.11-0.54-6.21-1.17-9.34-1.6c-2.07-0.29-4.18-0.26-6.27-0.47c-4.52-0.45-9.07-0.78-13.54-1.53
		C138.82,217.95,137.19,216.86,136,215.72z M146.09,227.72c-0.27,5.32-0.76,10.63-0.92,15.95c-0.16,5.32-0.03,10.65-0.02,15.97
		c0,0.94,0,1.88,0,2.84c-2.94-0.53-3.65-1.21-3.74-3.91c-0.28-8.62-0.52-17.24-0.72-25.86c-0.08-3.28,0-6.57,0.01-9.85
		c0-0.52,0.05-1.03,0.1-1.88c1.77,1.39,3.44,2.44,4.75,3.84C146.12,225.44,146.14,226.75,146.09,227.72z M150.82,236.94
		c-0.26,6.52-0.49,13.04-0.68,19.56c-0.08,2.67-0.01,5.34-0.01,8.21c-1.61-0.79-3.42-0.72-3.41-3.17c0.03-6.45-0.3-12.9-0.21-19.34
		c0.07-5.07,0.53-10.14,1.25-15.55c1.19,1.47,2.93,2.77,3.42,4.44C151.67,232.86,150.9,234.97,150.82,236.94z M156.12,253.09
		c0.03,3.27,0.01,6.55,0.01,10.07c-3.67-1.14-1.66,1.91-2.65,2.83c-1.2-0.22-2.08-0.62-2.04-2.23c0.26-8.78,0.46-17.57,0.66-26.35
		c0.03-1.49,0-2.98,0.34-4.57c1.24,2.18,2.7,4.27,3.63,6.58c0.46,1.14-0.11,2.67-0.11,4.03
		C155.99,246.66,156.09,249.87,156.12,253.09z M161.09,253.37c-0.33,4.08-0.09,8.21-0.09,12.62c-3.86-1.35-3.44-1.46-3.7-5.58
		c-0.27-4.21-0.18-8.45-0.24-12.67c-0.02-2.07,0-4.14,0-6.68c0.91,1.96,1.5,3.62,2.41,5.08
		C160.91,248.4,161.31,250.67,161.09,253.37z M165.54,259.45c-0.28,2.87-0.27,5.78-0.4,8.73c-2.81-0.67-3.19-1.11-3.21-3.51
		c-0.01-1.37-0.01-2.75,0.04-4.12c0.11-2.97,0.26-5.93,0.4-9.16C164.86,253.75,165.85,256.3,165.54,259.45z M176.31,278.03
		c-1.35-1.54-2.7-3.09-4.04-4.63c-0.01,0.01-0.02,0.02-0.02,0.03c0-0.02,0-0.03,0-0.05c-0.82-0.62-1.65-1.23-2.47-1.84
		c-0.83-0.62-1.65-1.26-2.44-1.92c-0.5-0.42-1-1.21-0.99-1.82c0.1-3.27,0.36-6.54,0.55-9.71c1.52,1.45,1.86,2.65,1.72,4.65
		c-0.14,2.03-0.07,4.07-0.02,6.1c0.01,0.4,0.38,0.79,0.58,1.18c0.18-0.04,0.35-0.08,0.53-0.12c0-2.19,0-4.38,0-6.59
		c3.47,2.81,2.27,6.6,2.54,10.06c0.01,0.01,0.02,0.01,0.02,0.02c0,0,0,0,0,0c0.37-0.49,0.9-0.95,1.06-1.5
		c0.19-0.64,0.04-1.39,0.46-2.18c0.97,2.71,1.95,5.42,2.92,8.13C176.58,277.91,176.44,277.97,176.31,278.03z M181.17,259.85
		c-3.61,0.47-3.38,0.49-3.12,4.32c0.3,4.39,0.07,8.81-0.04,13.25c-2.91-9.95-8.72-18.31-14.16-27.22c2.82,1.36,5.72,2.59,8.45,4.11
		c2.73,1.51,5.3,3.31,8.28,5.2c-0.1-0.95-0.15-1.46-0.19-1.91c-0.56-0.06-1.11,0.05-1.39-0.17c-4.38-3.56-9.35-6.01-14.66-7.8
		c-1.53-0.52-2.55-1.44-3.24-2.88c-1.68-3.5-3.4-6.98-4.93-10.1c3.46,1.01,7.28,2.33,11.2,3.21c3.91,0.89,7.6,2.15,11.07,4.33
		c-1.01,0-1.88,0-2.75,0c0.27,1.01,0.42,2.06,0.84,3c0.45,1.03,1.29,1.91,1.71,2.95c1.25,3.12,2.38,6.29,3.5,9.29
		C181.26,259.78,181.22,259.85,181.17,259.85z"/>
</g>
</svg>
