<svg xmlns="http://www.w3.org/2000/svg" viewBox="0 0 369.99 160.98"><defs><style>.cls-1{fill:#d45315;}.cls-2{fill:#592f14;}.cls-3{fill:#fff;}</style></defs><title>アートボード 1</title><path class="cls-1" d="M156.05 62.21a6.64 6.64 0 0 0 4.76-1.88 6.36 6.36 0 0 0 2-4.79 6 6 0 0 0-2-4.49 6.69 6.69 0 0 0-4.76-1.88 6.39 6.39 0 0 0-4.68 1.88 6.08 6.08 0 0 0-1.91 4.49 6.42 6.42 0 0 0 1.91 4.79 6.35 6.35 0 0 0 4.68 1.88zm-45.67 31.7c-10.56 7.37-14.14 8.4-21.78 7.73-20.85-2.81-33.42-3.79-43.25-3.79 0 0 20.67-32.35 34.3-53 19.62-29.71 26-42 22.39-44.31-2.76-1.73-8.46.63-13.76 7.46l-.52.68-.54.76c-.63.93-1.37 2.08-2.24 3.44q-3.43 5.46-8.21 13.74t-10.41 18.38q-5.61 10-11 19.86t-10.03 18.57q-4.69 8.7-7.33 14.41c-28.38 2.02-34.76 10.37-37.19 12.91-.23.3-.44.58-.63.85-.83 1.68 1.28 2.54 4.08 1.14 17.39-8.7 45.87-2.93 66.42-.62s31.54-7.76 41.62-14.84l24.7-13.13s-7.68 11.77-9.71 18.64c-.08.32-.16.64-.23 1a8 8 0 0 0 0 4q.51 1.59 2.82 1.59c5.1 0 15.22-2.63 30-8.72l25.92-11.23a69.35 69.35 0 0 0-6.24 13.78 2.33 2.33 0 0 0 .8 2.47 8.87 8.87 0 0 0 3 1.81 8.16 8.16 0 0 0 3.55.5 3.12 3.12 0 0 0 2.68-1.59c1.6-3 2.94-5 10.15-10.38a112.41 112.41 0 0 1 19.62-11.79s-6.54 10.11-9.17 16.76-1.28 8.72-.62 9.39c1.43 1.45 4.23 2.14 8.84 1.23 9.51-1.86 25.08-9 34.62-13.12l20.52-9.38s-4.85 9-6.67 13-1.65 5.71-.41 6.61a6.29 6.29 0 0 0 2.46 1 11.39 11.39 0 0 0 2.9.22 9.26 9.26 0 0 0 2.32-.36q1-.28 3-4.34 2.74-3 6.88-7c2.75-2.65 5.64-5.21 8.69-7.64a61.88 61.88 0 0 1 9.13-6.14 17.54 17.54 0 0 1 8.32-2.5c1.84 0 2.8.52 2.9 1.54s-.51 2.18-1.81 3.45a19.1 19.1 0 0 1-5.58 3.52 21.57 21.57 0 0 1-8.11 1.76c-2.59-.14-5.8.18-5.79 3.19a18.7 18.7 0 0 0 2.32 8.11 17 17 0 0 0 5.57 5.59q3.84 2.52 10.94 2.53a38.74 38.74 0 0 0 10.39-1.65 111.28 111.28 0 0 0 11.8-4.07c4.06-1.65 8-3.43 12-5.37s7.48-3.79 10.72-5.58 6-3.35 8.18-4.7 3.67-2.22 4.35-2.61a4.86 4.86 0 0 0 1.81-2 1.83 1.83 0 0 0 .07-1.51c-.19-.39-.62-.6-1.3-.66a5 5 0 0 0-2.46.65q-1 .45-4.13 2.25t-7.53 4.2q-4.51 2.4-9.64 5.1t-10.14 4.93a89.75 89.75 0 0 1-9.55 3.7 26.33 26.33 0 0 1-7.61 1.44 17.58 17.58 0 0 1-6.23-.94 11.88 11.88 0 0 1-4-2.45 10.44 10.44 0 0 1-2.39-3.33 37.81 37.81 0 0 1-1.38-3.54q10.28-.58 16.22-3.66t7.54-6.5a5 5 0 0 0-1.33-6.21q-2.82-2.77-10.06-2.78a30 30 0 0 0-9.2 1.4 42.44 42.44 0 0 0-8.4 3.65 56.77 56.77 0 0 0-7.46 5.06 71.22 71.22 0 0 0-6.19 5.53l4.94-9.65c5.51-4.46 10.19-7.93 15.27-13a191.22 191.22 0 0 0 13.75-15.21 171.52 171.52 0 0 0 10.72-14.62 86 86 0 0 0 7-12.61c1.59-3.71 2.32-6.76 2.17-9.12s-1.28-3.74-3.4-4.13q-8.55-1.59-17.82 5.72t-19.4 25.28q-3.19 5.64-6.89 12.16t-7.43 13.18q-3.69 6.6-7 12.87l-.51 1-4.47 2.13q-3.55 1.72-8.62 4t-11 4.77c-4 1.64-7.8 3.17-11.52 4.56s-7.1 2.56-10.14 3.48a21.45 21.45 0 0 1-6.87 1.23c-.4 0-.42-.5-.08-1.52a34.32 34.32 0 0 1 1.73-4c.83-1.64 1.77-3.48 2.84-5.51s2.11-4.1 3.18-6.22a11.51 11.51 0 0 0 1.52-5.22 3.51 3.51 0 0 0-1.45-3 6.2 6.2 0 0 0-3.91-.79 23.06 23.06 0 0 0-5.73 1.22 67.73 67.73 0 0 0-6.37 3q-3.78 2-7.76 4.42t-7.74 5.22a53.29 53.29 0 0 0-6.24 5.21 25.44 25.44 0 0 1 3.41-5 9.38 9.38 0 0 0 2.25-4.27 2.59 2.59 0 0 0-.65-2.31 7.11 7.11 0 0 0-2.39-1.89 8.74 8.74 0 0 0-3.08-.88 4 4 0 0 0-2.82.72 7.46 7.46 0 0 0-.61.53 3.85 3.85 0 0 0-.38.23 45.11 45.11 0 0 1-4.27 2.16q-3.42 1.59-8.26 3.68t-10.43 4.33q-5.58 2.25-10.58 4.12t-8.76 2.88q-3.76 1-5.07.73c-.58-.2-.6-.94-.07-2.24s1.25-2.86 2.25-4.64 2-3.78 3.12-5.85a35.44 35.44 0 0 0 2.53-5.77 8.69 8.69 0 0 0 .5-4.4c-.24-1.16-1.22-1.74-3-1.74-5.67-.05-26.22 9.29-36.77 16.67zm191.41-35q3.18-6.51 7.1-13.54a135.87 135.87 0 0 1 8-12.75 72.92 72.92 0 0 1 7.82-9.48q3.76-3.77 6.66-3.77c1.36 0 1.91.84 1.67 2.53a23.71 23.71 0 0 1-2.61 6.88 105.18 105.18 0 0 1-6.09 10.07q-3.84 5.73-8.68 11.73t-10.41 11.93q-5.5 5.94-11 11z"/><path class="cls-2" d="M11.21 127.46h331.4v33.52h-331.4z"/><path class="cls-3" d="M37.22 150.75a.83.83 0 0 0 .54-.31 4 4 0 0 0 .32-.48l4.1-9 .27-.62a1.29 1.29 0 0 0 .09-.46c0-.1 0-.17-.07-.2l-.15-.1v-.49h4.16v.49a.42.42 0 0 1-.18.08c-.06 0-.09.1-.09.22a.89.89 0 0 0 .12.4l.26.54 4.47 9.37a1 1 0 0 0 .3.36 1.17 1.17 0 0 0 .36.16v.5h-3.92v-.41a.67.67 0 0 0 .29-.08.32.32 0 0 0 .15-.3.81.81 0 0 0-.05-.31l-.14-.35-.74-1.56h-5.9l-.77 1.48a4.18 4.18 0 0 0-.18.39.84.84 0 0 0-.07.32c0 .14 0 .24.14.27a1 1 0 0 0 .39.06v.49h-3.7zm9.2-4.57l-2.23-4.62-1.95 4.62zM81.34 140.09a1.24 1.24 0 0 0-.47-.36 1.52 1.52 0 0 0-.53-.11v-.49h4.55v.49a.56.56 0 0 0-.3.1.29.29 0 0 0-.17.26.48.48 0 0 0 .11.3l.25.33 2.79 3.64 2.43-3.42.37-.54a.59.59 0 0 0 .12-.34c0-.15 0-.24-.14-.27a.66.66 0 0 0-.27-.06v-.49h4.21v.49a1.18 1.18 0 0 0-.73.37 7 7 0 0 0-.7.76l-4.22 5.46v4.13c0 .28.18.41.53.41v.5h-3.65v-.5c.33 0 .5-.13.5-.41v-4.24zM128.54 139.62c-.41 0-.61.14-.61.42v6.32a2.6 2.6 0 0 0 1 2.13 4.56 4.56 0 0 0 2.95.8 4.63 4.63 0 0 0 3-.8 2.62 2.62 0 0 0 1-2.13v-6.36q0-.42-.69-.42v-.49h3.83v.49c-.4 0-.6.14-.6.41v7a3.63 3.63 0 0 1-.39 1.64 3.94 3.94 0 0 1-1.17 1.39 5.84 5.84 0 0 1-2 1 12.37 12.37 0 0 1-5.76 0 5.84 5.84 0 0 1-2-1 3.94 3.94 0 0 1-1.17-1.39 3.63 3.63 0 0 1-.39-1.64v-7a.33.33 0 0 0-.16-.31 1.31 1.31 0 0 0-.63-.1v-.49h3.94zM168.91 150.75a.79.79 0 0 0 .53-.31 3.06 3.06 0 0 0 .32-.48l4.11-9 .26-.62a1.32 1.32 0 0 0 .1-.46.25.25 0 0 0-.07-.2l-.16-.1v-.49h4.17v.49a.46.46 0 0 1-.19.08c-.06 0-.09.1-.09.22a.89.89 0 0 0 .12.4l.27.54 4.46 9.37a1 1 0 0 0 .3.36 1.17 1.17 0 0 0 .36.16v.5h-3.91v-.41a.67.67 0 0 0 .29-.08.32.32 0 0 0 .15-.3.81.81 0 0 0-.06-.31c0-.09-.08-.2-.13-.35l-.74-1.56h-5.91l-.76 1.48a2.58 2.58 0 0 0-.18.39.84.84 0 0 0-.07.32c0 .14 0 .24.13.27a1 1 0 0 0 .39.06v.49h-3.69zm9.2-4.57l-2.23-4.62-2 4.62zM217.46 139.13v.49c-.42 0-.63.14-.63.41v9.17h7.44a1 1 0 0 0 .55-.15.49.49 0 0 0 .22-.43h.5v2.9h-.54a.22.22 0 0 0-.22-.24 4.22 4.22 0 0 0-.55 0h-10.77v-.5c.48 0 .72-.13.72-.41v-10.37c0-.27-.24-.41-.72-.41v-.49zM254.66 150.75a.79.79 0 0 0 .53-.31 4.2 4.2 0 0 0 .33-.48l4.1-9 .26-.62a1.32 1.32 0 0 0 .1-.46.25.25 0 0 0-.07-.2l-.15-.1v-.49h4.16v.49a.48.48 0 0 1-.18.08c-.07 0-.1.1-.1.22a.81.81 0 0 0 .13.4l.26.54 4.46 9.37a1.12 1.12 0 0 0 .3.36 1.17 1.17 0 0 0 .36.16v.5h-3.91v-.41a.67.67 0 0 0 .29-.08.32.32 0 0 0 .15-.3.81.81 0 0 0-.05-.31 3.6 3.6 0 0 1-.14-.35l-.75-1.56h-5.89l-.78 1.48a3.87 3.87 0 0 0-.17.39.84.84 0 0 0-.07.32c0 .14 0 .24.14.27a1 1 0 0 0 .38.06v.49h-3.69zm9.2-4.57l-2.23-4.62-2 4.62zM299.69 150.75a.45.45 0 0 0 .23-.11.52.52 0 0 0 .1-.38v-10.09a1 1 0 0 0-.07-.47.37.37 0 0 0-.26-.08v-.49h3.83v.49c-.19 0-.28.08-.28.25a.62.62 0 0 0 .1.29l.29.51 3.36 6.2 3.39-6.18c.13-.21.23-.4.3-.53a.78.78 0 0 0 .12-.29c0-.17-.08-.25-.23-.25v-.49h3.89v.49a.48.48 0 0 0-.26.07.31.31 0 0 0-.13.29v10.36a.38.38 0 0 0 .13.32.43.43 0 0 0 .26.09v.5h-3.21v-.5c.39 0 .56-.13.5-.41v-7.74h-.05l-4.7 8.65h-.22l-4.43-8.65v7.74c0 .28.16.41.47.41v.5h-3.12z"/></svg>