<?xml version="1.0" encoding="utf-8"?>
<!-- Generator: Adobe Illustrator 22.1.0, SVG Export Plug-In . SVG Version: 6.00 Build 0)  -->
<svg version="1.1" id="編集モード" xmlns="http://www.w3.org/2000/svg" xmlns:xlink="http://www.w3.org/1999/xlink" x="0px"
	 y="0px" viewBox="0 0 256.49 379.47" style="enable-background:new 0 0 256.49 379.47;" xml:space="preserve">
<style type="text/css">
	.st0{fill:url(#SVGID_1_);}
</style>
<linearGradient id="SVGID_1_" gradientUnits="userSpaceOnUse" x1="128.2779" y1="391.7127" x2="128.2779" y2="151.9998">
	<stop  offset="0" style="stop-color:#FF5C08"/>
	<stop  offset="0.2929" style="stop-color:#FF4307"/>
	<stop  offset="1" style="stop-color:#FF0E26"/>
</linearGradient>
<path class="st0" d="M78.25,68.23c-0.81,0.64-1.71,1.2-2.42,1.94c-1.27,1.34-1.4,1.41-2.69,0.18c-0.56-0.54-1.08-1.12-1.62-1.68
	c-0.2-0.2-0.45-0.56-0.65-0.54c-1.97,0.2-2.62-1.04-2.85-2.84c-0.49,0.28-0.79,0.45-1.08,0.63c-2.53,1.53-2.53,1.53-4.48-0.89
	c-0.61,0.23-1.28,0.45-1.92,0.74c-1.12,0.51-1.88,0.21-2.17-0.99c-0.23-0.92-0.36-1.86-0.57-2.95c-1.16-0.23-2.36-0.58-3.53,0.45
	c-0.79,0.7-1.5,0.34-1.74-0.62c-0.3-1.21-0.47-2.45-0.72-3.81c-0.72-0.18-1.74-0.14-2.25-0.64c-0.41-0.39-0.19-1.43-0.25-2.22
	c-3.13-0.41-3.13-0.41-2.5-3.7c-0.99-0.86-2.88-0.81-2.86-2.77c-0.73-0.04-1.39-0.03-2.04-0.12c-1.48-0.2-1.85-0.94-1.08-2.24
	c0.42-0.71,0.77-1.62,2.03-1.52c-0.67,0.89-1.24,1.65-2,2.67c1.82,0.53,3.25,1.16,4.84,0.14c1.14-0.73,2.42-1.12,3.88-0.85
	c-1.55,0.78-3.1,1.55-4.73,2.37c1.3,1.39,3.76,2.1,5.06,1.54c0.32-0.14,0.6-0.54,0.75-0.88c0.68-1.52,1.31-3.06,2.04-4.79
	c-2.14-0.89-5.03-0.82-6.42-3.71c0.83-0.72,1.72-1.48,2.6-2.24c-2.19-3.11-3.09-3.51-6.18-2.43c1.66,1.04,3.08,1.94,4.51,2.84
	c-1.48,1.04-3.08,2.17-4.75,3.34c1.63,2.08,3.9,1.4,5.88,2.06c-2.09,0.81-4.81,0.19-6.07-1.19c-0.61-0.66-0.69-1.22,0.06-1.8
	c0.94-0.73,1.87-1.48,2.92-2.31c-1.3-1.1-2.63-2.21-4.02-3.39c1.21-1.36,2.84-0.53,3.81-1.24c1.02-0.75,1.72-1.94,2.6-2.98
	c-0.28-0.36-0.75-0.96-1.52-1.94c0.93-0.6,1.83-1.18,2.91-1.88c-1.38-1.28-1.41-3.05-3.15-3.41c-0.13-0.03-0.28-0.26-0.31-0.42
	c-0.24-1.15-1.05-1.09-1.78-0.69c-0.9,0.5-1.03,1.55-0.39,2.14c0.86,0.8,2.04,1.27,3.1,1.84c0.24,0.13,0.57,0.1,0.9,0.5
	c-1.64,0.23-3.28,0.47-5.01,0.71c0.45,2.2,2.51,2.66,3.91,3.88c-2.42,0.8-4.74-1.6-4.81-4.76c0.6-0.13,1.22-0.27,1.68-0.37
	c-0.27-1.16-0.76-2.28-0.73-3.4c0.04-1.5,1.46-1.48,2.8-1.68c-0.32-0.96-0.59-1.85-0.93-2.7c-0.32-0.8-0.1-1.36,0.71-1.49
	c1.38-0.23,2.79-0.33,4.38-0.5c0.47-0.88-0.63-2.67,1-3.23c-0.08-1.45-0.23-2.81-0.19-4.16c0.03-0.73,0.18-1.59,1.21-1.76
	c0.97-0.16,1.62,0.28,2.1,1.05c0.2,0.32,0.34,0.69,0.5,1.03c-0.09,0.07-0.19,0.14-0.28,0.22c-0.35-0.4-0.66-0.82-1.05-1.19
	c-0.62-0.59-1.2-0.45-1.63,0.25c-1.13,1.87,0.05,4.67,2.52,5.33c0.74-2.35,1.48-4.71,2.27-7.22c1.88,0.3,3.5,1.45,5.26,2.99
	c0.23-1.49,0.41-2.74,0.62-4.13c3.45-0.27,4.54,2.9,6.67,4.68c0.85-1.45,1.61-2.65,2.29-3.91c0.53-0.98-0.54-2.85-1.97-3.55
	c-1.25-0.61-1.91-0.31-2.62,1.19c-0.21,0.45-0.49,0.87-0.87,1.53c-0.27-2.84-0.6-3.21-3.46-3.99c-0.34,1.46-0.68,2.92-1.06,4.57
	c-0.84-1.83-0.24-3.43,0.51-4.84c0.21-0.4,1.57-0.19,2.66-0.28c2.82-2.83,4.34-2.95,5.82,0.03c-0.53-0.33-0.85-0.51-1.15-0.73
	c-1.43-1.02-2.92-0.65-3.63,0.97c-0.12,0.27-0.09,0.84,0.07,0.94c0.27,0.16,0.76,0.16,1.05,0.02c1.71-0.85,2.71-0.7,3.95,0.64
	c0.69,0.76,1.17,1.71,2.48,1.78c0.52,0.03,1.07,0.89,1.46,1.48c0.63,0.94,1.13,1.96,1.79,3.14c0.8-1.02,1.5-1.92,2.24-2.86
	c0.59,0.26,1.07,0.47,1.55,0.68c1.1-1.34,0.65-2.29-2.12-4.27c-0.37,0.39-0.77,0.79-1.14,1.22c-0.35,0.4-0.66,0.84-1.29,1.11
	c0.37-0.81,0.73-1.62,1.14-2.51c-0.79-1.02-1.61-2.09-2.64-3.42c-0.86,1.27-1.58,2.32-2.35,3.46c-0.08-0.1-0.42-0.39-0.38-0.46
	c0.69-1.17,1.37-2.35,2.21-3.41c0.13-0.17,1.15,0.1,1.51,0.44c0.68,0.63,1.17,1.46,1.78,2.26c1.12-0.69,1.46-2.63,3.12-2.05
	c1.4,0.49,1.15,2.03,1.72,3.06c-0.13,0.07-0.26,0.14-0.39,0.21c-0.49-0.89-0.98-1.78-1.47-2.67c-0.18-0.12-0.36-0.24-0.54-0.36
	c-0.46,0.61-0.92,1.23-1.49,1.98c1.44,1.15,2.7,2.14,3.96,3.14c-0.08,0.18-0.16,0.36-0.24,0.54c0.51-0.63,1.03-1.25,1.52-1.9
	c1.2-1.56,1.53-1.58,2.86-0.13C85.44,4.7,85.59,4.88,85.69,5c1.4-0.5,2.76-0.92,4.05-1.48c1.05-0.45,1.47,0.07,1.71,0.9
	c0.33,1.14,0.58,2.3,0.85,3.4c1.25,0.06,2.54,0.12,3.83,0.17c1.98,0.08,1.22,1.85,1.74,2.92c0.78-0.15,1.53-0.33,2.29-0.43
	c1.94-0.25,2.37,0.07,2.44,2.06c0.04,1.17-0.16,2.35-0.25,3.5c1.01,0.11,2.1,0.12,3.12,0.37c1.95,0.47,2.23,1.17,1.41,2.94
	c-0.15,0.32-0.28,0.64-0.35,0.82c1.45,0.79,2.81,1.54,4.17,2.29c0.06,0.21,0.12,0.43,0.18,0.64c-0.92,0.79-1.85,1.59-2.96,2.54
	c0.63,0.51,1.21,0.97,1.77,1.46c1.43,1.24,1.43,1.65,0.06,2.93c-0.21,0.2-0.39,0.42-0.61,0.66c0.74,0.79,1.49,1.47,2.09,2.27
	c1.24,1.65,1.21,1.71-0.24,3.09c-0.26,0.24-0.58,0.41-0.93,0.65c0.62,0.98,1.12,1.72,1.57,2.47c0.82,1.37,0.57,1.89-1.03,2.13
	c-0.46,0.07-0.93,0.06-1.16,0.08c-0.05,1.4-0.19,2.7-0.09,3.99c0.05,0.59,0.57,1.17,0.92,1.71c1.05,1.62,0.99,1.98-0.74,2.9
	c-0.89,0.48-1.83,0.84-2.73,1.24c0.32,3.44,0.32,3.44-3.2,4.12c0.23,1.48,0.22,2.9-1.34,3.84c-0.31,0.19-0.17,1.12-0.21,1.71
	c-0.27,3.44-0.27,3.44-3.71,2.98c-0.45,1.58-1.6,1.49-2.9,1.07c-0.91-0.29-1.84-0.49-2.59-0.68c-0.81,1.74-1.63,3.37-2.33,5.05
	c-0.42,0.99-1.07,1.08-1.86,0.66c-1.56-0.84-3.08-1.75-4.58-2.6c-0.95,0.97-2.09,2.14-3.46,3.55c-0.98-1.11-1.71-1.94-2.43-2.76
	c0.75,0.46,1.51,0.91,2.54,1.54c0.94-1.24,1.94-2.41,2.76-3.69c0.55-0.85,0.59-1.75-0.36-2.55c-0.75-0.64-1.26-1.51-0.75-3
	c0.69,2.41,2.25,3.4,4.08,4.12c0.79,0.31,1.45,0.25,1.82-0.54c0.6-1.3,1.17-2.61,1.65-3.96c0.3-0.84-0.08-1.27-1.01-1.06
	c-0.06,0.01-0.15-0.12-0.23-0.18c0.22-0.32,0.44-0.64,0.75-1.08c-0.31-0.24-0.54-0.43-0.78-0.6c-0.23-0.16-0.47-0.3-0.79-0.51
	c-0.18,0.39-0.31,0.65-0.43,0.91c-0.83,1.75-1.09,1.86-2.89,1.18c-0.71-0.27-1.42-0.55-1.83-0.71c-1.17,2.23-2.16,4.39-3.4,6.4
	c-1.19,1.93-1.3,1.86-3.2,0.73c-0.08-0.05-0.22,0.01-0.33,0.01c0.05,0.07,0.11,0.14,0.16,0.21c-1.19,0.93-2.39,1.86-3.75,2.92
	c0.51,0.54,1.14,1.2,1.85,1.94c1.79-1.59,3.44-3.07,5.08-4.54c0.07,0.08,0.14,0.15,0.21,0.23C79,66.73,78.62,67.48,78.25,68.23z
	 M90.46,34.03c0.18-0.34,0.36-0.68,0.54-1.03c0.41-0.78,0.96-1.53,1.18-2.36c0.28-1.06-0.5-1.66-1.4-1.98
	c-0.98-0.35-1.37,0.24-1.65,1.1c-0.38,1.16-0.87,2.29-1.35,3.54c1,0.26,1.86,0.48,2.71,0.7c0.56,0.66,1.22,0.87,1.81,0.14
	c1.07-1.35,2.22-2.68,3.03-4.18c0.76-1.39-0.24-2.89-1.66-2.74c-0.7,0.07-1.36,0.48-2.11,0.77C93.61,30.62,93.02,33.27,90.46,34.03z
	 M80.74,25.72c2.27-0.88,3.55-3.73,2.52-5.82c-0.26-0.53-0.84-1.05-1.39-1.25c-1.5-0.56-4.42,0.84-4.97,2.32
	c-0.11,0.3,0.09,0.72,0.16,1.13c2.2-0.99,3.19-0.52,3.72,1.72c0.14,0.61,0,1.28-0.01,1.93c-0.23-0.03-0.46-0.05-0.36-0.04
	c-0.27-1.13-0.43-2.12-0.78-3.03c-0.1-0.26-0.84-0.47-1.19-0.37c-0.36,0.11-0.88,0.65-0.85,0.95c0.19,1.83,0.53,3.65,0.87,5.82
	C79.36,27.75,80.05,26.73,80.74,25.72z M59.17,40.51l-0.03-0.03c-0.74-1.13-1.22,0.07-1.74,0.26c-1.43,0.54-2.16,2.78-1.47,4.15
	c0.52,1.02,3.55,1.81,4.57,1.18c0.2-0.12,0.36-0.32,0.49-0.51c0.92-1.28,1.84-2.58,2.87-4.03C62.37,41.21,60.77,40.86,59.17,40.51z
	 M71.35,58.44c0.68-0.1,1.35-0.19,1.74-0.25c-0.15,0.72-0.58,1.49-0.35,1.93c1.12,2.17,2.86,3.79,4.88,5.1
	c3.67-4.1,4.37-6.63,2.82-9.83c-1.69,2.35-1.68,2.35-2.31,5.03c-0.07,0.29-0.13,0.71-0.33,0.81c-0.46,0.22-1.09,0.52-1.47,0.36
	c-1.06-0.45-1.73-2.42-1.42-4.03c0.68,1.24,0.48,2.91,2.22,3.42c1.23-3.4-2.06-3.67-3.31-5.33c-0.88,1.02-1.66,1.92-2.44,2.82
	c-0.92,0.42-1.84,0.83-2.3,1.05c-1.27,1.16-2.22,2.07-3.25,2.86c-0.07,0.06-0.96-0.64-1.16-1.12c-0.44-1.05-0.41-2.13,0.73-2.98
	c0,1.01,0,2.02,0,3.07c2.7-0.7,2.85-2.09,0.73-4.57c-0.5,0.21-1,0.41-1.49,0.63c-2.01,0.92-3.01,2.89-2.41,5.01
	c0.15,0.54,0.78,0.94,1.3,1.52c-0.55,0.53-0.27,1.37,0.52,1.78c0.48,0.25,1.4,0.14,1.9-0.18c1.1-0.7,2.13-1.56,3.04-2.49
	C70.24,61.79,71.54,60.48,71.35,58.44z M69.22,44.08l0.03,0.03c-0.59-1.72-0.21-3.88-1.6-4.66c-2.09-0.1-3.56-0.1-5.02-0.26
	c-1.08-0.11-1.74-0.83-1.75-1.94c-0.02-1.19,0.52-2.13,1.71-2.46c1.35-0.38,2.61-0.06,3.72,0.84c-0.88-0.01-1.78-0.39-2.59-0.26
	c-0.71,0.12-1.54,0.68-1.89,1.3c-0.21,0.37,0.19,1.47,0.64,1.79c1.57,1.12,4,0.24,4.99-1.47c0.55-0.94,1.27-1.94,2.16-2.49
	c1.35-0.82,1.82-1.77,1.1-3.22c-0.34-0.69-0.84-1.43-0.83-2.14c0.03-1.55-1-1.88-2.1-2.22c-1.71-0.53-3.17,0.11-4.56,1.03
	c-0.68,0.44-0.65,1.09-0.12,1.51c1.1,0.88,2.29,1.68,3.49,2.43c0.6,0.37,1.35,0.51,1.96,0.88c0.23,0.14,0.26,0.61,0.52,1.28
	c-1.12-0.58-1.75-1.03-2.45-1.25c-2.85-0.91-7.47,0.54-9.28,2.93c-0.23,0.31-0.24,1.09-0.01,1.38c1.71,2.14,3.86,3.56,6.69,3.68
	c1.16,0.05,2.33,0.01,3.5,0.01c0.1,0.12,0.19,0.24,0.29,0.36c-5.18,1.24-6.75,4.89-7.06,9.69c1.52,0.15,2.85,0.5,4.11,0.35
	c2.39-0.27,4.98-3.37,5.04-5.83C69.92,44.93,69.46,44.5,69.22,44.08z M75.34,31.15c0.11-0.4,0.29-0.8,0.32-1.21
	c0.08-1.21-0.94-2.74-1.75-2.55c-1.31,0.31-1.33,1.34-1.12,2.42c0.01,0.08-0.11,0.18-0.24,0.38c-0.22-0.19-0.51-0.33-0.6-0.55
	c-0.45-1.04-0.1-2.44,0.75-2.89c1.07-0.57,2.06-0.19,2.72,0.66c0.58,0.74,0.91,1.68,1.37,2.56c0.75-2.03,0.59-4.7-0.47-7.49
	c-0.78,0.56-1.58-1.02-2.43,0.09c-0.87,1.14-1.79,2.24-2.57,3.43c-0.86,1.3-0.71,2.74-0.28,4.17c0.22,0.73,0.66,1.03,1.48,0.96
	c0.94-0.09,1.91-0.01,2.86,0c0.48,0.5,0.96,1.01,1.42,1.49c2.09-1.55,2.16-1.51,4.17-0.1c0.42,0.3,1.36,0.41,1.7,0.15
	c0.57-0.44,1-1.21,1.21-1.92c0.13-0.45-0.16-1.42-0.44-1.5c-0.52-0.14-1.26,0.07-1.74,0.39c-0.42,0.28-0.62,0.91-1.04,1.59
	c-0.5-1.13-0.29-2.01,0.45-2.39c0.71-0.36,1.78-0.56,2.47-0.27c0.58,0.24,1.19,1.27,1.16,1.94c-0.06,1.78-0.87,3.21-2.8,3.45
	c-0.31,0.98-0.58,1.83-0.85,2.68c2.23,1.85,2.54,2.53,1.6,4.27c-0.41,0.75-1.04,1.59-1.77,1.91c-0.76,0.33-1.76,0.07-2.72,0.07
	c-0.87,2.51-1.39,2.79-4.34,2.5c-0.45-0.04-1.21,0.31-1.37,0.68c-1.56,3.54,0.96,9.32,4.58,10.8c0.96,0.39,1.58,0.22,2.06-0.71
	c1.49-2.86,1.99-5.74,0.25-8.69c-0.21-0.36-0.29-0.8-0.43-1.2c0.14-0.06,0.28-0.12,0.42-0.18c0.18,0.21,0.34,0.42,0.54,0.62
	c1.82,1.82,3.65,3.55,6.39,3.99c2.26,0.37,3.29-2.11,2.38-3.56c-1.23-1.97-3.25-2.77-5.39-3.33c0.28,0.51,0.7,0.82,1.05,1.19
	c0.6,0.63,1.58,1.32,0.94,2.22c-0.24,0.34-1.5,0.05-2.25-0.11c-0.66-0.14-1.41-0.4-1.49-1.36c1.07,0.41,1.95,0.74,2.82,1.07
	c0.08-0.14,0.16-0.28,0.24-0.41c-0.48-0.5-0.9-1.08-1.46-1.47c-0.65-0.45-0.99-1.02-0.48-1.6c0.27-0.31,1.11-0.42,1.53-0.24
	c1.52,0.67,2.97,1.5,4.47,2.28c0.1-0.15,0.27-0.4,0.42-0.63c0.43,0.49,0.72,0.97,1.14,1.26c0.8,0.56,2.06,0.28,2.55-0.51
	c0.62-1.01-0.03-1.63-0.79-2.02c-0.59-0.31-1.32-0.44-2-0.47c-1.13-0.05-2.28,0.12-3.41,0.02c-0.57-0.05-1.1-0.49-1.98-0.92
	c0.63-0.21,0.76-0.31,0.84-0.27c2.77,1.12,6.52,0.25,8.38-1.92c0.73-0.85,0.94-1.69-0.06-2.46c-0.99-0.77-1.99-1.53-3.03-2.23
	c-1.42-0.95-2.97-1.12-4.65-0.8c-1.46,0.28-2.63,0.88-3.22,2.76c-0.23-0.68-0.46-1.01-0.38-1.19c0.45-1.03,0.95-2.08,2.26-2.21
	c1.42-0.13,2.39-0.88,2.79-2.19c0.49-1.58,0.8-3.22,1.19-4.83c-2.18-0.97-4.05-2.02-6.18-0.65c-1.84,1.18-2.97,2.86-3.57,5
	c-0.38-0.18-0.74-0.35-1.09-0.51c-0.34,0.41-0.63,0.77-0.9,1.09C76.35,31.47,75.85,31.31,75.34,31.15z M93.49,15.21
	c2.85-0.3,3-0.44,3.38-3.38c0.05-0.42,0.08-0.84,0.1-1.26c0.04-1.55-0.24-1.88-1.81-2.01c-0.53-0.04-1.08,0.01-1.6,0.12
	c-1.18,0.25-2.35,0.55-3.69,0.88c1.83-1.78,1.89-2.83,0.45-5.23c-0.39,0.06-0.8,0.09-1.2,0.18c-2.17,0.46-2.57,1.13-2.42,3.36
	c0.08,1.17-0.12,2.38-0.3,3.55c-0.04,0.28-0.54,0.49-0.83,0.74c1.14-3.6,0.59-6.37-1.79-7.71c-1.19,1.51-2.4,3.04-3.66,4.63
	c0.46,0.68,0.85,1.28,1.26,1.86s0.84,1.14,1.23,1.67c3.74-0.86,5.52,0.71,6.67,5.81c0.88,0.26,1.81,0.5,2.71,0.81
	c1.59,0.55,1.96,1,1.68,2.67c-0.24,1.45-0.81,2.84-1.24,4.29c0.61,0,1.3,0.04,1.99-0.01c0.6-0.04,1.18-0.2,1.78-0.27
	c1.57-0.19,3.35,0.6,3.89,1.72c0.49,1-0.02,2.32-1.07,2.69c-0.94,0.32-1.2-0.27-1.34-0.68c0.69-0.31,1.32-0.45,1.69-0.83
	c0.18-0.18,0-0.93-0.24-1.25c-0.68-0.9-2.3-1.13-3.53-0.61c2.07,3.82-1.38,5.82-2.98,8.65c0.89,0.48,1.7,0.95,2.54,1.35
	c1.24,0.58,2.25,1.37,2.76,2.68c0.35,0.92-0.08,1.54-0.86,1.9c-0.72,0.34-1.51,0.59-2.05-0.13c0.86-0.51,1.56-0.93,2.27-1.34
	c-0.42-0.66-0.84-1.31-1.26-1.97c-0.93,1.3-1.68,2.35-2.39,3.34c0.79,0.62,1.53,1.32,2.38,1.83c0.51,0.31,1.31,0.61,1.79,0.42
	c1.09-0.41,2.19-0.98,3.02-1.77c0.31-0.29-0.17-1.38-0.25-2.11c-0.03-0.23,0.06-0.47,0.06-0.71c-0.07-2.02-1.4-3.6-3.45-4
	c-0.99-0.19-2-0.24-3-0.35c-0.01-0.14-0.01-0.27-0.02-0.41c0.54-0.1,1.11-0.37,1.61-0.28c2.81,0.51,4.64-1.37,6.67-2.7
	c0.74-0.48,1.37-1.18,1.9-1.9c0.29-0.39,0.51-1.2,0.3-1.52c-0.91-1.38-1.88-2.77-3.05-3.94c-1.18-1.18-2.02-1.08-3.35-0.08
	c-0.53,0.4-1.04,0.81-1.56,1.22c0.36-3.19,2.63-5.7,1.98-9.06c-2.31-0.1-4.57-0.61-6.63,1.15c-0.4-1.3,0.68-2.53-0.42-3.75
	c-1.31-1.45-1.64-1.73-3.13-0.85c0.33-1.54,0.99-1.95,2.06-1C91.58,12.58,92.39,13.87,93.49,15.21z M77.25,35.17
	c1.04,1.36,1.97,1.62,2.8,0.93c0.78-0.64,1.13-2.25,0.58-2.89c-0.3-0.35-0.88-0.9-1.1-0.8c-0.96,0.42-1.84,1.03-2.75,1.58
	c-1.31-2.05-2.24-2.64-3.66-1.98c-0.55,0.25-1.09,0.93-1.24,1.52c-0.17,0.65,0.11,1.42,0.2,2.16c-1.88-0.74-2.67-0.43-3.57,1.37
	c-0.72,1.42-0.57,1.76,0.86,2.6c0.32,1.5,0.36,2.85,0.9,3.96c0.59,1.2,1.57,1.05,2.24-0.16c1.07,0.88,2.14,1.93,3.63,0.89
	c1.8-1.25,1.38-2.79,0.35-4.45c0.93,0.54,1.64,1.14,2.29,1.8c0.74,0.75,1.51,0.77,2.18,0.04c0.51-0.56,0.99-1.22,1.25-1.92
	c0.4-1.05-0.13-1.89-1.21-2.18c-1.47-0.39-2.95-0.76-4.61-1.2C76.73,35.94,76.94,35.62,77.25,35.17z M107.32,37.86
	c1.14-0.83,2.31-1.63,3.4-2.52c0.29-0.24,0.56-0.84,0.47-1.17c-0.53-1.91-2.37-2.76-4.31-2.09c-0.11,0.04-0.28-0.11-0.5-0.2
	c1.33-1.07,2.59-2.08,3.83-3.08c-1.9-2.6-2.88-2.87-4.67-1.73c-0.09,1.01,0.07,1.95-0.3,2.58c-0.45,0.77-1.34,1.27-2.25,2.07
	c1.07,0.42,1.77,0.6,2.38,0.94c1.02,0.56,2.11,1.3,1.79,2.61c-0.57,2.32-1.69,4.41-4.02,5.39c-1,0.42-1.47,0.88-1.28,1.99
	c0.4,0.22,0.83,0.43,1.21,0.7c0.39,0.27,0.75,0.6,1.1,0.92c1.27,1.16,2.37,1.29,3.89,0.58c0.95-0.45,1.3-1.05,0.75-1.98
	c-0.77-1.3-1.6-2.55-2.41-3.83c0.02-0.05,0.04-0.1,0.07-0.16c0.76,0.59,1.52,1.18,2.32,1.79c0.81-0.19,1.65-0.39,2.49-0.58
	C110.67,37.77,109.31,37.2,107.32,37.86z M110.21,23.04c-0.65-0.51-0.88-0.7-1.12-0.87c-1.79-1.19-2.58-1.08-4.16,0.4
	c-0.49,0.46-1.16,0.73-1.75,1.08c-0.06-0.11-0.12-0.23-0.18-0.34c2.44-1.97,2.91-3.16,3.63-5.39c-2.08-1.42-4.35-0.81-6.78-0.39
	c2.11-1.87,2.62-3.76,1.79-6.02c-3.17-0.37-4.22,0.39-4.41,3.21c2.43,0.76,2.64,1.15,2.03,3.72c-0.32,1.36-0.64,2.71-0.89,3.77
	c1,0.21,2.03,0.24,2.86,0.66s1.49,1.19,2.16,1.86c0.51,0.5,0.85,1.42,1.4,1.54c0.54,0.11,1.23-0.57,1.86-0.89
	c0.05-0.03,0.13,0.01,0.18-0.02C107.88,24.64,108.93,23.92,110.21,23.04z M85.03,21.21c0.03-1.38,0.91-1.79,1.74-2.2
	c1.64-0.81,1.77-1.08,1.31-2.86c-0.56-2.18-2.9-3.58-4.65-2.71c-1.58,0.78-2.3,2.25-3.04,3.9c3.33-0.53,4.51,0.11,4.11,1.91
	c-0.55-0.55-1.15-1.17-1.75-1.78c-0.16,0.1-0.32,0.21-0.48,0.31c2.39,1.81,2.23,4.18,1.51,6.6c2.29,0.66,4.67,0.71,6.05,3
	c1.67-1.11,2.54-2.73,2.94-4.57c0.17-0.78,0.13-2.05-0.34-2.42c-1.01-0.8-2.36-1.16-4.13-0.7c1.2,1.29,3.3,1.85,2.07,3.88
	c-0.56,0.92-1.29,1.52-2.28,1.52c0.67-1.08,1.89-2.16,1.72-2.93c-0.33-1.49-1.93-1.17-3.35-0.9c0.47-0.54,0.83-0.95,1.18-1.35
	c-0.08-0.1-0.16-0.2-0.24-0.29C86.69,20.07,85.98,20.55,85.03,21.21z M54.03,42.7c0.02,1.35-0.54,2.9-0.94,3.65
	c-0.62,1.15-1.09,2.38-1.61,3.58c-0.44,1.01,0.05,1.72,0.79,2.34c1.78,1.49,4.89,0.69,6.29-1.64c0.21-0.34,0.3-0.92,0.58-1.02
	c1.11-0.41,1.01-1.26,1.07-1.82c-1.66-0.7-3.58-0.94-4.46-2.03c-0.84-1.04-0.61-2.96-0.87-4.55c-0.95-0.54-2.1-1.25-3.31-1.87
	c-0.36-0.19-0.97-0.31-1.26-0.13c-1.02,0.65-1.95,1.44-2.93,2.18C49.33,43.69,52.47,44.29,54.03,42.7z M57.7,55.67
	c0.1,0.07,0.2,0.13,0.3,0.2c-0.34,1.56-0.67,3.12-1.03,4.79c1.97-0.03,3.7-0.32,4.99-2.06c-1.84-0.2-2.47-0.71-2.82-2.75
	c-0.23-1.33-0.04-2.73-0.04-4.28c-2.08,1.8-3.6,2.45-5.15,2.32c-1.99-0.18-3.18,0.66-3.89,3.06c1.76-0.33,3.34-0.63,5.1-0.97
	c-0.02-0.03,0.25,0.42,0.24,0.43c-0.77,0.48-1.56,0.92-2.42,1.4c0,1.14,0,2.35,0,3.83c1.58-0.6,2.68-1.13,3.13-2.69
	C56.44,57.8,57.16,56.76,57.7,55.67z M63.88,26.13c-0.99-0.68-1.8-1.28-2.64-1.81c-1.3-0.81-2.44-0.76-3.63,0.2
	c-0.6,0.48-1.11,1.08-1.64,1.64c-0.71,0.74-0.79,1.56-0.3,2.45c0.88,1.62,2.12,2.88,3.81,3.64c0.34,0.15,0.81,0.19,1.17,0.1
	c1.12-0.28,2.23-0.64,3.35-0.97C61.42,28.64,60.72,28.28,63.88,26.13z M56.51,9.05c-0.31,1-0.56,1.97-0.9,2.9
	c-0.35,0.95-0.82,1.86-1.19,2.8c-0.26,0.68-0.23,0.7,0.86,0.67c0.24-2.57,1.49-3.33,3.84-2.3c0.6,0.26,1.21,0.56,1.69,0.99
	c1.02,0.91,2.11,1.22,3.13,0.81c0.92-1.57,1.73-2.93,2.56-4.34c-1.35-2.19-2.29-2.84-4.08-2.65c-0.18,1.75-0.36,3.52-0.57,5.58
	C60.35,11.35,59,9.6,56.51,9.05z M97.31,64.67c-0.11-0.81-0.2-1.34-0.26-1.88c-0.04-0.31-0.15-0.65-0.05-0.92
	c0.64-1.82-0.51-4.5-2.51-5.5c-0.08,3.05-2.37,2-3.77,2.04c-0.1,1.38-0.18,2.57-0.27,3.91c1.49,0.58,2.98,1.19,4.49,1.74
	C95.59,64.3,96.29,64.42,97.31,64.67z M47.32,30.41c1.74,1.13,3.38,2.2,4.85,3.16c1.37-1.11,2.56-2.08,3.77-3.07
	c-0.54-1.11-1.12-2.32-1.72-3.57C51.14,26.51,49.14,28.11,47.32,30.41z M72.48,19.01c-0.11-0.19-0.22-0.39-0.33-0.58
	c0.68-0.29,1.46-0.96,2.03-0.81c1.65,0.43,1.06,2.03,1.11,3.33c3.04-2.44,3.12-3.83,0.65-6.09c-0.74-0.68-1.28-0.76-1.89,0.06
	c-0.04,0.06-0.2,0.03-0.38,0.05c0.05-0.41,0.1-0.8,0.2-1.54c-0.7,0.26-1.33,0.31-1.64,0.65c-2.17,2.44-1.83,5.59,0.75,7.63
	c1.24-0.36,1.61-1.34,1.62-2.46c0.01-0.8-0.38-1.28-1.27-0.79C73.03,18.61,72.76,18.82,72.48,19.01z M101.97,40.05
	c2.1-0.2,3-1.95,3.94-3.57c0.98-1.68,0.61-2.51-1.17-3.32c-2.37-1.08-3.94,0.27-5.38,1.47C100.26,36.48,101.09,38.22,101.97,40.05z
	 M80.89,53.78c0.09,0.04,0.17,0.08,0.26,0.12c0.15-0.34,0.29-0.69,0.44-1.04c0.37,0.48,0.63,1.12,1.09,1.34
	c0.5,0.23,1.19,0.07,1.8,0.08c-0.07-0.54-0.02-1.14-0.24-1.61c-0.21-0.45-0.7-0.78-1.26-1.36c1.86,0.52,2.88,2.02,2.42,3.17
	c-0.47,1.16-1.49,1.21-3.78,0.19c-0.49,1.27,0.33,2,1.21,2.44c1.03,0.51,2.21,0.71,3.33,1.04c0.03,0.01,0.09-0.07,0.14-0.1
	c1.52-1.17,1.14-5.65-0.61-6.55c-1.45-0.74-2.97-1.33-4.47-1.99C81.1,50.95,81,52.37,80.89,53.78z M75.33,13.01
	c1.27,1.71,2.35,3.16,3.57,4.79c0.25-0.19,0.71-0.38,0.9-0.72c0.52-0.91,0.77-2,1.4-2.81c0.74-0.95,0.66-1.68,0.01-2.54
	c-0.43-0.57-0.76-1.54-1.27-1.65c-0.82-0.17-1.04-0.62-1.18-1.34c-0.14-0.03-0.28-0.06-0.42-0.08
	C77.29,10.17,76.24,11.69,75.33,13.01z M52.16,38.78c2.58,1.83,3.36,1.77,5.53-0.4c-0.49-0.19-0.98-0.27-1.33-0.54
	c-0.48-0.37-1.09-0.82-1.2-1.34c-0.08-0.35,0.53-0.95,0.96-1.29c0.74-0.58,1.57-1.03,2.34-1.51c-0.94-2.1-2.38-2.58-3.77-1.14
	c-1.34,1.38-2.36,3.07-3.64,4.78c0.88,0.35,1.36,0.54,1.9,0.75C52.69,38.32,52.48,38.5,52.16,38.78z M67.02,18.22
	c-1.3-0.86-2.43-1.6-3.7-2.45c-1.91,0.45-2.9,2.02-3.21,3.91c-0.3,1.86,0.64,3.33,2.21,4.38c0.53,0.35,1.02,0.79,1.54,1.16
	c0.34,0.24,0.7,0.43,1.06,0.64c-0.02-0.48,0.09-1.02-0.09-1.42c-0.17-0.4-0.61-0.7-0.99-0.98c-1.15-0.84-1.22-1.99-0.95-3.22
	c0.16-0.71,0.69-1.28,1.44-0.93C65.52,19.88,66.08,19.13,67.02,18.22z M104.82,46.89c-0.55-1.53-1.5-2.64-2.92-3.28
	c-0.44-0.2-1.07-0.22-1.52-0.07c-1.16,0.41-2.28,0.97-3.47,1.49c0.12,1.04,0.25,2.1,0.37,3.12c0.5,0,1.05-0.17,1.28,0.03
	c1.48,1.27,2.89,0.65,4.3-0.06C103.48,47.79,104.05,47.37,104.82,46.89z M72.3,22.45c-1.78-2.57-3.5-3.44-5.32-2.77
	c-1.17,0.43-1.85,1.83-1.66,3.41c0.28,2.23,1.33,3.04,4.38,3.38c0.69-1.37,0.51-2.45-0.51-3.05c-1.17-0.69-1.84-0.04-2.32,1.17
	c-0.6-1.16-0.1-1.78,0.63-2.12c1.64-0.75,2.41,0.74,3.57,1.65C71.51,23.52,71.92,22.97,72.3,22.45z M88.17,54.41
	c-0.49,1.5,0.58,2.15,1.48,2.53c1.04,0.44,2.27,0.46,3.42,0.63c0.09,0.01,0.28-0.24,0.31-0.39c0.37-1.8,0.77-3.59,1.01-5.41
	c0.05-0.33-0.47-0.94-0.86-1.1c-1.22-0.52-2.5-0.9-4.03-1.42c0.39,0.51,0.62,0.82,0.86,1.12c0.79,0.98,1.77,2,1.06,3.35
	C90.76,55,89.43,54.4,88.17,54.41z M95.23,50.8c0,0.61,0.01,1.15,0,1.68c-0.05,3.38,0.02,3.45,3.46,3.14
	c0.12-0.01,0.24-0.01,0.36-0.03c1.45-0.19,1.63-0.42,1.31-1.86c-0.18-0.82-0.34-1.65-0.65-2.42c-0.46-1.14-1.18-2.07-2.54-2.29
	c-0.28,0.35-0.52,0.71-0.82,0.98C95.99,50.32,95.58,50.56,95.23,50.8z M60.83,57.81c1.32-0.5,2.56-0.91,3.74-1.47
	c0.48-0.23,0.98-0.74,1.16-1.24c0.43-1.18,0.69-2.43,1.07-3.85c-1.04,0.63-2.48,0.34-2.74,1.98c-0.04,0.23-0.71,0.57-0.98,0.5
	c-0.38-0.11-0.89-0.52-0.95-0.87c-0.19-1.16-0.8-1.49-2.03-1.24C59.75,53.64,59.29,55.66,60.83,57.81z M69.76,18.71
	c0.11-0.72,0.15-1.38,0.33-2c0.6-2.13,0.25-3.14-1.5-4.3c-0.74-0.49-1.44-0.85-2.22-0.04c-0.77,0.8-1.61,2.8-1.11,3.21
	C66.62,16.7,67.36,18.74,69.76,18.71z M72.35,6.66c-1.11,1.73-2.15,3.37-3.24,5.07c0.64,0.74,1.23,1.4,1.56,1.79
	c1.2-0.27,2.12-0.61,3.04-0.65c1.14-0.05,1.56-0.7,1.35-1.59C74.67,9.52,73.86,7.94,72.35,6.66z M59.74,22.86
	c0.04-0.15,0.09-0.31,0.13-0.46c-0.82-1.28-2.12-1.94-3.6-2.11s-3.07,0.18-3.77,1.53c-0.73,1.42,0.41,2.59,1.38,3.6
	c0.2,0.21,0.47,0.35,0.93,0.69c0.72-0.78,1.43-1.55,2.17-2.35c-0.51-0.38-0.88-0.65-1.48-1.09C57.14,22.74,58.44,22.8,59.74,22.86z
	 M84.67,65.1c0.25,2.19,1.77,3.54,4.92,4.31c0.82-1.75,1.65-3.54,2.62-5.61c-1.22-0.17-1.88-1.22-2.75-0.08
	c-0.53,0.7-0.96,1.82-1.63,1.99c-0.79,0.2-1.78-0.42-2.69-0.67C85.05,64.99,84.92,65.05,84.67,65.1z M99.94,50.12
	c0.19,0.46,0.44,0.94,0.59,1.44c0.26,0.83,0.29,1.74,1.47,1.93c0.85,0.14,1.66,0.73,2.5,0.74c1.82,0.02,2.19-0.81,1.28-2.52
	c-0.74,0.04-1.49,0.09-2.24,0.13c-0.02-0.14-0.04-0.29-0.06-0.43c0.67-0.32,1.33-0.63,2.1-1c-0.44-0.71-0.83-1.35-1.19-1.92
	C102.79,49.07,101.4,49.58,99.94,50.12z M68.13,51.86c-1.28,1.19-1.73,2.57-1.34,4.01c0.67,2.49,2.75,3.08,4.58,1.3
	c0.21-0.21,0.44-0.4,0.64-0.63c1.46-1.65,1.45-1.93,0.06-3.34c-0.77,0.66-1.59,1.9-2.24,1.82C68.26,54.82,68.33,53.16,68.13,51.86z
	 M50.04,20.57c2.22-0.53,4.23-1,6.45-1.53c-0.34-0.77-0.47-1.85-0.98-2.07c-1.58-0.68-3.13-1.7-5.04-1.47
	c-0.07,0.32-0.14,0.54-0.16,0.77C50.23,17.55,50.15,18.84,50.04,20.57z M51.11,21.07c-0.42,0.12-0.99,0.25-1.54,0.45
	c-3.18,1.14-3.43,2.45-0.92,4.82c0.09,0.08,0.16,0.21,0.26,0.24c0.27,0.07,0.57,0.19,0.82,0.13c1.12-0.25,2.24-0.55,3.2-0.79
	C52.37,24.41,51.79,22.89,51.11,21.07z M58.67,20.64c0.96-1.98,1.74-3.6,2.65-5.48c-1.05-0.47-2.08-1.07-3.19-1.39
	c-1.46-0.43-2.21,0.31-1.92,1.76c0.19,0.93,0.38,1.88,0.78,2.72C57.4,19.09,58.07,19.8,58.67,20.64z M89.66,46.88
	c0.11,1.09,0.42,2.01,1.48,1.73c1.24-0.33,2.1,0.09,2.95,0.8c0.8,0.67,1.76,0.44,1.92-0.32c0.28-1.3,0.33-2.76,0-4.03
	c-0.16-0.62-1.38-0.96-2.33-1.55C93.95,46.38,92.58,47.42,89.66,46.88z M68.13,50.76c1.15,0.32,0.56,1.33,0.79,2.04
	c0.16,0.5,0.6,0.9,0.91,1.35c0.37-0.41,0.79-0.79,1.08-1.25c0.12-0.19-0.17-0.63-0.06-0.84c0.1-0.18,0.51-0.2,0.54-0.21
	c0.08-1.75,0.13-3.4,0.24-5.05c0.05-0.73,0.19-1.43-0.78-1.52C69.94,47.13,69.07,48.88,68.13,50.76z M72.08,60.77
	c-0.42,0.49-0.76,0.88-1.1,1.28c-1.31,1.54-1.32,1.77-0.06,3.31c0.3,0.37,0.63,0.72,0.98,1.03c0.88,0.78,1.56,0.11,2.16-0.42
	c0.56-0.5,1.21-1.13,0.58-1.98C73.85,62.91,72.97,61.88,72.08,60.77z M49.93,38.28c0.66-1.29,1.27-2.5,1.87-3.68
	c-3.38-2.35-4-2.25-5.22,1.04C47.65,36.47,48.78,37.37,49.93,38.28z M106.49,50.31c1.2-0.54,2.51-1.13,3.95-1.78
	c-0.78-1.18-1.36-2.06-1.96-2.96c-1.01,0.3-1.91,0.56-2.67,0.78C105,47.82,105.09,49.06,106.49,50.31z M96.45,56.98
	c0.31,0.53,0.51,1.15,0.93,1.51c0.4,0.35,1.37,0.76,1.5,0.61c0.97-1.08,2.3-0.78,3.42-1.17c0.37-0.13,0.57-1.04,0.61-1.61
	c0.01-0.15-0.87-0.6-1.27-0.53C99.97,56.1,98.31,56.55,96.45,56.98z M98.05,60.41c0.03,0.51-0.11,1.19,0.15,1.64
	c0.27,0.48,0.89,0.88,1.43,1.04c0.41,0.12,1.32-0.11,1.37-0.32c0.26-1.13,0.77-2.29,0.39-3.43C100.22,59.71,99.18,60.04,98.05,60.41
	z M61.14,60.58c-1.05,0.58-2.46,0.38-2.41,1.92c0.02,0.78,0.3,1.55,0.46,2.33c0.89-0.18,1.77-0.37,2.67-0.56
	C61.6,62.92,61.39,61.89,61.14,60.58z M45.99,21.91c0.94-0.4,1.82-0.73,2.66-1.14c0.97-0.48,0.99-1.26,0.1-1.84
	c-0.94-0.61-2.44-0.46-3.63,0.41c0.09,0.31,0.18,0.64,0.3,0.97C45.58,20.81,45.77,21.3,45.99,21.91z M51.83,53.25
	c-0.94-1.49-2.05-2.03-3.52-1.58c-1.06,0.32-1.03,1.26-1.08,2.22C48.88,54.09,50.48,54.64,51.83,53.25z M89.75,50.15
	c-1.11,0.69-1.78,1.11-2.42,1.51c0.28,1.29,0.93,2.08,2.21,1.98c0.45-0.03,1.27-0.54,1.24-0.67C90.54,52.06,90.15,51.18,89.75,50.15
	z M59.51,7.31C58.92,6.5,58.5,5.9,58.07,5.3c-0.13,0.07-0.26,0.15-0.39,0.22c0,0.68,0,1.36,0,2.47c-0.34-0.66-0.6-0.94-0.62-1.24
	c-0.06-0.72,0-1.45,0.01-2.18c0.67,0.16,1.42,0.18,1.97,0.53C59.81,5.59,59.97,6.38,59.51,7.31z M76.87,47.12
	c2.4,1.31,3.09,4.47,1.58,6.2c-0.92,1.05-1.61,1.04-2.49-0.04c-1.48-1.8-1.61-4.21-0.13-6.11c-0.77,2.36-0.55,4.46,1.57,6.24
	C79.58,51.08,78.18,49.12,76.87,47.12z M85.59,40.56c0.91-0.16,1.93-0.13,2.7-0.55c0.63-0.34,1.37-1.26,1.31-1.86
	c-0.05-0.55-1.02-1.29-1.7-1.46c-1.05-0.25-2.19-0.06-3.6-0.06c0.57-0.32,1-0.74,1.45-0.77c0.88-0.06,1.81-0.03,2.65,0.21
	c1.04,0.29,2.1,0.81,2.13,2.12c0.03,1.28-0.71,2.23-1.87,2.58c-0.95,0.29-2.02,0.23-3.03,0.32C85.62,40.92,85.6,40.74,85.59,40.56z
	 M69.22,44.08c-0.07,1.65-2.7,4.78-4.24,5.06c-0.95,0.18-1.33-0.35-1.45-1.16c-0.22-1.48,1.94-4.35,3.4-4.72
	c-0.81,1.33-1.7,2.74-2.53,4.19c-0.11,0.19,0.08,0.54,0.18,1.13c1.75-1.08,3.33-1.97,3.9-3.97c0.06-0.22,0.51-0.34,0.78-0.5
	L69.22,44.08z M65.67,29.94c1.44-1.58,3.05-1.07,3.86,1.34C68.36,29.91,67.28,29.07,65.67,29.94z M55.17,49.16
	c0.78-0.43,1.56-0.86,2.35-1.3c-0.13,1.32-2,2.47-2.99,1.88c-0.9-0.53-0.55-1.56,1.05-2.49c-0.3,0.65-0.51,1.11-0.72,1.56
	C54.96,48.93,55.07,49.05,55.17,49.16z M61.31,27.39c-0.94,0.06-1.45,0.09-1.99,0.12c-0.34,1.31,0.61,1.75,1.34,2.28
	c0.62,0.45,1.09,0.87,0.75,1.44c-0.79-0.61-1.59-1.17-2.31-1.82c-0.75-0.68-0.94-1.62-0.32-2.41C59.47,26.1,60.23,26.74,61.31,27.39
	z M59.17,40.51c-0.12,0.27-0.23,0.54-0.37,0.8c-0.39,0.71-0.54,1.39,0.39,1.77c0.82,0.34,1.53,0.29,1.77-0.78
	c0.03-0.14,0.15-0.26,0.31-0.52c0.86,1,0.3,1.59-0.4,2.07c-0.85,0.59-2.25,0.21-2.84-0.7c-0.61-0.94-0.22-1.88,1.11-2.68
	L59.17,40.51z M182.6,174.51c-3.29,1.24-6.56,1.51-9.9,1.44c-1.07-0.02-1.66-0.35-1.82-1.39c-0.27-1.78-0.54-3.56-0.79-5.17
	c-2.37,0.48-4.8,1.18-7.28,1.41c-3.49,0.32-6.99,0.13-10.34-1.1c-2.34-0.86-2.87-1.9-2.46-4.38c0.69-4.24,2.11-8.2,4.5-11.8
	c0.09-0.14,0.07-0.35,0.14-0.75c-3.01-1.06-6.04-2.13-9.03-3.19c0.89-4.42,10.57-13.78,13.96-13.23c-3.29,0.99-5.18,3.37-7.34,5.39
	c-2.24,2.08-4.28,4.33-5.65,7.38c5.97,2.06,11.68,4.75,18.24,3.88c0,0.19,0.01,0.37,0.01,0.56c-1.06,0.13-2.13,0.39-3.18,0.34
	c-1.49-0.06-2.97-0.42-4.46-0.5c-0.51-0.03-1.26,0.24-1.52,0.63c-2.58,3.77-4.13,7.96-4.7,12.5c-0.17,1.32,0.29,2.29,1.76,2.63
	c3.56,0.82,7.16,1.1,10.77,0.66c1.9-0.23,3.78-0.74,5.64-1.26c0.48-0.13,1.1-0.69,1.2-1.16c0.5-2.36,0.85-4.76,1.26-7.19
	c-0.9-0.6-1.51,0-2.16,0.65c-1.63,1.62-3.24,3.27-4.98,4.78c-1.17,1.02-1.61,0.97-2.97,0.34c3.16-1.17,5.36-3.32,7.27-5.87
	c-2.37-1.37-3.07-1.26-4.7,0.47c-0.94,1-1.94,1.95-2.96,2.87c-0.34,0.31-0.84,0.45-1.46,0.42c1.97-2.17,4.3-3.97,5.66-6.67
	c-1.23-0.8-1.93-0.09-2.5,0.47c-1.7,1.64-3.33,3.37-4.98,5.07c-0.33,0.34-0.64,0.7-0.95,1.06c-0.13-0.08-0.25-0.16-0.38-0.23
	c0.22-0.43,0.36-0.94,0.68-1.28c1.92-2.05,3.86-4.07,5.83-6.07c0.72-0.73,1.55-0.75,2.35,0.4c1.42-5.33,3.34-10.02,6.65-13.99
	c-1.87-0.4-3.53-0.9-5.23-1.07c-1.07-0.11-2.28,0.08-3.28,0.49c-3.44,1.38-6.81,2.91-10.51,4.51c0.41-0.55,0.64-1.22,1.09-1.43
	c3.6-1.67,7.25-3.25,10.93-4.89c-0.16-0.11-0.52-0.38-0.89-0.63c-2.1-1.4-3.35-3.5-4.59-5.6c-0.79-1.33-1.68-2.3-3.21-3.08
	c-1.78-0.91-3.17-2.75-4.49-4.37c-1.71-2.09-3.93-2.48-5.96-0.59c-2.55,2.37-4.99,4.85-7.57,7.38c2.47,4.47,6.76,6.14,10.99,7.92
	c-5.03-1.01-9.11-3.56-12.35-7.94c4.03-3.26,6.61-8.45,12.42-9.96c-3.23-5.61-4.55-11.37-3.56-17.77c5.39-0.8,10.65-2.6,16.48-1.97
	c-0.03-0.67,0.02-1.27-0.1-1.84c-0.75-3.39,0.15-6.71,0.4-10.06c0.07-1,0.6-1.29,1.48-1.19c1.3,0.16,2.6,0.34,3.9,0.5
	c0.79,0.1,1.57,0.16,2.51,0.25c-0.28-4.18,0.44-7.99,2.19-11.59c0.35-0.73,0.79-1.42,1.19-2.12c1.26-2.18,1.46-2.29,3.6-1.08
	c3.53,1.99,7.07,3.99,10.01,7.15c0.38-0.45,0.73-0.85,1.06-1.25c1.84-2.2,3.58-4.48,5.55-6.55c1-1.06,2.39-1.76,3.64-2.57
	c0.87-0.57,1.72-0.45,2.61,0.15c3.1,2.09,5.48,4.89,7.73,7.82c0.45,0.58,0.88,1.17,1.22,1.62c2.26-1.2,4.33-2.31,6.41-3.41
	c0.11-0.06,0.22-0.11,0.34-0.16c4.93-2.1,7.41-0.9,8.71,4.33c0.75,3.01,1.34,6.06,2.07,9.42c1.49,0,3.27-0.05,5.05,0.01
	c2.09,0.07,2.2,0.09,2.42,2.21c0.38,3.66,0.62,7.33,0.93,11.27c1.79,0.05,3.76,0.17,5.73,0.15c3.1-0.03,5.8,1.34,8.6,2.35
	c1.19,0.43,1.18,1.33,0.98,2.29c-1,4.83-1.99,9.67-4.58,13.98c-0.15,0.26-0.27,0.54-0.39,0.78c0.97,0.92,1.85,1.8,2.79,2.62
	c0.77,0.67,1.1,1.33,0.32,2.21c-0.87,0.99-0.45,1.6,0.44,2.44c2.97,2.81,5.26,6.15,7.14,9.78c0.46,0.88,0.49,1.55-0.53,2.18
	c-3.33,2.05-6.61,4.2-9.91,6.3c0.14,2.32,0.29,4.85,0.45,7.38c0.07,1.1-0.36,1.65-1.49,1.96c-2.75,0.76-5.45,1.7-8.35,2.62
	c0.08,0.74,0.2,1.46,0.22,2.19c0.07,3.37,0.26,6.74,0.12,10.1c-0.11,2.73-0.75,3.07-3.48,2.57c-3.68-0.67-7.33-1.44-10.73-3.61
	c-0.33,0.78-0.58,1.4-0.84,2.01c-0.78,1.83-1.54,2.3-3.5,1.9c-2.99-0.61-5.95-1.34-8.92-2.01c-0.35-0.08-0.71-0.15-1-0.21
	c-1.17,2.17-2.05,4.43-3.47,6.28c-1.73,2.25-3.91,4.16-5.93,6.19c-0.64,0.65-1.36,0.58-2.22,0.22c-5.15-2.2-8.91-5.87-11.68-10.66
	C184.17,177.25,183.43,175.95,182.6,174.51z M224.09,121.62l-0.04-0.02c0.64,0.37,1.28,0.74,1.88,1.08
	c1.46-0.92,2.87-1.63,4.61-0.87c-1.08,0.4-2.16,0.8-2.85,1.06c-0.24,1.2-0.38,2.08-0.61,2.94c-0.12,0.48-0.34,0.94-0.59,1.37
	c-0.49,0.87,0.02,1.35,0.59,1.91c0.63,0.61,1.2,0.56,1.81,0.06c0.76-0.63,1.55-1.23,2.25-1.93c2.27-2.29,3.04-5.41,4.39-8.2
	c0.37-0.76,0.58-1.6,0.91-2.52c-1.25-0.56-2.36-1.05-3.44-1.54c-0.52,0.7-0.93,1.23-1.56,2.07c-0.13-0.69-0.28-0.96-0.2-1.13
	c0.7-1.45-0.09-1.91-1.34-2.07c-0.74-0.1-1.47-0.23-2.21-0.26c-2.32-0.08-3.53,0.93-3.2,4.09c1.15,0.3,2.34-1.04,3.66-0.03
	c-1.65,1.61-4.96,0.2-5.42,3.53C223.19,121.31,223.64,121.46,224.09,121.62z M199.26,104.67c1.57-0.84,3.18-1.6,4.69-2.54
	c0.88-0.54,1.49-0.57,1.98,0.37c0.75,1.42,1.51,2.83,2.17,4.3c0.39,0.88,0.59,1.85,0.9,2.85c1.44-0.83,2.66-1.69,4.01-2.26
	c1.08-0.46,1.46-1.13,1.27-2.16c-0.53-2.86-1.13-5.71-1.7-8.57c-0.18-0.91-0.73-1.17-1.62-1.07c-4.35,0.47-8.22,1.79-10.92,5.55
	c-0.81,1.13-1.39,2.18-0.75,3.56c-0.63-0.63-1.3-1.23-1.88-1.9c-2.37-2.72-5.56-3.32-9.11-3.5c-0.24,0.55-0.6,1.14-0.76,1.78
	c-0.67,2.68-1.02,5.37-0.33,8.13c0.58,2.29,1.11,2.83,3.83,3.12c-1.5-3.95-0.38-7.88-0.42-11.82c0.18,0,0.36-0.01,0.54-0.01
	c0,1.76,0,3.53,0,5.29c0.13,0.01,0.27,0.01,0.4,0.02c0.63-1.21,1.27-2.43,1.9-3.64c0.15,0.07,0.3,0.15,0.45,0.22
	c-0.58,1.19-1.15,2.4-1.75,3.58c-1.17,2.3-1.24,2.69-0.55,3.9c1.12-1.87,2.21-3.69,3.29-5.5c0.14,0.09,0.29,0.17,0.43,0.26
	c-1.05,1.94-2.04,3.91-3.17,5.8c-0.72,1.21-0.35,2.24,0.5,2.99c1.19,1.06,2.58,1.9,3.77,2.75c-0.19-1.09-0.61-2.21-0.54-3.31
	c0.17-2.75,0.57-5.48,2.96-7.39C199.06,105.3,199.12,104.94,199.26,104.67z M230.8,129.43c-0.61,0.27-1.21,0.55-1.77,0.8
	c1.15,2.55,3.08,3.02,5.47,2.56c0.98-0.19,1.98-0.24,2.98-0.28c0.36-0.02,0.73,0.16,1.09,0.25c-0.01,0.11-0.02,0.21-0.03,0.32
	c-2.12,0.23-4.25,0.46-6.36,0.69c0.54,3.01,3.08,1.93,4.87,2.42c-1.12,0.47-2.07,0.72-2.85,1.22c-0.7,0.45-1.17,1.22-1.83,1.76
	c-0.99,0.82-2.06,1.57-3.13,2.38c0.7,1.32,1.33,2.51,2.05,3.88c1.38-0.66,2.72-1.09,3.8-1.88c1.9-1.39,3.58-3.06,5.44-4.51
	c2.91-2.27,4.95-5.23,6.88-8.3c0.59-0.95,0.48-1.61-0.38-2.22c-1.06-0.75-2.08-1.56-3.2-2.21c-2.68-1.55-5.47-2.89-8.33-3.5
	c-1.64,2.32-3.18,4.49-4.72,6.67L230.8,129.43z M209.01,156.07c0.09,0.42,0.3,0.86,0.25,1.26c-0.21,1.69,0.86,2.33,2.19,2.75
	c0.83,0.26,1.69,0.46,2.54,0.61c2.63,0.47,5.29,1.34,7.9,1.23c3.26-0.14,6.49-1.07,9.72-1.71c1.36-0.27,1.9-1.06,1.79-2.54
	c-0.33-4.35-1.99-8.35-3.25-12.45c-0.27-0.88-0.8-1.69-1.33-2.46c-0.23-0.33-0.8-0.68-1.16-0.63c-1.89,0.27-3.75,0.67-5.86,1.07
	c0.29,0.52,0.45,0.99,0.75,1.33c2.02,2.28,4.08,4.53,6.09,6.82c0.41,0.47,0.64,1.1,0.96,1.66c-0.12,0.06-0.24,0.13-0.36,0.19
	c-2.16-2.42-3.69-5.46-6.7-7.27c-0.12,1.02-0.02,1.83-0.32,2.45c-0.73,1.46-0.51,3.97,0.69,5.12c1.44,1.37,2.93,2.68,4.6,4.2
	c-2.5-0.35-3.38-2.67-5.27-3.62c-0.29,1.54-0.51,2.95-0.83,4.34c-0.36,1.58-0.86,1.83-2.36,1.43c-3.25-0.86-6.58-1.51-9.36-3.6
	c-0.18-0.13-0.48-0.1-0.72-0.14c-0.4-0.43-0.8-0.85-1.2-1.27c-1.68,1.24-2.99,2.77-5.32,2.16c0.33,3.58-1.11,6.58-2.51,9.57
	c-0.25,0.53-0.44,1.36-1.41,0.8c1.82-3.5,3.65-6.9,3.13-10.97c-0.03-0.22,0.14-0.47,0.22-0.71c1.04,0.49,2.04,0.39,2.99-0.24
	c2.36-1.58,3.92-3.82,4.79-6.45c0.4-1.21,0.19-2.65-0.99-3.93c-1.28,3.52-2.41,6.89-5.04,9.57c-0.87-1.24-1.57-2.42-1.96-3.69
	c-0.41-1.34-0.52-2.76-0.76-4.14c-1.52,0.23-1.58,0.23-1.59,1.29c-0.01,0.8-0.04,1.67,0.24,2.39c0.69,1.78,1.56,3.49,2.36,5.24
	c-0.94-0.93-1.89-1.86-2.84-2.8c-1.14,0.92-2.39,1.86-3.53,2.9c-0.34,0.31-0.57,0.93-0.56,1.4c0.03,2.12,0.14,4.24,0.26,6.35
	c0.05,0.92,0.19,1.83,0.29,2.74c-0.16,0.01-0.33,0.03-0.49,0.04c-1.26-3.05-0.01-6.49-1.03-9.59c-2.37,0.55-2.55,0.69-2.46,2.86
	c0.1,2.53-0.2,5.12,0.85,7.57c-1.64-1-1.31-2.7-1.44-4.21c-0.14-1.64-0.2-3.29-0.3-5.03c-1.49,0.16-2.7,0.3-4.34,0.48
	c1.1,3.58,2.12,6.89,3.15,10.19c0.09,0.29,0.28,0.57,0.5,0.78c1.93,1.85,3.89,3.66,5.8,5.52c0.65,0.63,1.19,0.6,1.99,0.24
	c5.21-2.34,8.42-6.29,9.54-11.87c0.41-2.06,0.6-4.17,0.81-6.27C208.17,156.37,208.16,155.87,209.01,156.07z M213.15,94.82
	c-0.11-0.67-0.16-1.48-0.39-2.23c-1.92-6.41-5.35-11.87-10.23-16.45c-2.97-2.79-4.06-2.83-7.13-0.12c-0.19,0.16-0.37,0.34-0.53,0.53
	c-1.98,2.4-4.12,4.69-5.9,7.23c-2.07,2.95-4.02,6.02-4.9,9.62c-0.74,3.05,0.1,5.27,2.74,6.65c0.3-0.66,0.61-1.32,0.93-2.02
	c1.21,0.17,2.34,0.34,3.53,0.51c0.97-4-0.15-8.05,1.22-11.79c-0.17,3.94-0.33,7.88-0.5,11.75c1.07,0.38,1.82,0.65,2.86,1.02
	c0-4.07,0-7.9,0-11.72c0.12,0,0.25,0,0.37,0.01c0,3.3,0.05,6.6-0.02,9.89c-0.05,2.14,0.93,3.5,3.01,4.45
	c0.84-1.32,2.24-2.59,2.44-4.02c0.48-3.5,0.4-7.08,0.53-10.63c0.02-0.43,0-0.87,0-1.3c0.13,0.01,0.26,0.01,0.39,0.02
	c0,3.81,0,7.62,0,11.85c0.86-0.88,1.96-1.47,2.08-2.22c0.33-2.01,0.25-4.09,0.3-6.14c0.01-0.5-0.09-1-0.14-1.5
	c0.2-0.01,0.4-0.02,0.6-0.04c0,2.6,0,5.2,0,8.11C207.47,94.92,210.16,94.17,213.15,94.82z M163.6,91.46
	c-0.25,2.57-0.7,4.8-0.62,7.01c0.1,2.52,0.66,5.03,1.05,7.53c0.55,3.48,1.62,6.8,3.24,9.92c0.26,0.5,0.79,1.13,1.26,1.19
	c1.94,0.25,3.91,0.3,5.88,0.43c0-1.13,0.07-2.18-0.03-3.23c-0.04-0.42-0.34-0.94-0.68-1.2c-2.29-1.77-3.63-4.24-4.99-6.7
	c-0.18-0.32-0.16-0.75-0.24-1.12c1.81,2.48,2.9,5.43,5.74,7.21c0.51-1.71,0.36-2.99-0.57-4.28c-1.05-1.46-1.88-3.09-2.8-4.64
	c0.15-0.08,0.29-0.16,0.44-0.24c0.62,1.05,1.28,2.09,1.86,3.16c0.77,1.43,1.75,2.31,3.68,1.62c-1.34-2.34-2.66-4.65-3.98-6.96
	c0.12-0.08,0.24-0.16,0.36-0.25c0.37,0.52,0.77,1.01,1.09,1.55c0.95,1.61,1.98,3.19,2.77,4.88c0.6,1.28,1.48,1.56,2.71,1.36
	c0.71-0.12,1.41-0.26,2.6-0.47c-2.61-2.93-4.95-5.56-7.28-8.18c0.68,0.18,1.26,0.52,1.69,0.99c1.75,1.94,3.63,3.81,5.13,5.94
	c1.13,1.6,2.45,1.82,4.02,1.71c0.13-2.04,0.16-3.97,0.41-5.86c0.15-1.1,0.02-1.93-0.83-2.67c-4.13-3.54-8.22-7.11-14.02-7.6
	C168.96,92.33,166.46,91.86,163.6,91.46z M196.46,134.06c-0.54-0.3-1.19-0.44-1.45-0.85c-0.32-0.49-0.36-1.19-0.4-1.81
	c-0.01-0.11,0.58-0.26,0.89-0.39c-0.02,0.33-0.03,0.65-0.08,0.97c-0.02,0.16-0.11,0.31-0.16,0.44c1.31,1.32,2.06,0.17,2.8-0.68
	c0.85,0.74,0.51,1.31,0.18,2.05c-0.19,0.43,0.01,1.27,0.35,1.64c0.25,0.27,1.03,0.17,1.53,0.06c0.33-0.07,0.6-0.45,0.99-0.77
	c-0.41,2.34-1.61,2.48-4.1,0.6c-0.38,0.7-0.8,1.39-1.13,2.1c-1.23,2.64-1.57,5.33-0.43,8.1c0.32,0.78,0.8,1.36,1.68,1.12
	c1.26-0.34,2.58-0.65,3.72-1.26c2.33-1.25,3.25-3.32,2.98-5.95c-0.09-0.87-0.13-1.74-0.19-2.61c0.18,0,0.36,0,0.54,0.01
	c0.9,2.54,1.53,5.21-0.62,7.41c-2.05,2.1-1.72,4.32-1.09,6.69c0.24,0.89,0.71,1.71,1.07,2.57c1.48-2.32,2.58-4.49,3.51-6.73
	c0.66-1.6,0.74-3.25-0.31-4.82c-0.34-0.51-0.35-1.23-0.51-1.85c0.18-0.07,0.35-0.14,0.53-0.21c0.84,3.14,2.53,5.6,5.57,6.77
	c2.86,1.1,5.83,1.67,9.01,0.93c0.09-2.38-0.45-4.53-1.12-6.67c-0.96-3.07-3.46-4.89-5.52-7.11c-1.19,2.27-1.19,2.46,0.39,4.03
	c1.75,1.73,2.96,3.73,2.92,6.25c-0.01,0.47-0.51,1.31-0.84,1.34c-1.93,0.16-3.92,0.19-5.47-1.27c-1.92-1.82-3.78-3.71-5.63-5.6
	c-0.47-0.48-0.78-1.12-1.22-1.64c-0.57-0.69-1.14-1.4-1.81-1.99c-1.07-0.95-1.34-2.27-0.56-3.19c0.24,0.79,0.48,1.6,0.73,2.42
	c0.81-1.1,0.44-2.67,2.44-2.93c-0.09,0.68-0.08,1.33-0.26,1.91c-0.77,2.43,0.15,4.64,2.82,6.12c0.15-1.19,0.29-2.26,0.46-3.65
	c-0.79,0.57-1.21,0.88-1.63,1.18c-0.1-0.1-0.19-0.21-0.29-0.31c0.37-0.63,0.83-1.22,1.09-1.89c0.26-0.66,0.33-1.41,0.49-2.11
	c-0.14-0.04-0.29-0.07-0.43-0.11c-0.6,0.85-1.2,1.71-1.8,2.56c-0.19-0.12-0.38-0.23-0.57-0.35c0.61-1.03,1.24-2.05,1.84-3.08
	c0.72-1.24,0.4-2.01-1.01-2.5c-0.22-0.07-0.41-0.21-0.71-0.36c1.7-2.23,4.47-3.68,4.48-7.25c-0.91,1.31-1.61,2.31-2.31,3.32
	c-0.68,0.98-1.41,1.9-2.32,2.18c-0.16-1.09-0.19-2.08-0.48-2.98c-0.49-1.52-0.01-3.1,1.43-3.78c0.72-0.34,1.53-0.55,2.32-0.72
	c1.17-0.25,1.93,0.23,2.21,1.42c0.44,1.83-0.35,3.29-1.41,4.66c-0.62,0.8-1.3,1.54-1.95,2.31c0.12,0.15,0.25,0.29,0.37,0.44
	c1.05-0.69,2.26-1.23,3.1-2.12c1.82-1.9,1.95-7.24,0.3-9.31c-0.35-0.43-1.25-0.86-1.68-0.7c-1.01,0.38-2.04,0.98-2.79,1.74
	c-1.84,1.87-2.95,4.15-3.24,6.8c-0.08,0.75-0.23,1.49-0.34,2.23c-0.17,0.03-0.35,0.06-0.52,0.09c-0.26-2.59-0.03-5.46-3.32-6.53
	c-0.5,2.42,0.22,4.29,1.68,6.07c-1.72-0.49-3.2-1.19-4.72-1.81c-0.57-0.23-1.28-0.52-1.8-0.36c-0.63,0.19-1.39,0.73-1.59,1.3
	c-0.21,0.57-0.03,1.67,0.4,1.99c0.51,0.38,1.74,0.53,2.15,0.18c1.26-1.07,2.67-1,4.08-0.89c1.06,0.08,2.14,0.43,2.7,2.06
	c-2.09-1.29-3.92-1.38-5.77-0.66c-0.06,0.2-0.13,0.4-0.19,0.6c1,0.55,2.01,1.09,3.24,1.76c-1.49,0.35-2.6,0.02-3.37-0.92
	c-0.61-0.74-1.42-0.9-1.94-0.45c-1.4,1.19-2.7,2.51-3.88,3.92c-0.59,0.71-0.08,1.55,0.74,1.75
	C193,135.4,194.87,135.83,196.46,134.06z M176.56,122.81c-0.56-1.18-1.08-2.34-1.66-3.47c-0.13-0.25-0.44-0.53-0.69-0.56
	c-1.66-0.2-3.35-0.59-4.98-0.43c-2.09,0.21-4.18,0.72-6.17,1.41c-2.51,0.87-4.9,2.05-7.37,3.1c0.12,0.64,0.17,1.07,0.28,1.48
	c1.04,3.75,2.7,7.18,4.75,10.51c1.88,3.06,4.58,4.87,7.73,6.17c0.9,0.37,1.95,0.34,2.94,0.5c-1.47-1.84-1.47-1.84-0.48-3.94
	c0.34-0.72,0.71-1.42,1.1-2.2c-2.81-1.17-5.46-2.28-7.43-4.47c0.45,0.02,0.78,0.23,1.12,0.41c1.8,0.98,3.59,1.98,5.42,2.9
	c0.76,0.38,1.49,0.34,2.21-0.36c1.6-1.55,3.3-3,5.06-4.58c-0.47-0.81-1.01-1.76-1.53-2.67c0.85-0.52,1.61-0.98,2.6-1.59
	c-3.1-1.73-6.07-2.05-9.03-2.48c-2.22-0.32-4.28-0.27-5.88,1.72c-0.01-0.92,0.34-1.64,1.16-1.86c1.18-0.32,2.44-0.68,3.63-0.59
	C171.73,121.99,174.11,122.46,176.56,122.81z M166.95,117.42c-0.2-0.44-0.44-0.87-0.6-1.32c-1.04-2.93-2.21-5.83-3.05-8.81
	c-0.76-2.7-0.67-2.81-3.54-2.96c-0.5-0.03-1.01-0.07-1.5,0.01c-3.5,0.59-7.01,1.17-10.49,1.86c-0.42,0.08-1,0.79-1.02,1.23
	c-0.09,2.17-0.21,4.36,0.04,6.5c0.67,5.77,3.96,10.28,7.49,14.61c0.77,0.95,1.86,1.64,2.8,2.45c0.09-0.1,0.18-0.2,0.27-0.29
	c-0.95-2.8-1.9-5.6-2.88-8.49c2.14-0.98,4.09-1.88,6.4-2.94c-3.57-1.34-6.22-3.36-8.76-5.59c0.46-0.05,0.84,0.06,1.15,0.28
	c1.22,0.86,2.45,1.71,3.63,2.63C160.01,119.04,163.34,119.15,166.95,117.42z M215.2,106.63c2.23,0.35,2.64,0.16,3.58-1.55
	c1.08-1.97,2.16-3.93,3.26-5.89c0.14-0.26,0.37-0.46,0.56-0.7c0.12,0.07,0.23,0.15,0.35,0.22c-1.27,2.37-2.54,4.73-3.94,7.35
	c0.68-0.07,1.08-0.22,1.38-0.11c1.52,0.55,2.1-0.39,2.71-1.51c0.72-1.31,1.57-2.55,2.4-3.79c0.14-0.21,0.5-0.28,1.12-0.61
	c-1.42,2.28-2.59,4.16-3.83,6.14c0.71,0.38,1.23,0.65,1.76,0.93c1.32-1.58,2.54-3.06,3.77-4.53c0.15,0.12,0.3,0.24,0.45,0.36
	c-1.11,1.46-2.22,2.9-3.31,4.37c-0.33,0.44-0.82,0.93-0.83,1.4c-0.02,1.35,0.18,2.71,0.28,3.96c2.73,0.87,3.45-1.98,5.18-2.93
	c0.07,0.11,0.15,0.21,0.22,0.32c-0.57,0.75-1.14,1.51-1.8,2.37c1.33,0.4,2.39,0.72,3.77,1.14c0.77-2.62,1.76-5.19,1.75-7.92
	c-0.01-3.3-0.41-6.59-0.54-9.89c-0.06-1.43-0.63-1.9-2.04-1.98c-6.43-0.38-11.58,2.37-16.21,6.43c-0.31,0.28-0.52,0.87-0.49,1.3
	C214.81,103.18,215.02,104.85,215.2,106.63z M213.01,174.05c-2.89-0.65-4.41-3.13-6.28-5.31c-1.09,1.39-2.03,2.6-3.08,3.95
	c2.02,1.55,4.02,2.92,6.37,3.57c2.57,0.71,5.24,1.09,7.82,1.76c1.49,0.39,2.26-0.23,2.77-1.47c0.48-1.14,0.94-2.29,1.34-3.46
	c0.89-2.57,1.35-5.26,0.83-7.91c-0.48-2.45-0.11-2.28-2.5-2.32c-0.92-0.02-1.83-0.37-2.75-0.54c-0.58-0.11-1.17-0.17-1.94-0.27
	c0.88,2.75,1.57,5.27,1.38,7.93c-0.58-1.55-0.89-3.15-1.17-4.76c-0.55-3.11-1.88-4.16-5.04-4.01c1.17,3.61,2.35,7.24,3.52,10.87
	c-0.18,0.07-0.36,0.14-0.54,0.21c-0.27-0.7-0.57-1.4-0.81-2.12c-0.67-2.07-1.27-4.17-2-6.23c-0.36-1.01-0.95-1.93-1.44-2.89
	c-0.98,2.28-1.61,4.4-2.19,6.54c-0.07,0.25,0.08,0.62,0.24,0.85C209.05,170.63,210.64,172.69,213.01,174.05z M196.01,176.61
	c0.19,2.12,0.37,4.14,0.54,6.17c-0.13,0.04-0.27,0.09-0.4,0.13c-0.2-0.56-0.51-1.11-0.59-1.69c-0.21-1.48-0.27-2.98-0.48-4.47
	c-0.08-0.6-0.2-1.34-0.59-1.73c-1.68-1.72-3.47-3.34-5.07-4.85c-1.98,1.36-3.89,2.68-5.92,4.08c0.87,1.62,1.66,3.18,2.54,4.68
	c2.29,3.91,5.36,6.99,9.49,8.99c1.26,0.61,2.23,0.44,3.25-0.4c2.92-2.41,5.47-5.06,6.93-8.67c1.25-3.08,1.35-3.03-1.37-4.7
	c-1.95-1.19-2.36-0.86-2.78,1.48c-0.34,1.87-1.04,3.69-1.69,5.49c-0.2,0.55-0.8,0.94-1.22,1.41c-0.15-0.07-0.29-0.15-0.44-0.22
	c0.19-1.99,0.37-3.98,0.58-6.12C197.8,176.35,197.02,176.46,196.01,176.61z M186.23,161.85c-1.1,1.79-1.87,3.26-2.84,4.57
	c-2.38,3.19-2.42,3.16-3.12,3.19c1.62-2.52,3.4-5.2,5.08-7.95c0.65-1.06,0.63-2.25-0.05-3.31c-1.04-0.29-1.66,0.03-2.17,0.95
	c-1.53,2.71-3.15,5.38-4.75,8.05c-0.21,0.35-0.54,0.63-0.81,0.94c-0.15-0.11-0.3-0.22-0.45-0.33c1.67-3.03,3.34-6.06,5.16-9.37
	c-1.17,0.51-1.94,1.04-2.76,1.14c-1.17,0.15-1.84,0.76-2.21,1.74c-0.96,2.5-1.87,5.01-2.75,7.54c-0.1,0.3,0.18,0.72,0.18,1.09
	c0,0.34-0.13,0.69-0.21,1.03c-0.39-0.11-0.98-0.11-1.11-0.35c-0.2-0.39-0.24-0.99-0.09-1.41c0.86-2.53,1.79-5.04,2.71-7.55
	c0.17-0.48,0.36-0.95,0.62-1.66c-0.82,0-1.31,0-1.8,0c-2.05-0.01-2.21-0.04-2.57,2.02c-0.52,2.93-0.88,5.91-1.08,8.88
	c-0.09,1.31,0.4,2.66,0.61,3.9c5.96,0.97,10.83-1.04,15.32-4.22c0.65-0.46,1.52-1.49,1.39-2.04
	C187.99,166.52,187.11,164.4,186.23,161.85z M175.14,155.33c-0.08-0.21-0.17-0.43-0.25-0.64c1.57-0.63,3.13-1.29,4.71-1.87
	c1.15-0.42,1.95-0.93,1.72-2.39c-0.12-0.77,0.14-1.6,0.23-2.4c0.15-1.2,0.31-2.39,0.49-3.77c-1.62,0.41-3.14-0.62-4.31,0.81
	c-1.66,2.01-3.35,3.99-5.06,5.96c-0.34,0.39-0.77,0.71-1.17,1.06c-0.14-0.15-0.29-0.3-0.43-0.45c2.13-2.53,4.26-5.05,6.41-7.6
	c-3.41-1.62-4.16-1.46-6.22,1.31c-2.04,2.74-3.32,5.85-4.29,9.09c-0.37,1.23-0.62,2.49-0.94,3.8c3.45,1.17,6.84,1.05,10.16,1.04
	c1.76,0,3.54-0.9,5.27-1.5c0.35-0.12,0.81-0.76,0.76-1.08c-0.22-1.32-0.61-2.6-0.94-3.88C179.16,153.69,177.15,154.51,175.14,155.33
	z M232.69,149.53c0.18,0.9,0.29,1.43,0.4,1.96c0.43,2.07,0.98,4.12,1.27,6.21c0.35,2.46-0.15,3.04-2.58,3.64
	c-0.36,0.09-0.74,0.11-1.11,0.19c-1.43,0.31-2.86,0.62-4.35,0.94c0.12,0.2,0.15,0.27,0.18,0.28c6.28,0.62,12.27-0.58,18.04-3.01
	c0.37-0.15,0.68-0.87,0.7-1.34c0.31-6.32-2.07-11.49-6.83-15.67c-1.37,0.91-2.75,1.84-4.24,2.84c2.07,2.31,4.47,4.14,5.89,6.8
	c-2.06-1.74-3.85-3.72-5.79-5.55c-0.63-0.6-1.64-0.8-2.68-1.27c0.09,1.83,0.54,2.84,1.79,3.69c1.93,1.31,3.65,2.93,5.46,4.42
	c-0.08,0.12-0.17,0.23-0.25,0.35C236.72,152.59,234.85,151.17,232.69,149.53z M243.79,113.08c0.09,0.17,0.18,0.33,0.27,0.5
	c-2.15,1.67-4.23,3.44-6.46,4.98c-1.15,0.79-1.66,1.74-1.87,2.99c1.9,0.95,2.05,1.06,3.33-0.18c1.43-1.38,2.65-2.97,3.95-4.47
	c0.48-0.56,0.93-1.15,1.39-1.73c0.14,0.12,0.29,0.24,0.43,0.36c-1.44,2.79-3.57,5.07-5.84,7.37c1.88,0.98,3.63,1.88,5.49,2.85
	c0.5-0.81,1.05-1.44,1.31-2.18c1.13-3.17,2.19-6.35,3.22-9.55c0.3-0.94,0.41-1.95,0.55-2.93c0.11-0.76-0.19-1.24-0.97-1.57
	c-4.06-1.68-8.27-2.25-12.63-1.87c-0.78,0.07-1.29,0.24-1.46,1.1c-0.34,1.74-0.75,3.47-1.22,5.59c0.87-0.59,1.41-0.98,1.97-1.33
	c1.16-0.72,2.3-1.51,3.52-2.11c1.22-0.61,1.69-0.38,2.47,0.81c-2.02-0.26-4.59,0.96-6.39,3.06c1.04,0.75,2.72,0.83,2.66,2.64
	C240.02,116.35,241.19,113.59,243.79,113.08z M183.09,96.97c-0.86-3.64,0.66-6.34,1.95-9.09c0.34-0.73,0.75-1.45,1.23-2.09
	c0.79-1.06,0.7-2-0.37-2.71c-3.01-1.99-6.05-3.93-9.09-5.89c-0.73-0.47-1.24-0.21-1.71,0.48c-2.52,3.68-3.52,7.8-3.6,12.2
	c-0.02,1.18,0.5,1.86,1.7,2.04c2.4,0.36,4.5,1.42,6.44,2.84C180.6,95.44,181.63,96.03,183.09,96.97z M218.55,83.62
	c-4.69,4.33-5.55,9.5-3.66,15.3c3.28-2.22,6.3-5,10.48-5.59c0.02-0.51,0.1-0.83,0.04-1.12c-0.61-3.11-1.16-6.24-1.92-9.32
	c-0.28-1.11-0.96-2.18-1.69-3.1c-0.38-0.48-1.3-0.89-1.88-0.79c-3.55,0.63-6.8,1.97-9.52,4.63c0.94,2.22,1.87,4.41,2.95,6.97
	c0.85-1.64,1.42-2.95,2.19-4.13C216.29,85.33,216.76,83.8,218.55,83.62z M223.5,163c0.19,1.29,0.67,2.55,0.49,3.71
	c-0.43,2.83,1.25,4.41,3.11,5.9c0.68,0.54,1.61,0.77,2.43,1.14c-1.24,0.81-2.1-0.07-2.91-0.73c-0.94-0.75-1.76-1.66-2.72-2.6
	c-0.4,1.37-0.73,2.49-1.1,3.74c3.53,1.95,7.37,2.66,11.25,3.25c1.08,0.16,1.47-0.49,1.56-1.39c0.15-1.61,0.33-3.23,0.33-4.85
	c0.01-2.53-0.03-5.07-0.8-7.5c-1.96,0.12-3.7,0.23-5.64,0.35c0.69,1.08,1.27,1.89,1.74,2.75c0.47,0.87,0.83,1.8,1.24,2.71
	c-0.14,0.06-0.29,0.13-0.43,0.19c-0.87-1.56-1.71-3.13-2.64-4.66c-0.27-0.44-0.72-0.94-1.18-1.06
	C226.74,163.57,225.22,163.34,223.5,163z M245.39,150.11c3.07-1.54,6.34-2.92,9.08-5.28c0.89-0.76,1.12-1.46,0.46-2.37
	c-1.92-2.68-3.78-5.41-5.85-7.97c-1.13-1.4-1.87-1.21-2.92,0.24c-0.46,0.64-0.91,1.3-1.45,2.06c1.22,0.38,2.26,0.61,3.22,1.02
	c0.88,0.38,1.68,0.96,2.52,1.45c-1.39-0.18-2.62-0.56-3.81-1.06c-2.22-0.92-3.79-0.03-5.23,1.73c2.32,0.72,4.9,0.23,7.07,1.98
	c-2.59-0.31-4.93-0.48-7.22-0.93c-1.14-0.22-1.42,0.3-1.85,1.12C241.36,144.7,243.28,147.28,245.39,150.11z M186.97,110.46
	c-3.75-1.99-7.61,0.28-11.24-1.21c-0.2,0.85-0.46,1.44-0.46,2.03c-0.02,2.06,0.02,4.11,0.08,6.17c0.09,2.72,1.63,4.63,3.6,6.29
	c0.87,0.73,1.73,0.92,2.91,0.63c1.42-0.36,2.96-0.3,4.44-0.4c0.46-0.03,0.93,0,1.78,0c-0.97-1.58-1.44-3.3-2.56-3.99
	c-2.14-1.35-3.19-3.41-4.55-5.3c-0.16-0.23-0.19-0.55-0.29-0.82c0.08-0.04,0.16-0.08,0.23-0.12c1.19,1.56,2.38,3.12,3.58,4.68
	c0.12-0.09,0.24-0.18,0.36-0.27c-0.04-1.49-0.23-2.86-1.39-4.05c-0.7-0.71-1.1-1.73-1.64-2.6c0.11-0.06,0.22-0.12,0.33-0.18
	c0.78,1.08,1.56,2.15,2.53,3.49C185.52,113.22,186.17,111.98,186.97,110.46z M194.63,145.92c-0.12-0.1-0.24-0.2-0.36-0.29
	c-1.3,0.49-2.36,1.2-3.08,2.5c-0.88,1.57-1.94,3.05-2.97,4.54c-0.34,0.48-0.83,0.86-1.25,1.29c-0.15-0.13-0.3-0.25-0.44-0.38
	c1.3-1.97,2.59-3.94,3.9-5.93c-1.03-0.57-1.67-0.65-2.26,0.44c-0.68,1.26-1.57,2.4-2.42,3.56c-0.19,0.26-0.59,0.38-0.89,0.56
	c-0.08-0.09-0.16-0.19-0.24-0.28c1.02-1.59,2.04-3.18,3.08-4.8c-2.64-0.74-2.98-1.12-2.91-3.27c-1.37-0.08-1.89,0.81-1.98,1.93
	c-0.21,2.6-0.48,5.21-0.39,7.81c0.12,3.25,0.55,3.46,3.75,3.64c4.07,0.23,7.63-1,10.68-3.66c2.38-2.08,2.47-2.79,1.28-6.03
	c-2.73-0.06-2.36,3.26-4.58,3.9c0.7-1.35,1.4-2.71,2.09-4.06c-0.15-0.09-0.3-0.19-0.45-0.28c-1.67,2.21-3.34,4.42-5.01,6.63
	c-0.19-0.13-0.37-0.26-0.56-0.39c0.12-1.59,1.71-2.36,2.41-3.63C192.75,148.36,193.74,147.17,194.63,145.92z M180.18,137.17
	c-0.03-0.26-0.06-0.52-0.09-0.78c2.92-0.61,5.84-1.21,8.75-1.82c-0.04-0.15-0.07-0.3-0.11-0.44c-1.71,0.2-3.41,0.48-5.13,0.59
	c-4.26,0.26-4.26,0.23-5.37-0.62c2.35-0.14,4.41-0.26,6.55-0.39c-1.88-1.04-3.52-2.02-5.23-2.85c-0.39-0.19-1.11-0.04-1.51,0.21
	c-2.74,1.73-4.96,3.94-6.38,6.92c-0.62,1.29-0.31,2.06,0.84,2.76c3.66,2.23,7.54,3.2,11.8,2.16c0.97-0.24,1.37-0.71,1.06-1.74
	c-1.42,0.17-2.65,1.3-4.32,0.81c1.71-1.57,4.5-0.71,5.68-3.44c-2.57,0.2-4.59,1.43-6.84,0.8c0.49-0.44,1.02-0.7,1.59-0.82
	c1.28-0.27,2.57-0.61,3.87-0.68c1.92-0.1,3.01-1.34,4.47-2.68C186.4,135.93,183.38,137.1,180.18,137.17z M205.19,102.64
	c-0.83,0.41-1.32,0.68-1.83,0.9c-4.24,1.87-6.54,4.99-6.46,9.75c0.03,1.53,0.39,2.65,1.99,3.17c1.74,0.57,2.71,1.87,3.15,3.65
	c0.19,0.78,0.64,1.49,0.96,2.2c1.26-1.83,2.17-3.68,3.57-5.02c1.55-1.49,2-3.11,1.67-5.03c-0.38-2.21-0.82-4.41-1.43-6.56
	C206.52,104.67,205.79,103.75,205.19,102.64z M216.98,134.42c1.62,2.39,3.21,4.73,4.98,7.35c4.17,0.39,7.86-1.52,11.12-4.48
	c-1.48-3.57-4.13-5.97-7.28-8.1c-1.08,1.38-2.1,2.68-3.24,4.13c1.4,0.7,2.63,1.31,3.87,1.93c-2.48,0.67-4.16-2.64-7.12-0.77
	c1.88,1.05,3.51,1.96,5.15,2.87c-1.54,0.37-2.59-0.56-3.76-1.14C219.46,135.59,218.56,134.23,216.98,134.42z M208.24,153.94
	c3.06,3.25,7.04,4.25,11.1,5.01c0.3,0.06,0.95-0.54,1.07-0.95c0.76-2.54,0.78-5.16,0.46-7.77c-0.09-0.76-0.38-1.5-1.5-1.21
	c-0.03,0.37-0.06,0.72-0.13,1.6c-1-1.72-2.1-2.38-3.79-1.87c0.42,1.08,0.83,2.12,1.23,3.17c-0.16,0.1-0.33,0.2-0.49,0.3
	c-1.1-2.44-1.95-5.17-5.47-5.01c0.42,2.72,2.67,4.55,3.96,6.86c-0.13,0.09-0.27,0.18-0.4,0.27c-1.12-1.47-2.24-2.95-3.38-4.45
	C209.94,151.35,209.09,152.64,208.24,153.94z M187.51,112.27c-1.55,0.99-2.59,4.3-1.67,6.2c1.38,2.83,2.29,6.18,6.38,6.69
	c0.89-2.84,3.06-1.55,4.96-1.35c-0.36-2.42-2.88-4.29-0.84-7.02c-2.53-1.43-4.93-2.8-7.32-4.16c-0.12,0.13-0.24,0.25-0.37,0.38
	c1.72,3.3,4.05,6.41,3.37,10.43c-0.6-1.92-0.92-3.94-1.65-5.8C189.62,115.77,188.48,114.06,187.51,112.27z M211.04,128.3
	c0.13-0.11,0.25-0.21,0.38-0.32c0.5,0.59,1.1,1.12,1.47,1.78c0.51,0.93,1.16,1.3,2.23,1.3c1.92,0,5.87-2.86,6.17-4.71
	c0.05-0.32-0.37-0.98-0.67-1.05c-1.02-0.22-2.08-0.3-3.13-0.34c-3.68-0.14-6.27,2.29-9.24,3.97c1.6,3.51,0.94,7.26,1.18,11.32
	c1.94-2.08,3.64-3.72,4.11-6.17C214.01,131.63,212.19,130.1,211.04,128.3z M192.85,128.8c-0.37-0.76-0.67-1.5-1.07-2.18
	c-0.2-0.34-0.54-0.75-0.89-0.84c-1.31-0.32-2.65-0.74-3.97-0.73c-1.71,0.02-3.4,0.54-5.12,0.64c-1.49,0.08-2.53,0.79-3.53,1.77
	c0.84,2.02,2.12,3.45,4.17,4.08c1.31,0.4,2.6,0.98,3.94,1.14c1.05,0.13,2.39,0.09,3.18-0.47
	C190.85,131.33,191.79,129.95,192.85,128.8z M222.8,108.78c0.17,0.06,0.34,0.12,0.51,0.18c-1.09,3.75-2.18,7.49-3.27,11.23
	c1.21,0.44,1.85,0,2.3-0.75c2.07-3.47,2.03-7.23,1.39-11.04c-0.07-0.39-0.69-0.87-1.12-0.94c-0.29-0.05-0.78,0.49-1,0.87
	c-0.19,0.33-0.14,0.8-0.2,1.3c-0.72,0.09-1.44,0.06-2.06,0.3c-0.55,0.22-1.29,0.64-1.43,1.12c-0.86,2.97-1.57,5.99-2.34,8.99
	c2.97,0.76,3.44,0.53,4.25-2.13c0.67-2.2,1.29-4.42,1.97-6.62C222.07,110.44,222.46,109.62,222.8,108.78z M213.52,124.49
	c1.4-0.16,2.7-0.44,3.99-0.41c1.28,0.02,2.58,0.24,3.83,0.57c0.98,0.26,1.37,1.05,0.97,2.06c-0.84,2.12-2.56,3.48-4.25,4.86
	c-1.12,0.91-2.35,0.52-3.58,0.26c-0.11-0.02-0.26,0.15-0.45,0.26c0.16,0.2,0.24,0.39,0.39,0.47c2.6,1.31,7.5,0.64,9.16-2.37
	c1.07-1.94,2.13-3.89,3.26-5.96c-3.7-2.45-7.44-3.46-11.54-2.75C213.84,121.73,213.14,122.79,213.52,124.49z M186,145.56
	c2.53-1.37,4.92-2.67,7.68-4.17c0.39-1.32,0.93-3.18,1.57-5.36c-1.24,0.27-2.23,0.71-3.2,0.66c-2.25-0.11-3.35,0.24-4.27,2.23
	c-0.8,1.74-1.3,3.61-1.89,5.44C185.79,144.66,185.95,145.04,186,145.56z M210.14,141.06c1.45,2.79,4.75,4.12,7.05,2.92
	c0.01-2.93-1.64-4.92-3.92-6.75C212.21,138.53,211.19,139.77,210.14,141.06z M210.19,112.2c-0.05-0.15-0.1-0.3-0.15-0.46
	c0.31-0.23,0.6-0.58,0.95-0.68c2.87-0.8,5.73-1.65,8.64-2.27c1.1-0.23,1.47-0.64,1.47-2.02c-1.13,0.37-2.09,0.68-3.04,1.01
	c-0.26,0.09-0.53,0.38-0.73,0.32c-3.08-0.85-5.3,0.85-7.5,2.54c-0.3,0.23-0.54,0.73-0.55,1.12c-0.02,1.1,0.09,2.21,0.15,3.29
	c1.84,0.02,2.08-0.31,2.1-2.71C211.09,112.3,210.64,112.25,210.19,112.2z M217.25,110.61c-0.22-0.13-0.43-0.27-0.65-0.4
	c-0.49,0.48-1.24,0.88-1.41,1.46c-0.73,2.44-1.33,4.93-1.88,7.42c-0.11,0.49,0.21,1.08,0.34,1.62c0.24,0,0.48-0.01,0.73-0.01
	C215.33,117.34,216.29,113.98,217.25,110.61z M201.3,119.53c-0.67-0.72-1.26-1.55-2.04-2.12c-0.37-0.27-1.31-0.26-1.64,0.03
	c-0.58,0.52-1.39,1.49-1.23,2.01c0.6,1.93,1.54,3.76,2.38,5.62c0.04,0.08,0.3,0.06,0.57,0.1c-0.27-0.97-0.6-1.84-0.73-2.73
	C198.26,119.95,198.65,119.55,201.3,119.53z M193.89,143.13c-2.36,0.22-3.9,1.41-5.41,2.62c0.1,0.24,0.2,0.48,0.3,0.72
	c1.79-0.51,3.57-1.03,5.43-1.56C194.08,144.22,194,143.75,193.89,143.13z M214.46,111.36c-2.4,0.31-3.12,3.41-1.4,5.68
	C213.55,115.07,213.99,113.27,214.46,111.36z M206.2,124.43c0.23,0.15,0.46,0.31,0.7,0.46c0.97-1.43,1.94-2.86,3.04-4.49
	c-0.57-0.12-1.03-0.3-1.09-0.21C207.94,121.59,207.07,123.01,206.2,124.43z M200.98,175.26c-0.24-0.07-0.48-0.13-0.73-0.2
	c-1.35,1.3-0.16,3.09-0.95,4.5c0.21,0.05,0.43,0.09,0.64,0.14C200.29,178.21,200.64,176.74,200.98,175.26z M167.53,143.86
	c-2.92,1.23-5.85,2.46-9.2,3.87c0.26-0.65,0.3-1.16,0.51-1.25c2.81-1.11,5.64-2.15,8.46-3.21
	C167.37,143.47,167.45,143.66,167.53,143.86z M157.23,134.78c-2.8,0.95-5.56,0.53-8.26-0.57c0.01-0.13,0.02-0.26,0.03-0.38
	C151.74,134.14,154.49,134.46,157.23,134.78z M162.54,149.52c1.79-0.9,3.58-1.8,5.37-2.7c0.09,0.16,0.18,0.32,0.27,0.47
	c-1.74,0.98-3.49,1.95-5.23,2.93C162.82,149.98,162.68,149.75,162.54,149.52z M150.01,131.48c2.1,0.24,4.19,0.48,6.29,0.72
	c-0.02,0.14-0.03,0.28-0.05,0.43c-2.09-0.12-4.19-0.25-6.28-0.37C149.98,132,149.99,131.74,150.01,131.48z M197.93,100.42
	c0-4.3,0-8.61,0-12.91c0.11,0,0.23,0,0.34,0c0,4.31,0,8.61,0,12.92C198.15,100.43,198.04,100.43,197.93,100.42z M206.96,94.2
	c0-1.72,0-3.43,0-5.15c0.1,0,0.2-0.01,0.31-0.01c0,1.72,0,3.45,0,5.17C207.16,94.2,207.06,94.2,206.96,94.2z M175.6,99.13
	c2.73,0.01,8.37,5.33,9.27,8.58C182.3,104.47,179.67,101.29,175.6,99.13z M198.33,137.42c-0.64,1.7-1.9,2.88-1.4,4.82
	c3.37-0.43,3.43-3.71,5.3-5.89c0.11,0.65,0.34,1.11,0.2,1.38c-0.8,1.54-1.53,3.17-2.61,4.49c-0.58,0.71-1.82,0.94-2.81,1.21
	c-0.24,0.07-0.83-0.48-0.99-0.85C195.25,140.81,196.16,138.64,198.33,137.42z M166.24,125c3.67-0.15,6.72,1.93,10.02,3.2
	c-0.05,0.15-0.1,0.31-0.14,0.46C172.83,127.44,169.53,126.22,166.24,125z M173.96,131.49c-3.1-0.58-5.69-2.05-7.75-4.46
	C168.8,128.52,171.38,130,173.96,131.49z M154.81,111.63c2.79,1.82,5.59,3.65,8.52,5.56C161.26,116.84,155.87,113.52,154.81,111.63z
	 M199.47,155.08c-0.21,2.87-0.81,5.65-1.65,8.39c-0.18-0.03-0.36-0.07-0.54-0.1c0.51-2.8,1.02-5.61,1.53-8.41
	C199.04,155,199.26,155.04,199.47,155.08z M225.89,110.15c1.46-1.87,2.93-3.74,4.49-5.74c-0.02,1.44-2.14,4.36-4.2,5.99
	C226.08,110.31,225.99,110.23,225.89,110.15z M230.76,129.46c3.24-0.83,6.45-1.09,9.59,0.46c-1.47-0.11-2.93-0.26-4.4-0.3
	c-1.04-0.03-2.09,0.12-3.13,0.16c-1.07,0.04-1.71,0.52-1.74,1.7c-0.14-0.03-0.28-0.07-0.43-0.1c0.05-0.65,0.1-1.3,0.15-1.96
	L230.76,129.46z M194.06,185.46c-0.54-0.59-1.28-1.1-1.58-1.79c-0.64-1.47-1.21-3-1.5-4.57c-0.41-2.17-0.53-4.39-0.81-6.88
	c1.27,0.74,1.09,1.72,1.22,2.56c0.4,2.44,0.7,4.91,1.26,7.31c0.25,1.09,1.03,2.06,1.57,3.08
	C194.18,185.27,194.12,185.36,194.06,185.46z M222.74,149.53c1.64,1.46,3.27,2.91,4.91,4.37c-0.13,0.15-0.25,0.29-0.38,0.44
	c-1.67-1.44-3.34-2.87-5-4.31C222.42,149.86,222.58,149.69,222.74,149.53z M180.85,148.13c-2.3,1.44-4.6,2.87-6.89,4.31
	c-0.08-0.14-0.16-0.27-0.24-0.41C175.82,150.23,178.07,148.68,180.85,148.13z M239.33,156.17c-2.1,0-3.62-1.18-4.84-2.86
	C236.1,154.26,237.71,155.21,239.33,156.17z M176.61,85.52c1.29,2.91,2.57,5.79,3.74,8.43C178.93,93.19,176.39,87.8,176.61,85.52z
	 M182.02,91.89c-0.93-2.04-1.86-4.07-2.79-6.11c0.17-0.07,0.33-0.15,0.5-0.22c0.92,2.05,1.84,4.1,2.76,6.14
	C182.34,91.76,182.18,91.82,182.02,91.89z M214.83,96.86c1.53-3.14,3.05-6.28,4.58-9.41c0.19,0.09,0.37,0.17,0.56,0.26
	c-1.02,3.37-3.02,6.3-4.48,9.47C215.27,97.07,215.05,96.96,214.83,96.86z M242.31,143.9c1.58,0,2.91,0,4.26,0
	C245.31,145.12,243.93,145.17,242.31,143.9z M179.05,116.79c2.47,1.43,3.33,4.73,6.38,5.61c-0.39,1.01-1.11,0.73-1.56,0.27
	c-1.78-1.79-3.47-3.66-5.2-5.5C178.8,117.05,178.93,116.92,179.05,116.79z M204.56,118.5c-1.39-0.21-0.83-0.99-0.79-1.6
	c0.15-2.41,0.32-4.82,0.42-7.23c0.02-0.52-0.23-1.05-0.46-2.01c-2.18,2.5-3.76,4.93-4.83,7.88c-0.87-1.45-0.53-2.37,1.96-6.07
	c2.7-4.02,3.2-4.47,4.9-4.21c-1.49,1.13-1.05,2.5-0.74,3.9C205.72,112.32,205.23,115.4,204.56,118.5z M224.09,121.62
	c-0.15-0.32-0.29-0.64-0.48-1.05c2.68-0.77,5.26-1.51,7.83-2.25c0.08,0.11,0.15,0.22,0.23,0.33c-0.6,0.39-1.15,0.91-1.8,1.13
	c-1.92,0.67-3.87,1.22-5.81,1.81L224.09,121.62z M196.08,106.32c-0.95,1.84-1.9,3.68-2.85,5.52c-0.19-0.09-0.38-0.19-0.57-0.28
	c0.95-1.83,1.89-3.66,2.84-5.49C195.69,106.15,195.88,106.23,196.08,106.32z M182.98,127.52c0.82,3.18,3.27,3.35,5.65,3.85
	c-1.55,0.71-3.51,0.42-4.65-0.86c-1.05-1.17-1.85-2.56-2.75-3.83c2.46-0.6,8.42,0.99,9.96,2.83
	C188.55,128.7,185.98,127.5,182.98,127.52z M142.71,214.42c3.05,0,5.94,0.02,8.83-0.01c2.16-0.02,3.26,1.03,3.56,3.15
	c0.53,3.61,1.16,7.21,1.8,11.12c1.02-0.05,2.1-0.01,3.14-0.19c7.01-1.21,13.04,1.5,18.99,4.62c1.34,0.7,1.21,1.58,0.77,2.76
	c-1.4,3.75-2.66,7.55-4.1,11.28c-0.58,1.5-0.2,2.29,1.08,3.15c2.76,1.84,5.44,3.79,8.07,5.81c2.25,1.73,2.41,2.21,1.37,4.78
	c-1.84,4.58-3.72,9.17-7.26,12.73c2.3,2.59,4.51,5.13,6.78,7.61c1.23,1.34,1.12,2.31-0.2,3.64c-2.39,2.4-4.52,5.05-6.87,7.71
	c0.61,0.91,1.04,1.88,1.74,2.57c2.76,2.71,3.93,6.33,5.7,9.62c0.67,1.25,0.45,2.21-0.48,3.21c-4.26,4.59-9.23,8.01-15.79,9.55
	c4.12,4.37,6.48,9.56,8.81,15.07c-1.93,1.12-3.78,2.12-5.56,3.24c-2.33,1.46-2.36,1.82-1.32,4.33c0.94,2.28,1.77,4.61,2.67,6.91
	c0.61,1.57-0.07,2.44-1.54,2.86c-2.62,0.74-5.22,1.57-7.88,2.12c-1.34,0.28-2.8,0.05-4.65,0.05c-0.07,1.1-0.11,2.51-0.27,3.9
	c-0.25,2.19-0.58,4.37-0.89,6.56c-0.17,1.21-0.85,1.87-2.1,1.68c-2.52-0.38-5.1-0.61-7.54-1.3c-3.09-0.87-6.07-2.14-9.11-3.25
	c-0.76,1.58-1.54,3.08-2.21,4.63c-0.72,1.65-1.87,2.09-3.51,1.52c-1.28-0.45-2.56-0.89-4-1.39c-0.97,1.94-1.71,4.04-2.94,5.78
	c-4.53,6.39-2.15,5.95-9.86,3.27c-2.08-0.72-4.11-1.72-5.98-2.87c-1.71-1.06-2.94-0.77-4.27,0.54c-1.88,1.85-3.84,3.61-5.76,5.41
	c-0.31,0.29-0.58,0.64-0.93,0.87c-3.72,2.39-3.23,2.92-7.06,0.08c-2.45-1.82-4.7-3.9-7.29-6.07c-1.41,1.02-3,2.1-4.52,3.28
	c-2.92,2.27-6.13,3.54-9.89,3.51c-1.57-0.01-2.69-0.43-3.14-1.96c-0.91-3.09-1.81-6.19-2.61-9.31c-0.36-1.39-0.48-2.84-0.75-4.57
	c-2.85,0.21-5.61,0.57-8.38,0.58c-2.72,0.01-5.27,0.6-7.89,1.24c-2.78,0.67-5.72,0.74-8.59,0.88c-0.52,0.02-1.48-0.88-1.56-1.45
	c-0.4-2.76-0.69-5.56-0.79-8.35c-0.08-2.2,0.16-4.41,0.28-7.04c-4.35-0.79-8.58-1.57-12.81-2.34c-0.5-0.09-1.01-0.17-1.52-0.23
	c-1.47-0.17-2.12-0.85-1.74-2.41c0.44-1.8,0.76-3.63,1.17-5.6c-0.7-0.17-1.25-0.42-1.8-0.41c-5.89,0.08-11.2-1.61-16.2-4.71
	c-3.74-2.32-4.06-2.23-2.8-6.36c1.46-4.8,3.15-9.58,6.99-13.17c0.55-0.52,0.99-1.15,1.64-1.93c-3.02-2.19-5.94-4.32-9.2-6.69
	c2.22-3.72,4.41-7.41,6.59-11.08c-1.66-1.6-3.3-3.02-4.76-4.62c-2.59-2.83-2.69-6.55-3.21-10.06c-0.08-0.51,0.64-1.29,1.17-1.73
	c2.51-2.04,5.08-4,7.59-5.95c-1.2-1.26-2.57-2.41-3.57-3.81c-3.41-4.82-5.04-10.39-6.31-16.06c-0.12-0.54,0.31-1.56,0.77-1.81
	c3.14-1.71,6.33-3.31,9.55-4.85c1.53-0.73,3.16-1.24,4.84-1.88c0-2.2,0.07-4.47-0.01-6.74c-0.2-5.68-0.22-5.67,5.24-6.63
	c2.93-0.52,5.84-1.09,8.86-1.66c-0.44-3-1.34-5.93-1.2-8.81c0.24-4.65,1.16-9.26,1.79-13.88c0.15-1.1,0.77-1.7,1.9-1.61
	c2.69,0.2,5.38,0.42,8.06,0.69c1.18,0.12,2.35,0.4,3.53,0.54c3.95,0.49,7.89,0.96,12.06,1.47c1.53-3.21,3.26-6.85,4.98-10.47
	c6.73,2.39,12.36,5.79,17.45,10.62c0.53-0.95,0.91-1.67,1.32-2.37c2.56-4.41,5.67-8.28,10.17-10.9c1.4-0.81,2.52-1.05,3.88,0.1
	c2.85,2.41,5.81,4.71,8.86,7.18c2.26-1.43,4.59-2.96,6.97-4.4c2.83-1.72,3.69-1.63,5.42,1.1c1.67,2.65,3.05,5.48,4.74,8.58
	c1.44-0.43,3.06-0.82,4.61-1.41c2.08-0.79,2.34-0.74,3.22,1.37c0.36,0.85,0.69,1.71,1.02,2.52c2.86-0.96,5.58-1.92,8.34-2.77
	c2.67-0.83,3.23-0.54,4.13,2.14C141.28,209.46,141.91,211.76,142.71,214.42z M38.21,244.04c1.37,6.11,1.99,12.26,4.37,18.07
	c2.07,5.07,5.17,8.96,10.31,11.06c1.03,0.42,2.05,0.84,3.04,1.34c0.69,0.35,1.31,0.82,1.96,1.24c-0.11,0.22-0.23,0.44-0.34,0.67
	c-1.69-0.7-3.41-1.33-5.06-2.12c-1.51-0.73-2.83-0.6-4.38,0.08c-4.24,1.86-7.72,4.68-10.72,8.12c-3.47,3.98-6.12,8.52-8.98,13.36
	c9.7,2.92,18.52,7.73,28.84,7.4c-2.93,1.17-3.78,3.59-4.59,6.05c-0.43,1.29-0.93,2.56-1.37,3.85c-2.13,6.33-2.83,12.78-1.62,19.4
	c0.29,1.6,1.06,2.18,2.65,1.88c1.58-0.3,3.18-0.58,4.78-0.71c6.51-0.56,11.88-3.33,16.21-8.19c0.56-0.63,1.26-1.14,1.89-1.7
	c0.16,0.16,0.33,0.33,0.49,0.49c-0.45,0.67-0.81,1.44-1.37,2c-1.7,1.67-3.52,3.21-5.21,4.89c-0.48,0.47-0.98,1.3-0.9,1.88
	c0.22,1.59,0.48,3.28,1.2,4.68c2.23,4.29,4.68,8.46,7.17,12.89c3.06-1.62,5.87-3.49,8.94-4.64c3.68-1.38,6.15-3.81,8.11-7.03
	c0.43-0.71,1.14-1.26,1.72-1.89c0.2,0.19,0.41,0.38,0.61,0.57c-2.22,3.98-4.71,7.7-9.81,9.45c1.41,2.17,2.53,4.13,3.87,5.93
	c2.25,3.04,4.88,5.71,8.46,7.2c1.8,0.75,3.64,1.42,5.51,1.91c0.51,0.13,1.49-0.32,1.8-0.8c1.39-2.14,2.81-4.3,3.85-6.62
	c1.13-2.52,1.99-5.18,2.73-7.85c0.56-2.04,0.04-2.8-2.07-3.15c-4.79-0.8-8.66-3.45-12.6-5.98c-0.79-0.51-1.5-1.13-2.25-1.69
	c0.14-0.21,0.28-0.42,0.41-0.63c0.68,0.36,1.37,0.7,2.04,1.08c3.09,1.77,6.01,4.03,9.32,5.21c3.96,1.4,8.24,1.92,12.4,2.73
	c1.67,0.33,3.39,0.37,5.07,0.63c1.55,0.24,2.37-0.65,2.54-1.89c0.49-3.53,0.89-7.09,1.15-10.65c0.49-6.62-1.93-12.53-4.65-18.36
	c-0.55-1.18-1.32-1.5-2.63-1.43c-1.83,0.11-3.72,0.12-5.53-0.27c-0.04-0.38-0.08-0.76-0.13-1.13c4.33,0.55,8.31-0.12,12.08-2.71
	c-0.97-1.84-1.81-3.7-2.88-5.41c-1.51-2.41-3.13-4.38-6.67-3.67c-2.19,0.44-4.64-0.2-6.69-2.6c0.98,0.14,1.5,0.11,1.92,0.29
	c3.89,1.72,7.62,1.24,11.34-0.58c2.56-1.25,5.19-2.35,7.93-3.58c-1.72-3.26-4.54-5.76-7.59-8.09c-2.15-1.64-4.37-2.93-7.26-2.53
	c-0.66,0.09-1.39-0.36-2.08-0.56c0-0.22,0-0.43-0.01-0.65c7.88,0.2,11.98-5.02,16.09-10.76c-6.17-4.81-12.57-6.29-19.78-2.86
	c1.03-6.78,0.82-9.26-1.38-17.04c-0.72-2.56-1.41-3.01-3.79-1.79c-4.85,2.48-8.6,6.09-10.44,11.36c-0.38,1.09-0.46,2.29-0.68,3.43
	c-0.25-0.05-0.51-0.1-0.76-0.16c0.28-1.5,0.33-3.09,0.88-4.49c1.25-3.24,3.34-5.94,6.11-8.05c1.19-0.91,1.73-1.9,0.84-3.23
	c-2.02-3.03-4.06-6.06-6.2-9.02c-0.31-0.42-1.29-0.79-1.73-0.61c-1.39,0.56-2.95,1.14-3.95,2.18c-2.79,2.9-4.51,6.43-4.68,10.51
	c-0.04,0.87,0.45,1.92,1.01,2.64c1.87,2.42,3.94,4.69,5.82,7.12c0.7,0.91,1.06,2.08,1.57,3.13c-2.39-2.43-4.35-5.06-6.42-7.6
	c-2.19-2.7-5.13-4.34-8.65-5.86c-0.83,2.61-1.85,5.04-2.35,7.58c-0.51,2.57-0.84,5.26-0.64,7.85c0.19,2.39,1.19,4.71,1.83,7.06
	c-0.51-0.01-0.65-0.13-0.73-0.27c-0.42-0.74-0.76-1.53-1.24-2.23c-0.3-0.43-0.75-0.97-1.22-1.06c-5.61-1.07-10.96-0.21-16.1,2.09
	c2.27,7.34,5.45,13.6,13.75,15.34c-0.56,0.74-1.01,1.59-1.69,2.18c-1.53,1.32-3.4,2.29-4.71,3.78c-2.79,3.16-4.49,6.91-5.1,11.24
	c6.11,1.94,11.89,3.74,17.42-0.88c0.16,3.27,0.08,6.31,0.51,9.27c0.45,3.09,1.41,6.09,3.93,7.8c5.7-2.3,9.03-6.76,12.69-10.98
	c4.06,5.07,7.23,10.54,13.26,13.08c4.31-5.8,4.22-11.96,2.86-18.42c0.75,0.65,1.25,1.32,1.41,2.06c1,4.75,1.06,9.44-1.25,13.89
	c-2.19,4.22-2.21,4.21-6.49,2.04c-0.13-0.06-0.32,0.01-0.62,0.04c-1.49,1.97-3.14,3.93-4.52,6.07c-0.84,1.29-1.62,1.22-2.74,0.63
	c-3.09-1.63-5.58-3.88-7.32-6.94c-0.57-1-1.23-1.94-1.96-3.08c-1.77,1.26-3.29,2.33-4.9,3.47c-5.75-4.01-5.65-10.24-6.08-16.3
	c-1.66,0.43-2.95,0.87-4.28,1.08c-1.42,0.22-2.9,0.09-4.31,0.37c-0.68,0.14-1.64,0.77-1.79,1.35c-0.56,2.22-0.99,4.5-1.21,6.78
	c-0.3,3.19,1.1,4.31,4.28,3.57c1.74-0.4,3.44-0.98,5.18-1.41c0.54-0.13,1.15-0.02,1.73-0.02c-3.12,1.98-6.33,3.02-9.97,2.77
	c-1.81-0.12-2.57-0.94-2.55-2.46c0.03-1.95,0.36-3.89,0.62-5.83c0.24-1.81,0.57-3.61,0.85-5.37c-2.28-0.68-4.12-1.23-6.26-1.86
	c0.84-2.84,1.6-5.4,2.32-7.83c-2.27-0.96-4.67-1.57-6.57-2.88c-2.35-1.63-4.27-3.88-6.42-5.82c-1.1-0.99-1.16-1.89-0.2-3.06
	c2.97-3.61,5.56-7.75,11.59-7c-1.13-2.65-2.08-4.88-3.11-7.31c2.38-0.84,4.66-1.65,7.33-2.6c-5.11-5.91-3.65-12.52-3.03-19.16
	c0.91,0,1.55,0,2.19,0c0-0.06,0.01-0.12,0.01-0.19C55.38,247.12,46.94,245.6,38.21,244.04z M147.39,260.11
	c4.95-5.9,8.96-12.21,11.17-19.59c0.94-3.15,0.75-3.74-2.63-4.16c-3.87-0.49-7.79-0.62-11.69-0.93c-6.78-0.54-13.22,0.81-19.39,3.51
	c-0.99,0.43-2.37,1.33-2.48,2.14c-0.32,2.58-0.12,5.22-0.12,8.18c1.95,0,3.63-0.04,5.31,0.01c1.82,0.06,2.73,0.97,2.83,2.89
	c0.2,3.96,0.16,7.84-1.86,11.44c-0.45,0.8-0.7,1.71-1.01,2.49c2.04,1.52,3.97,2.95,5.87,4.36c-0.73,1.13-1.21,1.88-1.55,2.42
	c3.42,1.97,6.63,3.84,9.87,5.67c1.55,0.87,1.52,1.95,0.45,3.1c-0.85,0.91-1.85,1.68-2.77,2.5c3.32,2.43,6.33,4.62,9.51,6.94
	c7.65-4.29,11.03-12.28,15.79-19.07c-1.57-3.78-10.46-11.41-14.78-13.4C149.07,259.1,148.23,259.6,147.39,260.11z M4.16,304.04
	c6.85,6.28,14.54,9.58,23.19,8.5c2.53-4.66,4.86-8.95,7.3-13.43c-2.68-0.75-5.24-1.46-8.2-2.29c5.67-10,11.31-19.43,21.84-24.03
	c-1.99-2.76-4.04-5.07-5.47-7.72c-1.43-2.67-2.25-5.67-3.47-8.89c-9.36-0.43-17.69,3.76-26.62,6.03c0.38,1.37,0.51,2.5,0.98,3.47
	c1.76,3.68,3.58,7.34,5.48,10.96c2.29,4.38,5.71,7.59,10.3,9.53c0.33,0.14,0.56,0.52,0.84,0.78c-0.12,0.21-0.25,0.42-0.37,0.64
	c-1.58-0.85-3.24-1.58-4.7-2.58c-1.52-1.04-2.85-2.36-4.33-3.62C12.93,287.29,9.06,296.03,4.16,304.04z M116.47,216.76
	c2.02,7.32,3.96,14.34,5.89,21.32c3.16-0.97,6.26-1.85,9.3-2.93c0.6-0.21,1.3-1.19,1.31-1.82c0.03-3.31,0.49-6.82-0.4-9.91
	c-1.82-6.32-4.42-12.43-6.72-18.7c-4.78,1.42-9.17,2.66-13.51,4.05c-4.21,1.35-7.67,3.98-11.03,6.77c-1.14,0.94-1.27,1.85-0.39,3.06
	c0.64,0.87,1.1,1.88,1.64,2.82c-0.26,0.21-0.51,0.42-0.77,0.63c-3.27-6.99-9.4-10.51-16.26-14.02c-0.2,0.37-0.38,0.88-0.71,1.27
	c-3.14,3.66-5.45,7.79-7.43,12.17c-1.53,3.39-1.81,3.49,1.21,5.74c3.95,2.95,7.22,6.44,9.81,10.61c0.27,0.43,0.79,0.71,1.37,1.21
	c0.55-5.64,3.14-9.78,7.28-13.03C102.71,221.57,109.23,218.98,116.47,216.76z M122.97,298.63c2.56,3.82,5.06,6.99,5.87,11.25
	c-1.59,0.74-3.15,1.46-4.74,2.2c0.87,1.91,1.7,3.49,2.32,5.15c0.47,1.25,1.19,1.56,2.49,1.58c9.29,0.13,17.33-3.13,24.49-8.84
	c1.77-1.41,3.52-2.82,5.65-4.53c-3.8-4.42-7.53-8.49-10.94-12.8c-2.12-2.68-4.72-4.59-7.56-6.33c-1.44-0.88-2.59-0.78-3.93,0.29
	c-1.47,1.18-3.17,2.08-4.83,3.14c0.87,1.45,1.88,3.13,2.9,4.82c-0.08,0.23-0.16,0.45-0.25,0.68
	C129.93,294.08,127.34,298.07,122.97,298.63z M110.61,369c4.32,1.84,8.49,3.61,12.98,5.52c2.29-3.89,4.34-7.37,6.56-11.14
	c0.8,0.25,1.91,0.59,3.02,0.95c2.75,0.89,2.97,0.91,4.18-1.62c2.84-5.9,4.47-12.13,4.41-18.72c-0.04-4.8-0.07-4.78-4.78-6.1
	c-2.41-0.67-4.8-1.43-7.3-2.18c-0.48,2.85-0.76,5.29-1.33,7.67c-0.76,3.15-1.01,3.25-4.24,2.79c-3.26-0.47-6.51-0.98-9.79-1.48
	c-0.45,2.01-0.74,3.87-1.3,5.63c-0.5,1.57-0.11,2.6,1.23,3.44c3.68,2.29,7.34,4.6,11.02,6.89c0.78,0.49,1.61,0.91,2.41,1.36
	c-0.15,0.26-0.29,0.52-0.44,0.78c-3.28-1.76-6.56-3.53-10.07-5.41C116.95,362.4,112.51,364.64,110.61,369z M115.62,217.94
	c-4.81,2.15-9.3,3.8-13.41,6.11c-2.98,1.68-5.7,4.02-8.11,6.48c-1.78,1.82-3.05,4.23-3.11,7.27c0.82-0.23,1.39-0.34,1.91-0.55
	c2.78-1.14,2.97-1.18,4.72,1.09c1.76,2.29,3.41,4.67,5.02,7.08c0.68,1.02,1.11,2.21,1.64,3.29c1.46-0.49,2.66-0.91,3.87-1.3
	c1.57-0.5,2.63-0.11,3.01,1.66c0.25,1.13,0.66,2.23,0.96,3.23c2.78-0.89,5.37-1.65,7.9-2.6c0.52-0.19,1.09-1.09,1.1-1.67
	c0.03-3.15,0.23-6.35-0.27-9.43c-0.71-4.35-1.95-8.62-3.03-12.91C117.22,223.33,116.49,220.98,115.62,217.94z M36.94,242.76
	c1.65-0.17,2.94-0.3,4.02-0.41c-0.34-3.24-0.81-6.26-0.94-9.3c-0.13-3.23-0.47-3.85-3.73-4.35c-1-0.15-2.05-0.22-3.05-0.08
	c-4.88,0.67-9.74,1.51-14.64,2.1c-1.77,0.21-2.37,0.94-2.28,2.61c0.2,3.66,0.19,7.33,0.55,10.97c0.42,4.37,1.39,8.54,5.07,11.61
	c1.28,1.06,2.37,1.45,3.89,0.94c4.29-1.43,8.62-2.62,13.42-1.95C38.47,250.76,37.72,246.87,36.94,242.76z M66.65,332.76
	c-3.14,0.81-6.03,1.48-8.86,2.35c-0.73,0.23-1.53,1.01-1.84,1.73c-3.21,7.37-3.73,14.9-1.41,22.66c0.51,1.7,1.4,2.53,3.05,2.34
	c4.72-0.56,9.48-1,14.14-1.92c4.93-0.98,9.06-3.95,13.05-6.77c2.95-2.08,2.61-2.16,0.67-5.53c-3.14,1.58-6.29,3.16-9.61,4.83
	C73.09,345.49,67.94,340.06,66.65,332.76z M47.7,324.58c-0.63-0.03-1.15-0.16-1.63-0.06c-3.62,0.73-7.14,0.06-10.61-0.83
	c-1.98-0.51-3.2,0.07-4.36,1.65c-3.69,5.05-6.01,10.64-7.16,16.78c-0.33,1.76,0.27,2.54,1.98,2.75c2.36,0.3,4.72,0.64,7.06,1.05
	c4.85,0.84,9.67,1.88,14.55,2.54c4.06,0.55,4.07,0.36,5.07-3.55c0.76-3.01,1.56-6,2.4-9.21c-0.88,0-1.56-0.05-2.22,0.01
	c-3.15,0.3-3.72,1.02-4.29-3.74C48.21,329.53,47.97,327.09,47.7,324.58z M42.34,219.54c-0.14,0.43-0.4,0.9-0.43,1.38
	c-0.33,5.07-0.72,10.15-0.88,15.23c-0.05,1.57,0.52,3.17,0.89,4.74c0.4,1.7,1.37,2.83,3.23,3.13c6.18,0.99,12.35,2.04,18.95,3.14
	c-1.11-7.27-1.29-14.18,1.33-20.73C58.92,221.69,50.34,219.15,42.34,219.54z M84.67,251.64c-0.01-4.33,1.7-7.52,3.53-10.69
	c0.28-0.48,0.13-1.56-0.24-2.01c-2.55-3.05-5.11-6.11-7.89-8.95c-2.55-2.6-5.39-4.91-8.1-7.35c-0.92-0.83-1.83-1.68-2.66-2.45
	c-0.34,0.18-0.46,0.21-0.49,0.27c-0.42,1.01-0.78,2.06-1.26,3.04c-3.65,7.48-4.46,15.27-2.71,23.38c0.27,1.26,0.65,2.23,1.92,2.75
	c3.33,1.37,6.64,2.8,10.14,4.29c0.75-1.58,1.61-3.38,2.53-5.31C81.19,249.62,82.68,250.48,84.67,251.64z M143.41,345.45
	c1.47,0,2.92,0.18,4.3-0.04c3.44-0.54,6.92-1.02,10.27-1.95c7.42-2.05,12.32-8.26,18.95-11.5c-2.29-7.63-7.16-13.19-12.22-18.62
	c-1.08-1.16-2.22-1.3-3.61-0.35c-2.65,1.81-5.39,3.49-8.44,5.44c0.57,1.38,1.28,2.97,1.88,4.6c1.11,3.02,2.01,6.12,3.25,9.07
	c2.21,5.27,1.93,5.81-3.97,6.37c-0.17,0.02-0.34,0-0.51,0.02c-3.52,0.38-7.04,0.75-10.67,1.14
	C142.88,341.44,143.12,343.27,143.41,345.45z M127.8,320.08c0.76,3.37,2.08,6.16,1.83,8.81c-0.44,4.66,1.53,6.52,5.71,7.29
	c2.22,0.41,4.34,1.91,6.52,1.95c4.56,0.07,9.14-0.47,13.71-0.83c0.8-0.06,1.56-0.47,2.26-0.68c-2.54-7.64-4.99-15.02-7.55-22.72
	C143.52,318.9,135.97,320.2,127.8,320.08z M60.98,197.16c-4.02,5.6-5.68,12.1-6.77,18.77c-0.53,3.26-0.32,3.28,2.72,4.62
	c0.86,0.38,1.66,0.86,2.5,1.29c2.09,1.07,4.19,2.13,6.46,3.28c0.98-2.38,1.87-4.5,2.88-6.95c2.25,2.05,4.1,3.74,6.14,5.61
	c2.45-4.54,4.73-8.79,7.12-13.22C75.52,205.63,69.71,199.46,60.98,197.16z M27.48,313.75c-4.8,0.45-9.09-0.4-13.32-1.81
	c-0.64-0.21-1.8,0.3-2.38,0.84c-4.99,4.6-6.91,10.7-8.26,16.9c6.17,4.85,13.02,6.85,20.14,6.77c2.63-4.73,5.14-9.22,7.73-13.87
	c-0.67-0.21-1.44-0.6-2.24-0.68c-1.74-0.18-2.34-1.08-2.15-2.74C27.18,317.48,27.3,315.8,27.48,313.75z M87.99,352.63
	c-1.98,1.32-4.04,2.65-6.05,4.05c-1.1,0.76-1.42,1.72-0.87,3.09c2.93,7.35,7.63,13.22,14.23,17.61c1.16,0.77,2.16,0.93,3.23,0.02
	c2.26-1.93,4.69-3.7,6.73-5.85c3.27-3.45,6.32-7.12,9.34-10.79c0.67-0.81,0.97-1.99,1.21-3.05c0.12-0.53-0.11-1.36-0.49-1.72
	c-0.96-0.91-2.1-1.63-3.2-2.45c-1.9,3.02-3.69,5.79-5.4,8.61c-0.61,1-1.33,1.55-2.5,1.25c-3.03-0.79-6.22-1.27-8.64-3.5
	C93.01,357.54,90.54,355.09,87.99,352.63z M41.31,217.97c4.04,0.56,7.77,1.07,11.34,1.56c0.77-4.13,1.47-7.85,2.26-12.07
	c-3.22-0.54-6.29-1.08-9.37-1.55c-1.34-0.21-2.7-0.26-4.05-0.41c-3.03-0.34-6.04-0.78-9.08-0.98c-0.57-0.04-1.6,0.73-1.73,1.28
	c-0.67,2.98-1.18,6.01-1.65,9.03c-0.59,3.79,0.04,7.49,1.2,11.08c0.21,0.66,1,1.53,1.59,1.59c2.65,0.28,5.32,0.31,8.21,0.44
	C40.41,224.97,40.83,221.7,41.31,217.97z M28.47,320c5.52,2.16,10.91,3.76,16.76,3.28c1.95-0.16,2.78-1,3.18-2.88
	c0.72-3.31,1.66-6.58,2.61-9.83c0.61-2.1,1.38-4.15,1.99-5.98c-5.58-1.44-10.99-2.84-16.65-4.3C31.51,305.7,28.44,312.17,28.47,320z
	 M179.24,234.25c-6.46-3.12-12.26-6.21-19.22-4.56c-1.48,0.35-3.13,0.39-3.43,2.38c-0.28,1.89-0.21,3.5,2.19,4.06
	c1.67,0.39,2.27,1.55,1.57,3.32c-1.23,3.08-2.33,6.2-3.5,9.3c-0.25,0.66-0.58,1.29-0.81,1.79c3.4,1.2,6.6,2.09,9.59,3.45
	c3.19,1.46,3.11,1.66,5.39-1.11c0.49-0.59,1.05-1.17,1.34-1.86C174.64,245.55,176.86,240.06,179.24,234.25z M154.93,234.29
	c0.1-0.36,0.31-0.76,0.32-1.17c0.14-5.47-0.33-10.88-1.8-16.16c-0.17-0.63-1.26-1.37-1.98-1.43c-2.54-0.19-5.12-0.32-7.65-0.08
	c-3.18,0.31-6.45,0.67-9.11,2.71c-0.7,0.54-1.5,1.6-1.45,2.37c0.33,4.62,0.89,9.22,1.36,13.75
	C141.14,234.29,147.89,234.29,154.93,234.29z M173.91,298.43c-3.36-6.3-8.34-11.21-13.93-15.95c-3.15,3.66-5.46,7.9-10.16,9.63
	c3.74,4.85,7.33,9.51,10.91,14.15c-2.68,2.1-4.94,3.89-7.21,5.66c-2.1,1.64-2.1,1.64-0.79,4.25
	C161.36,312.35,167.62,305.67,173.91,298.43z M99.51,215.44c2.24-1.77,4.73-3.74,7.2-5.69c-4.59-8.49-7.19-10.59-13.65-15.51
	c-1.29-0.98-2.3-0.93-3.69-0.13c-3.35,1.93-5.77,4.74-8,7.78c-3.05,4.17-2.95,4.82,1.22,7.77c0.11,0.08,0.32,0.01,0.72,0.01
	c0.64-0.9,1.36-1.92,2.3-3.26C90.2,209.39,94.73,212.33,99.51,215.44z M185.74,282.01c-3.7-3.37-7.27-6.75-10.99-9.96
	c-1.86-1.6-2.19-1.38-3.48,0.63c-0.82,1.28-1.78,2.5-2.76,3.66c-2.02,2.4-4.29,4.5-7.6,5.21c4.14,4.35,7.99,8.4,11.87,12.48
	C177.68,291.9,181.3,288.62,185.74,282.01z M151,257.26c0.83,0.71,1.55,1.43,2.36,2.02c4.21,3.07,8.07,6.5,11.38,10.55
	c1.88,2.31,1.92,2.37,0.23,4.74c-0.97,1.36-1.72,2.87-2.57,4.31c0.2,0.12,0.41,0.24,0.61,0.36c6.45-4.09,9.14-10.99,13.1-17.1
	c-6.04-4.56-11.76-8.87-19.23-9.59c-0.88-0.08-2.06,0.13-2.66,0.69C153.01,254.39,152.1,255.85,151,257.26z M21.79,257.85
	c-1.64-2.29-3.43-4.19-4.48-6.43c-1.05-2.23-1.35-4.8-2.12-7.76c-4.87,2.42-9.46,4.7-14.23,7.07c0.65,2.58,1.02,5.14,1.96,7.47
	c1.51,3.75,2.8,7.71,6.17,10.4c2.23,1.78,2.27,1.8,4.76-0.02c-0.27-0.69-0.57-1.38-0.81-2.1c-0.27-0.8-0.46-1.64-0.75-2.43
	c-1.02-2.8-0.95-2.91,1.99-3.81C16.78,259.47,19.26,258.66,21.79,257.85z M143.38,347.32c-0.7,2.99-1.42,6.12-2.16,9.25
	c-0.35,1.47,0.34,2.26,1.65,2.68c1.69,0.55,3.37,1.18,5.09,1.63c2.68,0.7,5.39,1.34,8.1,1.91c1.47,0.31,2.45-0.16,2.54-1.92
	c0.29-5.22,0.65-10.43,0.99-15.83C153.88,345.84,148.72,346.57,143.38,347.32z M173.39,295.33c0.81,1.72,1.46,3.07,2.01,4.24
	c-3.86,4-7.5,7.78-11.21,11.62c1.51,1.62,2.79,3.1,4.19,4.45c0.41,0.39,1.25,0.67,1.78,0.54c5.93-1.37,10.65-4.77,14.73-9.13
	c0.36-0.39,0.53-1.32,0.33-1.83c-1.72-4.49-4.13-8.55-7.87-11.91C176.06,293.97,174.8,294.61,173.39,295.33z M79.34,358.88
	c-3.69,1.01-7.24,2.06-10.85,2.93c-1.3,0.31-1.72,0.94-1.53,2.13c0.46,2.76,0.75,5.57,1.46,8.27c1.17,4.42,2.46,5.13,6.94,4.37
	c0.57-0.1,1.18-0.27,1.67-0.57c2.95-1.8,5.86-3.64,8.6-5.35C83.38,366.44,81.31,362.56,79.34,358.88z M20.04,279.73
	c-1.17-2.17-2.3-4.46-3.65-6.62c-0.43-0.68-1.45-1.4-2.19-1.39c-1.39,0.02-2.98,0.23-4.13,0.95c-2.45,1.52-4.69,3.38-6.95,5.19
	c-0.45,0.36-0.83,1.14-0.8,1.7c0.25,5.36,2.23,9.7,7.24,12.05C13.05,287.65,16.47,283.78,20.04,279.73z M113.2,265.27
	c0.41,0.05,0.65,0.14,0.88,0.1c3.53-0.58,7.03-1.27,10.61-0.04c0.51,0.18,1.71-0.61,2.09-1.25c2.13-3.62,2.97-7.55,2.55-11.77
	c-0.13-1.32-0.77-1.78-1.94-1.83c-4.3-0.2-8.45,0.43-12.36,2.3c-1.76,0.85-2.51,2.11-1.84,4.14c0.33,1.02,0.31,2.18,0.29,3.28
	C113.45,261.88,113.3,263.56,113.2,265.27z M62.8,250.14c-0.56,4.81-1.27,9.32,0.42,13.77c0.41,1.08,1.17,2.07,1.9,2.99
	c0.32,0.4,0.97,0.75,1.48,0.76c2.93,0.07,5.87,0.03,8.69,0.03c0.3-3.52,0.65-6.97,0.85-10.42c0.04-0.75-0.17-1.8-0.68-2.24
	C71.94,251.94,67.57,251.05,62.8,250.14z M69.8,287.53c-2.37-2.07-5.13-4.3-7.66-6.77c-1.01-0.99-1.94-1.5-3.31-1.51
	c-5.04-0.06-6.86,3.96-9.48,6.95c4.46,5.83,7.12,7.58,13.17,8.94C65.09,292.45,67.57,289.85,69.8,287.53z M39.94,348.59
	c-0.45,4.58-1.08,8.86-0.08,13.16c0.16,0.69,0.83,1.77,1.31,1.8c4.34,0.22,8.58-0.33,12.61-2.1c-0.69-4-1.36-7.88-1.99-11.54
	C47.84,349.47,44.07,349.05,39.94,348.59z M173.38,269.55c1.52,1.16,2.99,2.27,4.99,3.79c0.32-0.58,0.61-1.1,0.89-1.63
	c1.94-3.68,3.86-7.36,5.83-11.03c0.98-1.83,0.21-3.04-1.25-4.09c-2.21-1.58-4.39-3.21-6.63-4.76c-0.87-0.6-1.85-1.04-2.67-1.49
	c-1.67,2.15-3.11,4.01-4.63,5.96c2.01,1.47,3.97,2.95,5.98,4.35c1.27,0.89,1.59,1.77,0.67,3.19
	C175.41,265.62,174.49,267.54,173.38,269.55z M122.81,281.79c2.48,2.04,4.94,4.12,7.49,6.08c0.41,0.32,1.39,0.32,1.87,0.06
	c3.66-2.03,6.55-4.95,9.58-8.18c-2.23-1.38-4.12-2.67-6.12-3.73c-1.18-0.62-2.53-0.95-3.84-1.27c-0.47-0.11-1.19,0.04-1.55,0.36
	C127.81,277.21,125.45,279.4,122.81,281.79z M98.48,327.57c1.89-2.51,3.66-4.85,5.35-7.09c-2.78-3.2-5.38-6.19-8.14-9.37
	c-1.77,1.95-3.6,3.82-5.23,5.86c-0.4,0.5-0.43,1.65-0.14,2.29C91.94,322.94,94.49,325.79,98.48,327.57z M117.7,205.54
	c-1.03-3.32-2.42-6.29-4.63-8.78c-0.44-0.49-1.85-0.72-2.42-0.39c-2.69,1.55-5.23,3.33-7.85,5.04c1.86,2.87,3.46,5.33,5.04,7.77
	C111.14,207.96,114.24,206.82,117.7,205.54z M169.86,338.49c-3.08,2-6.1,3.52-8.5,5.72c-1,0.91-0.96,3.28-0.82,4.94
	c0.05,0.56,1.81,1.11,2.86,1.42c0.59,0.18,1.35-0.06,2-0.24c2.14-0.57,4.23-1.32,6.39-1.77c1.72-0.37,1.8-1.23,1.23-2.57
	C172.01,343.65,171.03,341.3,169.86,338.49z M141.49,214.16c-0.69-2.26-1.31-4.63-2.19-6.9c-0.21-0.55-1.42-1.21-1.95-1.06
	c-2.59,0.76-5.12,1.72-7.62,2.76c-0.39,0.16-0.82,1.2-0.66,1.6c1.04,2.48,2.24,4.88,3.33,7.19
	C135.4,216.56,138.21,215.46,141.49,214.16z"/>
</svg>
