<svg xmlns="http://www.w3.org/2000/svg" viewBox="0 0 201.76 39.81"><defs><style>.cls-1,.cls-2{fill:#ce5d20;}.cls-2{stroke:#ce5d20;stroke-width:0.43px;}</style></defs><title>アートボード 1</title><path class="cls-1" d="M51.34 38a4.27 4.27 0 0 0 0 .59.88.88 0 0 0 .08.32.55.55 0 0 0 .14.19.7.7 0 0 0 .23.13 2.48 2.48 0 0 0 .46.13v.33h-3.4v-.33a1.89 1.89 0 0 0 .63-.21.58.58 0 0 0 .25-.35 3.51 3.51 0 0 0 .07-.8v-2.82h-4.49v2.82a3.62 3.62 0 0 0 0 .67.71.71 0 0 0 .12.33.63.63 0 0 0 .25.2 2.58 2.58 0 0 0 .54.16v.33h-3.38v-.33a1.82 1.82 0 0 0 .68-.24.61.61 0 0 0 .22-.37 3.59 3.59 0 0 0 0-.75v-5.84a3.75 3.75 0 0 0 0-.68.71.71 0 0 0-.13-.33.69.69 0 0 0-.25-.19 2.91 2.91 0 0 0-.53-.16v-.33h3.42v.33a2.31 2.31 0 0 0-.51.15.61.61 0 0 0-.39.52 3.74 3.74 0 0 0 0 .69v2.4h4.52v-2.4a3.32 3.32 0 0 0-.07-.8.6.6 0 0 0-.24-.33 1.76 1.76 0 0 0-.64-.23v-.33h3.4v.33a2.1 2.1 0 0 0-.63.22.53.53 0 0 0-.24.35 3 3 0 0 0-.07.79zM58.75 38.74h-.12a4.74 4.74 0 0 1-1.33.85 3.39 3.39 0 0 1-1.31.25 2.62 2.62 0 0 1-1.09-.2 1.53 1.53 0 0 1-.72-.56 1.41 1.41 0 0 1-.26-.83 1.68 1.68 0 0 1 1.18-1.53 9.67 9.67 0 0 1 3.52-.63v-.43a3 3 0 0 0-.17-1.11 1.17 1.17 0 0 0-.51-.6 1.89 1.89 0 0 0-.93-.19 1.69 1.69 0 0 0-1.01.24 1.62 1.62 0 0 0-.58.83h-1.07v-.83c.52-.22.95-.39 1.29-.5a10.44 10.44 0 0 1 1-.25 6.23 6.23 0 0 1 1.06-.09 3.15 3.15 0 0 1 1.29.22 1.5 1.5 0 0 1 .73.65 2.82 2.82 0 0 1 .28 1.28v3.0599999999999996a2.3 2.3 0 0 0 .05.39.91.91 0 0 0 .12.28.76.76 0 0 0 .24.18 2.64 2.64 0 0 0 .52.15v.33h-2.22zm-.13-2.12a6.85 6.85 0 0 0-2.47.36 1.14 1.14 0 0 0-.82 1.07 1 1 0 0 0 .18.61 1 1 0 0 0 .49.34 2.17 2.17 0 0 0 .67.09 2.2 2.2 0 0 0 1-.23 1.72 1.72 0 0 0 .7-.56 1.17 1.17 0 0 0 .26-.69zM62.18 39.37a2.74 2.74 0 0 0 .45-.14.76.76 0 0 0 .23-.17.73.73 0 0 0 .14-.33 3.07 3.07 0 0 0 0-.7v-3.69a.88.88 0 0 0-.12-.43.57.57 0 0 0-.29-.23 2.42 2.42 0 0 0-.57-.13v-.36l1.9-.06h.49v4.87a3 3 0 0 0 .07.81.59.59 0 0 0 .24.35 1.87 1.87 0 0 0 .6.2v.33h-3.14zm2.32-8.78v1.31h-1.5v-1.31zM69 34.36h.11a5.44 5.44 0 0 1 .83-.71 3.15 3.15 0 0 1 .82-.41 3.47 3.47 0 0 1 1-.14h.85v1.56h-.92a1.71 1.71 0 0 0-.41-.53 1 1 0 0 0-.6-.17 1.34 1.34 0 0 0-.58.14 2.16 2.16 0 0 0-.56.42 1.82 1.82 0 0 0-.37.5 1.42 1.42 0 0 0-.1.57v2.41a2.68 2.68 0 0 0 .09.85.62.62 0 0 0 .29.34 1.87 1.87 0 0 0 .63.17v.33h-3.28v-.33a2.74 2.74 0 0 0 .45-.14.76.76 0 0 0 .23-.17.73.73 0 0 0 .14-.33 3.07 3.07 0 0 0 0-.7v-3.69a.88.88 0 0 0-.12-.43.57.57 0 0 0-.29-.23 2.56 2.56 0 0 0-.57-.13v-.36l1.9-.06h.5zM87.7 36l.5.71c.13.21.26.44.4.69h.11c0-.28 0-.82-.07-1.64v-3.6a5.43 5.43 0 0 0 0-.68.75.75 0 0 0-.11-.33.65.65 0 0 0-.24-.19 3 3 0 0 0-.52-.16v-.33h2.92v.33a4.18 4.18 0 0 0-.52.15.76.76 0 0 0-.24.18.73.73 0 0 0-.14.32 3.11 3.11 0 0 0 0 .71v7.58h-1l-4.52-6.31-.6-.86q-.18-.27-.33-.54h-.14c0 .35.07 1 .08 1.89v4.08a5.25 5.25 0 0 0 0 .67.84.84 0 0 0 .13.33.57.57 0 0 0 .25.2 2.58 2.58 0 0 0 .54.16v.33h-3v-.33a1.82 1.82 0 0 0 .68-.24.61.61 0 0 0 .22-.37 3.59 3.59 0 0 0 0-.75v-5.84a3.75 3.75 0 0 0 0-.68.71.71 0 0 0-.13-.33.69.69 0 0 0-.25-.19 2.91 2.91 0 0 0-.53-.16v-.33h2.54zM97 38.74h-.12a4.88 4.88 0 0 1-1.33.85 3.44 3.44 0 0 1-1.32.25 2.68 2.68 0 0 1-1.09-.2 1.64 1.64 0 0 1-.72-.56 1.4 1.4 0 0 1-.25-.83 1.68 1.68 0 0 1 1.17-1.53 9.71 9.71 0 0 1 3.52-.63v-.43a3.26 3.26 0 0 0-.16-1.11 1.17 1.17 0 0 0-.51-.6 2 2 0 0 0-.94-.19 1.52 1.52 0 0 0-1.6 1.11h-1.06v-.87c.52-.22 1-.39 1.3-.5a9.26 9.26 0 0 1 1-.25 6.12 6.12 0 0 1 1-.09 3.09 3.09 0 0 1 1.29.22 1.46 1.46 0 0 1 .82.62 2.68 2.68 0 0 1 .25 1.32v3.0599999999999996a2.34 2.34 0 0 0 0 .39.73.73 0 0 0 .13.28.58.58 0 0 0 .24.18 2.31 2.31 0 0 0 .51.15v.33h-2.13zm-.14-2.12a6.88 6.88 0 0 0-2.47.36 1.16 1.16 0 0 0-.82 1.07.91.91 0 0 0 .19.61.93.93 0 0 0 .47.3 2.41 2.41 0 0 0 1.68-.14 1.79 1.79 0 0 0 .7-.56 1.15 1.15 0 0 0 .25-.69zM100.42 39.37a2.74 2.74 0 0 0 .45-.14.66.66 0 0 0 .23-.17.85.85 0 0 0 .15-.33 3.79 3.79 0 0 0 0-.7v-3.69a1 1 0 0 0-.11-.43.64.64 0 0 0-.3-.23 2.45 2.45 0 0 0-.56-.13v-.36l1.89-.06h.49v4.87a3.48 3.48 0 0 0 .07.81.6.6 0 0 0 .25.35 1.89 1.89 0 0 0 .59.2v.33h-3.18zm2.32-8.78v1.31h-1.49v-1.31zM107.21 38a3.65 3.65 0 0 0 .06.81.65.65 0 0 0 .25.35 1.87 1.87 0 0 0 .6.2v.33h-3.23v-.33a2.24 2.24 0 0 0 .57-.18.63.63 0 0 0 .23-.23 1.16 1.16 0 0 0 .09-.36 4.58 4.58 0 0 0 0-.59v-6.550000000000001a1.69 1.69 0 0 0-.07-.44.67.67 0 0 0-.14-.28.63.63 0 0 0-.25-.16 3 3 0 0 0-.58-.13v-.35l2-.07h.49zM124.66 30.47v2h-.8a4.58 4.58 0 0 0-.25-.58 2.77 2.77 0 0 0-.27-.42 1.27 1.27 0 0 0-.3-.27 1.11 1.11 0 0 0-.4-.14 4.16 4.16 0 0 0-.54 0h-2.57v3.54h1.74a1.62 1.62 0 0 0 .56-.08.79.79 0 0 0 .34-.29 2.76 2.76 0 0 0 .26-.64h.76v2.6h-.76a2.09 2.09 0 0 0-.26-.61.83.83 0 0 0-.32-.3 1.67 1.67 0 0 0-.58-.08h-1.74v3.9h2.53a2.72 2.72 0 0 0 .64-.06 1.13 1.13 0 0 0 .43-.19 1.67 1.67 0 0 0 .32-.37 2.82 2.82 0 0 0 .23-.46l.26-.7h.8l-.16 2.37h-7.51v-.33a1.75 1.75 0 0 0 .67-.24.61.61 0 0 0 .22-.37 3.45 3.45 0 0 0 .04-.75v-5.84a5 5 0 0 0 0-.68.72.72 0 0 0-.14-.33.65.65 0 0 0-.24-.19 3.2 3.2 0 0 0-.53-.16v-.33zM131.87 34.72h-.78a2.09 2.09 0 0 0-.42-.64 1.25 1.25 0 0 0-.55-.33 2.78 2.78 0 0 0-.76-.09 1.85 1.85 0 0 0-1 .25.79.79 0 0 0-.39.69.87.87 0 0 0 .16.52 1.52 1.52 0 0 0 .48.38 9.8 9.8 0 0 0 1.14.46 9 9 0 0 1 1.28.55 2.33 2.33 0 0 1 .71.58 1.26 1.26 0 0 1 .25.79 1.67 1.67 0 0 1-.22.9 1.6 1.6 0 0 1-.61.6 3.12 3.12 0 0 1-.95.33 6.33 6.33 0 0 1-1.2.1 11.41 11.41 0 0 1-1.32-.08c-.43-.06-.84-.13-1.25-.22v-1.42h.8a1.71 1.71 0 0 0 .64.91 2.25 2.25 0 0 0 1.19.28 3.45 3.45 0 0 0 .57-.05 1.73 1.73 0 0 0 .5-.17 1 1 0 0 0 .35-.32.92.92 0 0 0 .13-.51.89.89 0 0 0-.16-.56 1.49 1.49 0 0 0-.5-.4 9.91 9.91 0 0 0-1.21-.48 8.35 8.35 0 0 1-1.18-.5 2.15 2.15 0 0 1-.7-.58 1.24 1.24 0 0 1-.26-.78 1.44 1.44 0 0 1 .36-1 2.24 2.24 0 0 1 1-.62 5 5 0 0 1 1.59-.22c.36 0 .71 0 1 .05s.75.08 1.25.17zM133.09 33.58a2.07 2.07 0 0 0 .66-.19 1 1 0 0 0 .39-.35 1.49 1.49 0 0 0 .22-.54 6.36 6.36 0 0 0 .17-.93h1.16v1.67h2.62v.68h-2.62v3a7.24 7.24 0 0 0 .06 1 1.28 1.28 0 0 0 .25.6.93.93 0 0 0 .4.32 1.63 1.63 0 0 0 .6.16 1.57 1.57 0 0 0 .61-.11 2.49 2.49 0 0 0 .56-.32l.36.37a4.41 4.41 0 0 1-1.09.67 2.8 2.8 0 0 1-1.07.21 2.08 2.08 0 0 1-1.56-.52 2.22 2.22 0 0 1-.51-1.62v-3.76h-1.2zM141.38 34.3a7.46 7.46 0 0 1 1-.75 3.53 3.53 0 0 1 .73-.32 2.77 2.77 0 0 1 .78-.11 3.12 3.12 0 0 1 .79.09 2.18 2.18 0 0 1 .62.26 1.63 1.63 0 0 1 .43.44 2 2 0 0 1 .24.63 3.82 3.82 0 0 1 .09.91v2.55a2.93 2.93 0 0 0 .06.8.62.62 0 0 0 .21.34 1.89 1.89 0 0 0 .64.22v.33h-3.2v-.33a2.62 2.62 0 0 0 .46-.14.66.66 0 0 0 .23-.17.85.85 0 0 0 .15-.33 3.74 3.74 0 0 0 .05-.69v-1.76a6.81 6.81 0 0 0-.11-1.38 1.17 1.17 0 0 0-.43-.71 1.46 1.46 0 0 0-.9-.24 1.54 1.54 0 0 0-.58.1 2.45 2.45 0 0 0-.6.33 2.27 2.27 0 0 0-.52.5 1 1 0 0 0-.17.55v2.58a5 5 0 0 0 0 .66.8.8 0 0 0 .11.33.5.5 0 0 0 .24.21 2.16 2.16 0 0 0 .52.16v.33h-3.22v-.33a2.64 2.64 0 0 0 .52-.15.78.78 0 0 0 .24-.19 1 1 0 0 0 .12-.33 4 4 0 0 0 0-.69v-6.550000000000001a1.69 1.69 0 0 0-.07-.44.67.67 0 0 0-.14-.28.63.63 0 0 0-.25-.16 3.08 3.08 0 0 0-.57-.13v-.35l1.95-.07h.49zM154.86 38.55a6.64 6.64 0 0 1-1 .71 3.76 3.76 0 0 1-1 .41 4.56 4.56 0 0 1-1.14.14 3.5 3.5 0 0 1-2.53-.83 3.31 3.31 0 0 1-.85-2.47 3.69 3.69 0 0 1 .43-1.78 3 3 0 0 1 1.24-1.19 4 4 0 0 1 1.85-.42 3.85 3.85 0 0 1 1.4.22 2.32 2.32 0 0 1 .92.59 2.66 2.66 0 0 1 .54 1 5.32 5.32 0 0 1 .21 1.49h-5.11v.12a3.73 3.73 0 0 0 .21 1.34 1.77 1.77 0 0 0 .71.86 2.43 2.43 0 0 0 1.28.3 3.2 3.2 0 0 0 1.19-.2 3.39 3.39 0 0 0 1.06-.68zm-1.36-2.74a4.87 4.87 0 0 0-.22-1.2 1.65 1.65 0 0 0-.51-.71 1.54 1.54 0 0 0-.9-.24 1.67 1.67 0 0 0-1.33.56 2.62 2.62 0 0 0-.59 1.59zM156 33.58a1.93 1.93 0 0 0 .65-.19 1.14 1.14 0 0 0 .4-.35 1.69 1.69 0 0 0 .22-.54c0-.21.11-.52.17-.93h1.15v1.67h2.62v.68h-2.62v3a5.88 5.88 0 0 0 .07 1 1.18 1.18 0 0 0 .24.6 1 1 0 0 0 .41.32 1.57 1.57 0 0 0 .58.09 1.54 1.54 0 0 0 .61-.11 2.12 2.12 0 0 0 .56-.32l.37.37a4.45 4.45 0 0 1-1.1.67 2.78 2.78 0 0 1-1.06.21 2.08 2.08 0 0 1-1.56-.52 2.22 2.22 0 0 1-.51-1.62v-3.69h-1.2zM162.11 39.37a2.74 2.74 0 0 0 .45-.14.62.62 0 0 0 .22-.17.63.63 0 0 0 .15-.33 3.07 3.07 0 0 0 0-.7v-3.69a.88.88 0 0 0-.12-.43.57.57 0 0 0-.29-.23 2.42 2.42 0 0 0-.57-.13v-.36l1.89-.06h.5v4.87a3.65 3.65 0 0 0 .06.81.65.65 0 0 0 .25.35 1.87 1.87 0 0 0 .6.2v.33h-3.18zm2.32-8.78v1.31h-1.49v-1.31zM172.77 33.39v1.42h-1a2 2 0 0 0-.34-.7 1.06 1.06 0 0 0-.47-.35 1.83 1.83 0 0 0-.66-.1 1.74 1.74 0 0 0-1 .3 2 2 0 0 0-.7.93 4 4 0 0 0-.25 1.52 4.93 4.93 0 0 0 .1 1.05 2.08 2.08 0 0 0 .33.82 1.58 1.58 0 0 0 .62.52 2.15 2.15 0 0 0 1 .19 3 3 0 0 0 1-.18 3.16 3.16 0 0 0 1-.64l.47.45a6.75 6.75 0 0 1-.73.58 3.32 3.32 0 0 1-.68.34 3.27 3.27 0 0 1-.72.21 4.51 4.51 0 0 1-.76.06 3.09 3.09 0 0 1-2.38-.81 3.4 3.4 0 0 1-.81-2.45 3.34 3.34 0 0 1 .46-1.77 3 3 0 0 1 1.27-1.2 4.11 4.11 0 0 1 1.89-.42 9.38 9.38 0 0 1 1.23.07 8.92 8.92 0 0 1 1.13.16z"/><path class="cls-2" d="M144.93 20.54l-.9.22-.83-.82a6.12 6.12 0 0 1-1.56.62 8.06 8.06 0 0 1-1.87.2 5.3 5.3 0 0 1-4.37-1.82 8.57 8.57 0 0 1-1.46-5.42 9 9 0 0 1 .8-3.93 5.9 5.9 0 0 1 2.26-2.59 6.74 6.74 0 0 1 3.53-.91 19.22 19.22 0 0 1 2.05.11 19.65 19.65 0 0 1 2.19.39v2.87h-1.13a4.57 4.57 0 0 0-.7-1.46 2.4 2.4 0 0 0-1-.76 4.22 4.22 0 0 0-1.5-.24 3.42 3.42 0 0 0-2.19.73 4.75 4.75 0 0 0-1.47 2.17 10.37 10.37 0 0 0-.52 3.46 12.38 12.38 0 0 0 .44 3.52 4.52 4.52 0 0 0 1.32 2.2 3.7 3.7 0 0 0 4.15.2 2 2 0 0 0 .65-1.66v-.62a6.23 6.23 0 0 0-.11-1.37 1.2 1.2 0 0 0-.38-.65 2.38 2.38 0 0 0-.91-.38v-.51h4.63v.51a2 2 0 0 0-.62.29 1 1 0 0 0-.31.41 1.65 1.65 0 0 0-.15.59 8.61 8.61 0 0 0 0 1zM151.79 14.36v3.57a7.08 7.08 0 0 0 .06 1.1 1.54 1.54 0 0 0 .19.52 1 1 0 0 0 .35.28 4.06 4.06 0 0 0 .74.25v.51h-4.83v-.51a2.53 2.53 0 0 0 .95-.38 1 1 0 0 0 .31-.58 6.4 6.4 0 0 0 .08-1.16v-9.08a6.58 6.58 0 0 0-.06-1.06 1.21 1.21 0 0 0-.19-.51.93.93 0 0 0-.39-.31 4.24 4.24 0 0 0-.74-.24v-.51h5.74a7.28 7.28 0 0 1 4 .89 3.11 3.11 0 0 1 1.33 2.78 3.64 3.64 0 0 1-.87 2.45 5.64 5.64 0 0 1-2.59 1.57v.06a3.46 3.46 0 0 1 1.2.76 7.38 7.38 0 0 1 1.1 1.51l1 1.73a9.5 9.5 0 0 0 .76 1.15 2.8 2.8 0 0 0 .65.61 2.44 2.44 0 0 0 .89.3v.51h-3.18a12 12 0 0 1-.82-1.2c-.26-.42-.52-.86-.77-1.3l-1-1.75a8.94 8.94 0 0 0-.75-1.18 2 2 0 0 0-.54-.53 1.67 1.67 0 0 0-.52-.21 4.43 4.43 0 0 0-.85-.06zm0-7.14v6.24h1.3a8.62 8.62 0 0 0 1.61-.13 3.2 3.2 0 0 0 1.15-.5 2.62 2.62 0 0 0 .84-1 3.66 3.66 0 0 0 .32-1.61 3.31 3.31 0 0 0-.38-1.66 2.36 2.36 0 0 0-1.12-1 5 5 0 0 0-2-.35c-.73-.04-1.29-.02-1.72.01zM170.61 20.59v-.51a3.46 3.46 0 0 0 .85-.24.87.87 0 0 0 .42-.35 1.16 1.16 0 0 0 .14-.6 3.58 3.58 0 0 0-.09-.77c-.06-.28-.15-.59-.26-.93l-.43-1.36h-5.34l-.39 1a9.19 9.19 0 0 0-.39 1.18 3.29 3.29 0 0 0-.09.72 1.17 1.17 0 0 0 .35.93 2.18 2.18 0 0 0 1.07.39v.51h-4.89v-.51a1.79 1.79 0 0 0 1.12-.69 7 7 0 0 0 .92-1.68l4.78-11.63h1.81l3.89 11.72a13.19 13.19 0 0 0 .49 1.25 2 2 0 0 0 .51.67 2 2 0 0 0 .81.36v.51zm-4.4-5.67h4.79l-2.18-6.78zM188.05 6.55v2.91h-1.13a4.45 4.45 0 0 0-.7-1.45 2.38 2.38 0 0 0-1-.77 3.49 3.49 0 0 0-1.34-.24 3.32 3.32 0 0 0-2.1.72 4.73 4.73 0 0 0-1.45 2.16 10.25 10.25 0 0 0-.53 3.49 12.38 12.38 0 0 0 .44 3.52 4.57 4.57 0 0 0 1.28 2.19 3 3 0 0 0 2.09.74 4.12 4.12 0 0 0 1.53-.24 2.49 2.49 0 0 0 1-.79 5.71 5.71 0 0 0 .77-1.57h1.13v3a17.43 17.43 0 0 1-2.2.4 23.4 23.4 0 0 1-2.48.13 5.35 5.35 0 0 1-4.36-1.75 8.27 8.27 0 0 1-1.49-5.39 9.33 9.33 0 0 1 .77-3.94 5.85 5.85 0 0 1 2.24-2.67 6.69 6.69 0 0 1 3.59-.93 19 19 0 0 1 1.93.1 17.52 17.52 0 0 1 2.01.38zM201.42 6.25v3.17h-1.13a8.1 8.1 0 0 0-.35-.9 3.49 3.49 0 0 0-.38-.65 1.55 1.55 0 0 0-.43-.42 1.41 1.41 0 0 0-.55-.22 4.38 4.38 0 0 0-.77-.06h-3.62v5.51h2.45a1.91 1.91 0 0 0 .79-.13 1.14 1.14 0 0 0 .48-.45 4.41 4.41 0 0 0 .36-1h1.07v4h-1.07a3.64 3.64 0 0 0-.36-1 1.13 1.13 0 0 0-.46-.46 1.87 1.87 0 0 0-.81-.14h-2.45v6.07h3.56a3.76 3.76 0 0 0 .91-.09 1.38 1.38 0 0 0 .6-.31 2 2 0 0 0 .45-.56 4.69 4.69 0 0 0 .29-.61c.08-.25.21-.61.36-1.09h1.13l-.22 3.69h-10.57v-.51a2.45 2.45 0 0 0 1-.38 1 1 0 0 0 .32-.58 6.61 6.61 0 0 0-.02-1.13v-9.12a8.49 8.49 0 0 0 0-1.06 1.36 1.36 0 0 0-.19-.51 1 1 0 0 0-.35-.3 4.77 4.77 0 0 0-.75-.24v-.52z"/><path class="cls-1" d="M15.26 7.89v-.79h6.74v.79c-1.19.14-1.69.44-1.69 1.2a2.64 2.64 0 0 0 .2.93l3 8.25 2.73-7.22a4.3 4.3 0 0 0 .35-1.49c0-.85-.38-1.39-1.73-1.67v-.79h5.71v.79a4.24 4.24 0 0 0-2.64 2.57l-4.37 11.39c-1.4 3.77-3 5.53-5.52 5.53-1.7 0-2.67-.82-2.67-1.87a1.28 1.28 0 0 1 1.32-1.32 1.83 1.83 0 0 1 1.26.5c.32.29.56.87 1.44.87s2.07-1.22 2.8-3.59l-4.62-11.86c-.57-1.4-1.15-2.11-2.31-2.22zM43.93 18a7.9 7.9 0 0 1-5.52 2.48c-2.69 0-3.8-1.41-3.8-4.42v-4.52c0-2.54-.44-3.53-2.48-3.65v-.79a9 9 0 0 0 3.87-.67h1.45v9.71c0 2 .59 2.87 2.14 2.87s2.83-.77 4.35-2.26v-5.21c-.01-2.54-.44-3.54-2.49-3.65v-.79a9.25 9.25 0 0 0 3.89-.67h1.43v9.57c0 2.53.39 3.52 2.49 3.64v.82h-5.33zM68.75 19.68c2.39-.27 2.45-1.27 2.45-4v-10.57c0-2.5-.35-3.5-2.45-3.63v-.81h.25a8.25 8.25 0 0 0 3.61-.67h1.39v15.64c0 2.75.06 3.77 2.43 4v.82h-7.68zM95.82 20.5v-.82c2.4-.27 2.46-1.27 2.46-4v-4.1c0-2.51-.36-3.53-2.46-3.65v-.83a9.1 9.1 0 0 0 3.86-.67h1.43v2.34c1.91-1.64 3.55-2.49 5.35-2.49 2.11 0 3.29.74 3.92 2.49 1.9-1.64 3.55-2.49 5.52-2.49a3.56 3.56 0 0 1 3.26 1.5 6.34 6.34 0 0 1 .59 3.48v4.38c0 2.75 0 3.74 2.38 4v.82h-7.69v-.82c2.4-.27 2.47-1.27 2.47-4v-5c0-2-.59-2.86-2.14-2.86s-2.78.75-4.3 2.22v5.64c0 2.75.07 3.74 2.4 4v.82h-7.69v-.82c2.4-.27 2.45-1.27 2.45-4v-5c0-2-.58-2.86-2.16-2.86-1.43 0-2.74.79-4.36 2.22v5.64c0 2.75.07 3.77 2.44 4v.82zM66.35 19.17a3.29 3.29 0 0 1-1 .29c-1.14 0-1.34-.79-1.34-2.29v-6c0-1.67-.14-2.82-1.14-3.63a6.82 6.82 0 0 0-4.45-1.32c-3.59 0-6 1.87-6 3.45a1.28 1.28 0 0 0 1.19 1.33c1.49 0 1.34-1.2 1.55-2.19.17-.83 1.31-1.47 3-1.47a3.36 3.36 0 0 1 2.49.93 3 3 0 0 1 .46 2.05v7.23a5 5 0 0 1-3.72 1.83 2.85 2.85 0 0 1-2.95-3.08c0-2.11 1.21-3.46 2.37-3.46s1.43.37 1.53 1.19a1.31 1.31 0 0 0 1.31 1.29 1 1 0 0 0 1.06-1.13c0-.62-.57-2.27-3.73-2.27-3.8 0-5.28 2.51-5.28 4.79a3.94 3.94 0 0 0 4.3 4.07 7.38 7.38 0 0 0 5.28-2 3.19 3.19 0 0 0 3.16 2 4.39 4.39 0 0 0 2.43-.89zM14.68 19.17a3.33 3.33 0 0 1-1.06.29c-1.13 0-1.34-.79-1.34-2.29v-6c0-1.67-.14-2.82-1.14-3.63a6.81 6.81 0 0 0-4.44-1.36c-3.6 0-6.06 1.87-6.06 3.45a1.28 1.28 0 0 0 1.29 1.37c1.49 0 1.34-1.2 1.55-2.19.18-.83 1.32-1.47 3-1.47a3.35 3.35 0 0 1 2.52.91 3 3 0 0 1 .47 2.05v7.23a5 5 0 0 1-3.73 1.83 2.83 2.83 0 0 1-2.94-3.08c0-2.11 1.2-3.46 2.36-3.46s1.43.37 1.53 1.19a1.32 1.32 0 0 0 1.31 1.29 1 1 0 0 0 1-1.13c0-.62-.57-2.27-3.74-2.27-3.77 0-5.26 2.51-5.26 4.79a4 4 0 0 0 4.3 4.09 7.39 7.39 0 0 0 5.29-2 3.18 3.18 0 0 0 3.16 2 4.36 4.36 0 0 0 2.42-.89zM93.87 19.17a3.29 3.29 0 0 1-1.05.29c-1.15 0-1.34-.79-1.34-2.29v-6c0-1.67-.15-2.82-1.15-3.63a6.79 6.79 0 0 0-4.44-1.32c-3.6 0-6 1.87-6 3.45a1.28 1.28 0 0 0 1.24 1.33c1.48 0 1.34-1.2 1.54-2.19.18-.83 1.32-1.47 3-1.47a3.34 3.34 0 0 1 2.48.93 3 3 0 0 1 .47 2.05v7.23a5 5 0 0 1-3.73 1.83 2.84 2.84 0 0 1-2.94-3.08c0-2.11 1.21-3.46 2.37-3.46s1.42.37 1.52 1.19a1.33 1.33 0 0 0 1.33 1.29 1 1 0 0 0 1-1.13c0-.62-.56-2.27-3.73-2.27-3.8 0-5.28 2.51-5.28 4.79a3.94 3.94 0 0 0 4.3 4.09 7.42 7.42 0 0 0 5.29-2 3.17 3.17 0 0 0 3.15 2 4.42 4.42 0 0 0 2.43-.89z"/></svg>