<svg xmlns="http://www.w3.org/2000/svg" viewBox="0 0 144.57 50.61"><defs><style>.cls-1{fill:#e8381b;}</style></defs><title>アートボード 1</title><path class="cls-1" d="M2.58 17c0 4.65 5.05 6.2 9.1 7.45 3.08.9 5.44 1.8 5.44 4.46 0 2.88-2.71 5.14-6.16 5.14a6.84 6.84 0 0 1-6.89-4.76l-.07-.29-.05-.14-3.9 1 .15.49c1.28 4.27 5.53 7 10.81 7 5.82 0 10.19-3.59 10.19-8.35 0-5.38-4.85-6.87-8.75-8.07-3.58-1.1-5.78-1.89-5.78-4.11 0-1.95 2.4-3.4 4.54-3.4a5.25 5.25 0 0 1 4.68 2.58l.25.44 3.54-1.53-.26-.47c-1.38-2.5-4.8-4.31-8.13-4.31-4.89.01-8.71 3.03-8.71 6.87zM29.9 11.84a26.94 26.94 0 0 0-4 1.2c.09.22 1.32 3.15 1.4 3.36a19.83 19.83 0 0 1 2.46-.92 15.28 15.28 0 0 1 4.14-.59c2.13 0 3.69.45 4.66 1.33a5.55 5.55 0 0 1 1.44 4.25v.61h-5.36c-3.53 0-6.25.71-8.08 2.12a7.45 7.45 0 0 0-2.76 6.24 7.49 7.49 0 0 0 2.2 5.67 8.43 8.43 0 0 0 6 2.13 10.21 10.21 0 0 0 4.76-1 7.86 7.86 0 0 0 2.34-2l.9-1.04v3.42h4.1v-14.07a24.76 24.76 0 0 0-.34-4.8 7 7 0 0 0-1.18-2.75 8.29 8.29 0 0 0-3.5-2.72 13.49 13.49 0 0 0-5.2-.9 19.11 19.11 0 0 0-3.98.46zm3 22a5.23 5.23 0 0 1-3.67-1.22 4.43 4.43 0 0 1-1.33-3.42 4.17 4.17 0 0 1 1.77-3.66 9.3 9.3 0 0 1 5.33-1.22h5v.87a9.88 9.88 0 0 1-1.92 6.36 6.39 6.39 0 0 1-5.19 2.29zM76 11.84a28.28 28.28 0 0 0-4 1.2l1.41 3.36a18.35 18.35 0 0 1 2.46-.92 15.33 15.33 0 0 1 4.14-.59c2.13 0 3.7.45 4.67 1.33a5.55 5.55 0 0 1 1.47 4.25v.6h-5.43c-3.54 0-6.26.71-8.09 2.12a7.45 7.45 0 0 0-2.76 6.24 7.49 7.49 0 0 0 2.23 5.68 8.41 8.41 0 0 0 6 2.13 10.25 10.25 0 0 0 4.77-1 8 8 0 0 0 2.34-2l.87-1.06v3.42h4.1v-14.07a23.82 23.82 0 0 0-.35-4.8 6.83 6.83 0 0 0-1.18-2.73 8.19 8.19 0 0 0-3.49-2.72 13.54 13.54 0 0 0-5.21-.9 19.11 19.11 0 0 0-3.95.46zm3 22a5.23 5.23 0 0 1-3.67-1.22 4.43 4.43 0 0 1-1.33-3.42 4.14 4.14 0 0 1 1.77-3.66 9.33 9.33 0 0 1 5.23-1.22h5.06v.87a9.88 9.88 0 0 1-1.92 6.36 6.42 6.42 0 0 1-5.14 2.29zM130.37 11.84a27 27 0 0 0-4 1.2l1.41 3.36a17.75 17.75 0 0 1 2.45-.92 15.28 15.28 0 0 1 4.14-.59c2.13 0 3.7.45 4.66 1.33a5.55 5.55 0 0 1 1.47 4.25v.6h-5.35c-3.54 0-6.26.71-8.08 2.12a7.43 7.43 0 0 0-2.77 6.24 7.49 7.49 0 0 0 2.23 5.68 8.43 8.43 0 0 0 6 2.13 10.28 10.28 0 0 0 4.77-1 7.82 7.82 0 0 0 2.33-2l.87-1.06v3.42h4.1v-14.07a24.59 24.59 0 0 0-.35-4.8 7 7 0 0 0-1.25-2.73 8.29 8.29 0 0 0-3.5-2.72 13.49 13.49 0 0 0-5.2-.9 19 19 0 0 0-3.93.46zm3 22a5.25 5.25 0 0 1-3.67-1.22 4.42 4.42 0 0 1-1.31-3.42 4.14 4.14 0 0 1 1.77-3.66 9.25 9.25 0 0 1 5.27-1.22h5.05v.87a9.88 9.88 0 0 1-1.92 6.36 6.39 6.39 0 0 1-5.21 2.29zM116.22 13.63v1.37l-.87-1a6.37 6.37 0 0 0-1.73-1.5 7.69 7.69 0 0 0-3.89-1 8.26 8.26 0 0 0-7 3.41c-1.7 2.26-2.56 5.43-2.56 9.4s.85 7.25 2.54 9.54a8.23 8.23 0 0 0 7 3.47 7.72 7.72 0 0 0 3.86-1 6.77 6.77 0 0 0 1.76-1.53l.87-1v2.89h4.11v-36.68h-4.07l-.02 13.63zm-5.9 20.2a4.75 4.75 0 0 1-4.32-2.38c-1-1.57-1.47-3.95-1.47-7.06s.5-5.48 1.48-7a4.77 4.77 0 0 1 4.33-2.39 4.84 4.84 0 0 1 4.37 2.4c1 1.58 1.51 3.95 1.5 7s-.51 5.45-1.51 7a4.81 4.81 0 0 1-4.38 2.43zM55.29 27.76a9.79 9.79 0 0 0 2 6.54 7 7 0 0 0 5.62 2.32h5.09v-3.46h-4.7a3.35 3.35 0 0 1-2.92-1.35 6.82 6.82 0 0 1-1-4v-27.81h-4.1zM19.5 43.5a13.13 13.13 0 0 1 2.09-.15 4.27 4.27 0 0 1 2.42.51 1.43 1.43 0 0 1 .75 1.26c0 .69-.58 1.29-1.5 1.55.84.16 1.83.72 1.83 1.77a1.75 1.75 0 0 1-.76 1.43 5.24 5.24 0 0 1-3 .66 17.12 17.12 0 0 1-1.78-.09zm1.15 2.91h1c1.19 0 1.9-.52 1.9-1.2s-.78-1.16-1.93-1.16a6.29 6.29 0 0 0-1 .06zm0 3.39a8.06 8.06 0 0 0 1 0c1.18 0 2.27-.35 2.27-1.38s-1-1.36-2.29-1.36h-.94zM31.21 47.17h-3.43v2.56h3.84v.77h-5v-7.1h4.8v.77h-3.64v2.24h3.43zM34.67 48.26l-.92 2.24h-1.19l3-7.1h1.44l3 7.1h-1.24l-.95-2.24zm2.91-.71l-.89-2c-.18-.47-.31-.89-.44-1.3-.12.41-.27.85-.43 1.29l-.87 2zM42.06 43.4v4.21a2.12 2.12 0 1 0 4.23 0v-4.21h1.16v4.15c0 2.18-1.44 3.06-3.35 3.06s-3.19-.82-3.19-3v-4.21zM51.25 44.18h-2.7v-.78h6.57v.78h-2.71v6.32h-1.16zM58.7 50.5v-3l-2.82-4.1h1.32l1.25 2c.33.53.6 1 .88 1.46a16.92 16.92 0 0 1 .89-1.46l1.28-2h1.29l-3 4.07v3zM70.58 50.5l-.83-.69a4.19 4.19 0 0 1-2.59.8c-1.72 0-2.73-.93-2.73-2s.73-1.62 1.74-2.07a2.28 2.28 0 0 1-.75-1.54c0-.86.79-1.75 2.26-1.75 1.11 0 2 .58 2 1.51 0 .75-.54 1.34-2 1.9.75.7 1.59 1.47 2.16 2a4.56 4.56 0 0 0 .85-2.07h1.05a4.76 4.76 0 0 1-1.27 2.62l1.53 1.29zm-3.21-.58a2.83 2.83 0 0 0 1.82-.64c-.53-.46-1.52-1.28-2.49-2.28a1.76 1.76 0 0 0-1.15 1.44c0 .82.74 1.44 1.81 1.44zm.23-6a1 1 0 0 0-1.1 1 1.86 1.86 0 0 0 .67 1.27c.91-.41 1.48-.79 1.48-1.39a.93.93 0 0 0-1-.91zM78.82 47.17h-3.44v2.56h3.85v.77h-5v-7.1h4.77v.77h-3.62v2.24h3.44zM80.74 49.38a4.66 4.66 0 0 0 2 .46c1.17 0 1.86-.48 1.86-1.21s-.48-1-1.68-1.4c-1.45-.42-2.34-1-2.34-2s1.15-1.93 2.87-1.93a5 5 0 0 1 2 .35l-.32.75a3.81 3.81 0 0 0-1.68-.4c-1.21 0-1.67.58-1.67 1.07 0 .66.54 1 1.76 1.36 1.5.48 2.25 1.05 2.25 2.09s-1 2-3.09 2a5.53 5.53 0 0 1-2.26-.46zM89.15 44.18h-2.7v-.78h6.55v.78h-2.69v6.32h-1.16zM95.24 43.4v3h4.29v-3h1.16v7.1h-1.16v-3.33h-4.29v3.33h-1.15v-7.1zM106.84 47.17h-3.43v2.56h3.84v.77h-5v-7.1h4.8v.77h-3.64v2.24h3.43zM110.55 44.18h-2.7v-.78h6.57v.78h-2.71v6.32h-1.16zM116.68 43.4v7.1h-1.16v-7.1zM125 50.27a6.88 6.88 0 0 1-2.35.34c-2.5 0-4.36-1.26-4.36-3.6s1.88-3.73 4.63-3.73a5.69 5.69 0 0 1 2.1.32l-.29.75a4.87 4.87 0 0 0-1.77-.3c-2.08 0-3.46 1.07-3.46 2.93s1.25 2.85 3.39 2.85a5.58 5.58 0 0 0 1.88-.29zM19.5 43.5a13.13 13.13 0 0 1 2.09-.15 4.27 4.27 0 0 1 2.42.51 1.43 1.43 0 0 1 .75 1.26c0 .69-.58 1.29-1.5 1.55.84.16 1.83.72 1.83 1.77a1.75 1.75 0 0 1-.76 1.43 5.24 5.24 0 0 1-3 .66 17.12 17.12 0 0 1-1.78-.09zm1.15 2.91h1c1.19 0 1.9-.52 1.9-1.2s-.78-1.16-1.93-1.16a6.29 6.29 0 0 0-1 .06zm0 3.39a8.06 8.06 0 0 0 1 0c1.18 0 2.27-.35 2.27-1.38s-1-1.36-2.29-1.36h-.94zM31.21 47.17h-3.43v2.56h3.84v.77h-5v-7.1h4.8v.77h-3.64v2.24h3.43zM34.67 48.26l-.92 2.24h-1.19l3-7.1h1.44l3 7.1h-1.24l-.95-2.24zm2.91-.71l-.89-2c-.18-.47-.31-.89-.44-1.3-.12.41-.27.85-.43 1.29l-.87 2zM42.06 43.4v4.21a2.12 2.12 0 1 0 4.23 0v-4.21h1.16v4.15c0 2.18-1.44 3.06-3.35 3.06s-3.19-.82-3.19-3v-4.21zM51.25 44.18h-2.7v-.78h6.57v.78h-2.71v6.32h-1.16zM58.7 50.5v-3l-2.82-4.1h1.32l1.25 2c.33.53.6 1 .88 1.46a16.92 16.92 0 0 1 .89-1.46l1.28-2h1.29l-3 4.07v3zM70.58 50.5l-.83-.69a4.19 4.19 0 0 1-2.59.8c-1.72 0-2.73-.93-2.73-2s.73-1.62 1.74-2.07a2.28 2.28 0 0 1-.75-1.54c0-.86.79-1.75 2.26-1.75 1.11 0 2 .58 2 1.51 0 .75-.54 1.34-2 1.9.75.7 1.59 1.47 2.16 2a4.56 4.56 0 0 0 .85-2.07h1.05a4.76 4.76 0 0 1-1.27 2.62l1.53 1.29zm-3.21-.58a2.83 2.83 0 0 0 1.82-.64c-.53-.46-1.52-1.28-2.49-2.28a1.76 1.76 0 0 0-1.15 1.44c0 .82.74 1.44 1.81 1.44zm.23-6a1 1 0 0 0-1.1 1 1.86 1.86 0 0 0 .67 1.27c.91-.41 1.48-.79 1.48-1.39a.93.93 0 0 0-1-.91zM78.82 47.17h-3.44v2.56h3.85v.77h-5v-7.1h4.77v.77h-3.62v2.24h3.44zM80.74 49.38a4.66 4.66 0 0 0 2 .46c1.17 0 1.86-.48 1.86-1.21s-.48-1-1.68-1.4c-1.45-.42-2.34-1-2.34-2s1.15-1.93 2.87-1.93a5 5 0 0 1 2 .35l-.32.75a3.81 3.81 0 0 0-1.68-.4c-1.21 0-1.67.58-1.67 1.07 0 .66.54 1 1.76 1.36 1.5.48 2.25 1.05 2.25 2.09s-1 2-3.09 2a5.53 5.53 0 0 1-2.26-.46zM89.15 44.18h-2.7v-.78h6.55v.78h-2.69v6.32h-1.16zM95.24 43.4v3h4.29v-3h1.16v7.1h-1.16v-3.33h-4.29v3.33h-1.15v-7.1zM106.84 47.17h-3.43v2.56h3.84v.77h-5v-7.1h4.8v.77h-3.64v2.24h3.43zM110.55 44.18h-2.7v-.78h6.57v.78h-2.71v6.32h-1.16zM116.68 43.4v7.1h-1.16v-7.1zM125 50.27a6.88 6.88 0 0 1-2.35.34c-2.5 0-4.36-1.26-4.36-3.6s1.88-3.73 4.63-3.73a5.69 5.69 0 0 1 2.1.32l-.29.75a4.87 4.87 0 0 0-1.77-.3c-2.08 0-3.46 1.07-3.46 2.93s1.25 2.85 3.39 2.85a5.58 5.58 0 0 0 1.88-.29z"/></svg>