<?xml version="1.0" encoding="utf-8"?>
<!-- Generator: Adobe Illustrator 22.1.0, SVG Export Plug-In . SVG Version: 6.00 Build 0)  -->
<svg version="1.1" id="レイヤー_11" xmlns="http://www.w3.org/2000/svg" xmlns:xlink="http://www.w3.org/1999/xlink" x="0px"
	 y="0px" viewBox="0 0 275.38 291.12" style="enable-background:new 0 0 275.38 291.12;" xml:space="preserve">
<style type="text/css">
	.st0{fill:url(#SVGID_1_);}
</style>
<linearGradient id="SVGID_1_" gradientUnits="userSpaceOnUse" x1="137.6768" y1="291.7895" x2="137.6768" y2="16.4359">
	<stop  offset="0" style="stop-color:#8596AB"/>
	<stop  offset="1" style="stop-color:#556B87"/>
</linearGradient>
<path class="st0" d="M63.78,106.99c-2.01-1.91-4.08-3.78-6.03-5.75c-3.56-3.6-7.69-6.62-10.67-10.78c-0.38-0.53-0.74-1.09-1.15-1.69
	c-2.55,3.58-4.7,7.66-9.33,8.82c-3.06,0.77-6.23,0.01-9.6-0.01c-1.34,3.06-4.27,4.7-7.67,5.82c-2.92,0.96-5.86,1.55-8.97,1.54
	c-2.52-0.01-3.79-1.39-4.64-3.47c-1.14-2.8-1.28-5.71-0.9-8.65c0.31-2.39,0.09-4.94,2.3-7.02c-1.34,0.28-2.3,0.49-3.27,0.69
	c-0.09-0.09-0.18-0.18-0.27-0.26c0.22-0.29,0.38-0.75,0.66-0.83c4.71-1.37,8.81-3.84,12.53-6.98c1.56-1.32,3.02-2.75,4.81-4.39
	c-0.71,1.81-1.33,3.35-2.7,4.29c-3.18,2.19-6.58,4.08-9.62,6.43c-1.24,0.96-2.24,2.7-2.59,4.26c-0.84,3.79-1.32,7.66-0.08,11.53
	c0.61,1.91,2.31,3.52,4.27,3.42c4.35-0.22,8.58-1.1,12.18-3.67c1.4-1,2.33-2.65,3.51-4.05c-2.66-1.86-3.44-4.58-4.4-7.11
	c-0.78-2.05-1.27-4.23-1.68-6.39c-0.43-2.27-0.13-4.51,0.87-6.64c0.89-1.89,2-3.73,2.51-5.73c0.75-2.96,2.97-5.13,3.85-8
	c0.55-1.78,2.01-2.69,3.87-3.01c0.96-0.16,1.86-0.59,2.81-0.84c0.36-0.1,0.77-0.06,1.24-0.08c0.11-0.43,0.25-1,0.38-1.52
	c-5.39-2.04-10.74-4.06-16.07-6.1c-0.84-0.32-1.4-0.47-2.18,0.34c-3.72,3.88-7.48,7.73-11.37,11.44c-1.82,1.73-3.97,3.1-5.97,4.63
	C0.28,67.06,0.14,66.88,0,66.71c2.04-1.63,4.17-3.15,6.09-4.91c1.98-1.82,3.76-3.86,5.6-5.82c1.84-1.95,3.65-3.92,5.62-6.04
	c-4.51-0.35-9.05-0.7-13.6-1.05c-0.04-0.11-0.08-0.21-0.12-0.32c0.29-0.17,0.57-0.48,0.86-0.48c1.07-0.02,2.15,0.03,3.23,0.11
	c3.31,0.24,6.62,0.51,10.23,0.79c-5.53-7.3-11.15-14.13-17.74-20.14c0.12-0.15,0.23-0.3,0.35-0.45c0.43,0.25,0.91,0.45,1.29,0.76
	c3.62,2.91,6.55,6.49,9.45,10.07c2.58,3.18,5,6.49,7.51,9.73c0.16,0.2,0.4,0.38,0.64,0.47c3.5,1.33,7.02,2.63,10.52,3.95
	c1.45,0.55,2.88,1.16,4.34,1.7c0.66,0.25,1.35,0.41,2.21,0.66c0.75-3.33,1.88-6.31,5.02-8.19c-0.81-2.03-1.36-4.22-2.49-6.07
	c-2.11-3.44-4.48-6.73-6.88-9.98c-2.51-3.42-5.93-5.83-9.53-7.98c-3.44-2.06-7.25-3.06-11.16-3.66c-2.4-0.37-4.83-0.56-7.24-0.87
	c-0.17-0.02-0.31-0.3-0.46-0.46c0.03-0.14,0.06-0.28,0.09-0.42c0.89,0.09,1.78,0.15,2.66,0.28c3.25,0.47,6.54,0.78,9.73,1.5
	c3.01,0.68,5.77,2.07,8.49,3.65c6,3.48,10,8.8,13.67,14.39c1.78,2.72,3.06,5.77,4.61,8.75c0.09-0.08,0.4-0.24,0.58-0.5
	c1.33-1.92,3.21-2.67,5.46-3.14c4.11-0.86,8.21-1.65,12.41-1.59c1,0.01,1.99,0.28,2.96,0.7c-4.8,0.19-9.55,0.41-14.23,1.77
	c3.84-0.34,7.25,0.05,8.49,4.63c0.6-0.47,1.05-0.96,1.61-1.24c1.9-0.98,4.95-0.18,6.01,1.7c1.1,1.95,1.99,4.02,2.96,6.03
	c0.17,0.35,0.32,0.71,0.64,1c1.32-4.09-0.48-7.19-3.34-10.12c0.37-0.06,0.77-0.23,0.86-0.13c1.39,1.55,3.41,0.65,5.02,1.33
	c0.76,0.32,1.13-0.23,1.56-0.8c4.38-5.77,8.69-11.59,13.25-17.21c1.83-2.25,4.21-4.06,6.41-6c5.29-4.67,10.58-9.33,15.93-13.93
	c1.72-1.48,3.63-2.74,5.44-4.12c0.7-0.53,1.36-1.1,2.21-1.79c-4.13-1.4-8.04-2.26-12.15-2.16C97.64,1.3,90.35,2.29,83.24,4.49
	c-3.37,1.04-6.89,1.7-10.09,3.11c-3.85,1.7-7.54,3.85-11.06,6.17c-1.13,0.74-1.47,2.66-2.23,4c-2.26,4.02-4.59,7.99-6.79,12.03
	c-1.95,3.59-3.14,7.48-4.29,11.38c-0.12,0.4-0.27,0.78-0.45,1.16c-0.1,0.21-0.28,0.37-0.64,0.83c-0.17-0.53-0.42-0.89-0.33-1.13
	c1.21-3.43,2.31-6.92,3.76-10.25c1.23-2.84,2.86-5.52,4.35-8.25c1.42-2.59,2.89-5.15,4.25-7.8c-8.06,5.96-14.6,13.43-21.11,21
	c-1.14-0.48-0.73-1.16-0.18-1.77c2.32-2.58,4.62-5.17,6.99-7.71c2.36-2.53,4.74-5.05,7.23-7.45c1.58-1.52,3.37-2.83,5.11-4.19
	c2.16-1.68,4.26-3.46,6.57-4.92c4.04-2.56,8.36-4.53,13.07-5.65c4.7-1.11,9.3-2.64,14.01-3.72c2.67-0.61,5.46-0.67,8.18-1.04
	c5.54-0.74,10.95-0.28,16.3,1.41c3.97,1.25,8.08,2.11,12.03,3.41c6.08,1.99,11.82,4.74,17.2,8.24c5.3,3.45,10.66,6.83,16.1,10.07
	c2.71,1.61,5.68,2.8,8.49,4.25c2.75,1.42,5.42,2.98,8.16,4.42c2.26,1.19,4.56,2.3,6.85,3.43c1.66,0.82,3.35,1.57,4.98,2.44
	c0.61,0.33,1.08,0.93,1.43,1.25c-1.09,1.07-2.01,1.85-2.79,2.75c-2.05,2.36-3.68,4.95-4.89,7.87c-1.41,3.41-4.17,5.93-6.41,8.8
	c-1.98,2.54-3.83,5.18-5.7,7.8c-5.21,7.3-11.05,13.91-18.96,18.46c-4.28,2.46-8.3,5.39-12.54,7.91c-3.8,2.26-7.72,4.34-11.67,6.33
	c-1.9,0.95-3.99,1.51-5.89,2.2c3.72,2.01,7.39,4.19,11.23,6.01c3.17,1.5,6.58,2.49,9.81,3.87c1.45,0.62,2.72,1.66,4.11,2.46
	c2.69,1.55,5.34,3.18,8.11,4.57c4.17,2.08,7.81,4.81,10.95,8.23c4.16,4.53,8.37,9.02,12.5,13.58c4.22,4.66,8,9.63,10.71,15.36
	c1.94,4.1,4.12,8.08,5.95,12.23c0.76,1.71,0.92,3.69,1.26,5.56c0.09,0.47-0.2,1.01-0.31,1.52c-0.14,0.02-0.28,0.04-0.42,0.07
	c-0.08-0.15-0.24-0.3-0.23-0.45c0.19-3.88-1.5-7.27-3.13-10.55c-2.32-4.7-4.93-9.28-7.73-13.71c-1.96-3.11-4.42-5.91-6.72-8.8
	c-0.35-0.43-1.05-0.59-1.6-0.84c-0.26-0.12-0.61-0.1-0.83-0.26c-4.4-3.12-9.53-3.96-14.7-4.64c-3.26-0.43-6.53-0.94-9.81-1.16
	c-4.36-0.29-8.73-0.33-13.37-0.48c0.6,1.2,1.13,2.23,1.63,3.27c1.61,3.33,3.21,6.67,4.82,10c0.81,1.67,1.42,3.48,2.49,4.95
	c0.75,1.04,2.08,1.68,3.22,2.4c1.9,1.21,3.89,2.28,5.78,3.51c1.33,0.87,2.32,2.03,2.53,3.73c0.42,3.45,2.7,5.31,5.66,6.74
	c3.97,1.92,7.8,4.14,11.77,6.07c3.47,1.69,6.85,3.61,10.82,4.08c1.72,0.2,2.94-0.37,4.08-1.47l-0.05,0.04
	c3.5-2.95,7.58-2.44,11.6-1.76c1.04,0.18,1.92,1.28,2.9,1.93c1.19,0.79,2.41,1.54,3.75,2.39c-0.21,0.18-0.47,0.57-0.65,0.54
	c-2.04-0.36-4.17-0.03-6.07-1.55c-0.94-0.76-2.72-0.47-4.12-0.65c0.28,1.88,0.52,3.49,0.73,5.1c0.01,0.06-0.38,0.17-0.62,0.27
	c-0.47-1.68-0.91-3.27-1.41-5.03c-1.8,1.02-3.46,1.92-5.07,2.9c-0.19,0.12-0.14,0.63-0.18,0.82c4.34,1.11,8.65,1.93,12.74,3.38
	c2.22,0.78,4.12,2.56,6.04,4.05c0.72,0.55,1.33,0.86,2.21,0.82c3.22-0.15,6.22,0.94,9.19,1.92c1.51,0.5,2.58-0.18,3.72-0.7
	c1.34-0.61,2.51-1.61,3.86-2.21c0.99-0.44,2.15-0.76,3.21-0.69c3.36,0.2,6.69,1.07,9.9-1c1.68-1.08,3.75-0.42,5.61-0.08
	c1.28,0.23,2.63,0.19,3.62,1.57c0.46,0.64,2,0.44,2.98,0.81c1.43,0.54,2.99,1.01,4.13,1.94c3.46,2.83,6.83,5.8,10.08,8.87
	c3.4,3.2,5.33,7.3,6.33,11.81c0.18,0.79-0.04,1.84-0.44,2.55c-1.67,2.94-3.62,5.74-7.04,6.82c-1.98,0.62-4.07,0.88-6.13,1.22
	c-1.35,0.22-2.73,0.28-4.14,0.42c0.8,1.49,1.52,2.97,2.37,4.37c1.11,1.84,0.87,3.82,0.71,5.77c-0.2,2.3-1.11,4.48-0.88,6.9
	c0.09,0.95-0.96,1.99-1.43,3.01c-0.34,0.73-0.53,1.54-0.89,2.26c-0.39,0.77-0.74,1.76-1.4,2.15c-1.15,0.67-2.55,1.35-3.82,1.31
	c-4.05-0.13-8.14-0.31-12.13-1.01c-4.09-0.72-8.17-1.97-11.4-4.79c-1.49-1.31-2.53-3.14-3.76-4.75c-1-1.3-1.99-2.62-3.04-4
	c-1.29,2.58-2.47,4.94-3.73,7.44c-4.38-1.47-8.69-0.31-13.01-0.03c-3.41,0.22-6.81,0.18-10.08-1.02c-3.02-1.11-5.55-2.96-7.94-5.05
	c-1.94-1.7-2.92-4.02-4.14-6.21c-0.6-1.08-1.62-1.96-2.55-2.83c-0.77-0.73-1.69-1.3-2.86-2.19c0.8,2.85,1.51,5.33,2.19,7.83
	c1.67,6.18,3.37,12.35,4.96,18.56c0.99,3.88,1.84,7.79,2.7,11.7c1.37,6.29,1.87,12.65,1.63,19.08c-0.04,0.97-0.37,1.93-0.25,3
	c0.69-1.5,1.46-2.97,2.05-4.51c1.88-4.96,3.82-9.91,5.48-14.95c0.66-2.01,0.69-4.24,0.94-6.38c0.55-4.81,1.04-9.63,1.59-14.44
	c0.08-0.74,0.34-1.46,0.52-2.19c0.14-0.01,0.27-0.03,0.41-0.04c0.14,0.31,0.43,0.63,0.4,0.92c-0.47,4.46-1.06,8.9-1.45,13.36
	c-0.62,6.97-2.36,13.63-5.11,20.04c-1.55,3.63-3.08,7.26-4.54,10.93c-0.4,1-0.49,2.12-0.72,3.17c-1.67-0.19-2.21-1.42-3.04-2.56
	c-2.7-3.73-5.58-7.32-8.43-10.93c-0.96-1.21-2.01-2.35-3.05-3.5c-2.91-3.25-6.17-6.09-9.69-8.7c-4.31-3.19-8.34-6.76-12.56-10.07
	c-4.28-3.35-8.67-6.56-12.97-9.89c-1.4-1.08-2.65-2.34-3.99-3.49c-2.21-1.91-4.6-3.65-6.62-5.74c-3.6-3.73-6.98-7.68-10.45-11.53
	c-1.76-1.96-3.11-4.18-4.42-6.45c-1.91-3.3-4.19-6.38-6.21-9.62c-3.03-4.85-5.09-10.13-6.5-15.65c-1.18-4.63-2.26-9.29-3.32-13.95
	c-0.25-1.08-0.27-2.2-0.4-3.39c-2.64,3.01-5.08,6-7.74,8.77c-2.37,2.45-5.33,3.79-8.77,4.43c-3.26,0.6-5.09-1.25-7.06-3.1
	c-2.36-2.22-4.15-4.8-5.65-7.73c-1.42-2.76-2.08-5.54-2.29-8.54c-0.04-0.59-0.2-1.17-0.35-2.01c-1.79,1-3.37,2.03-5.07,2.8
	c-3.03,1.38-6.15,2.56-9.2,3.91c-3.91,1.74-7.69,3.83-11.7,5.29c-4.98,1.81-10.13,3.13-15.2,4.68c-0.8,0.24-1.54,0.66-2.32,0.95
	c-0.53,0.2-1.1,0.31-1.92,0.54c0.71-1.35,1.54-2.36,1.78-3.49c0.84-3.84,1.67-7.69,2.15-11.59c1.15-9.28,2.69-18.46,6.51-27.08
	c1.42-3.21,3.26-6.23,4.92-9.33c1.1-2.05,2.1-4.17,3.39-6.09c2.03-3.02,3.97-6.19,6.49-8.76c4.29-4.39,8.73-8.74,14.51-11.24
	C60.63,107.44,62.26,107.33,63.78,106.99c-0.28,0.25-0.51,0.6-0.84,0.72c-0.71,0.27-1.5,0.36-2.21,0.64
	c-6.2,2.52-10.82,7.14-15.46,11.71c-0.08,0.08-0.06,0.28-0.08,0.39c9.52-3.09,19.09-4.91,29.04-2.96c-0.15-1.14-1.08-3.06-2.49-4.24
	C69.16,111.09,66.44,109.07,63.78,106.99z M108.76,136.53c-0.73-1.69-2.43-1.71-3.74-2.39c0,4.92,0,9.69,0,14.64
	c0.78-0.16,1.34-0.28,2.12-0.44c0-4.17,0-8.27,0-12.42c0.71,0.25,1.18,0.41,1.66,0.58c-0.21,0.91-0.55,1.82-0.61,2.74
	c-0.13,1.96-0.11,3.94-0.14,5.91c-0.01,0.86,0,1.73,0,2.59c0.14,0.1,0.28,0.2,0.42,0.3c1.87-1.61,3.96-3.03,5.54-4.89
	c0.94-1.11,1.81-1.79,3.15-2.02c0.44-0.08,0.89-0.14,1.33-0.2c0.02-0.12,0.03-0.23,0.05-0.35c-2.2-0.74-4.41-1.49-6.69-2.25
	c0,2.21,0,4.23,0,6.25c-0.16,0.01-0.33,0.02-0.49,0.02c-0.05-0.46-0.16-0.92-0.13-1.37C111.36,140.63,111.23,138.15,108.76,136.53z
	 M95.99,129.55c1.24,0.41,2.47,0.82,3.4,1.12c-0.26,0.72-0.61,1.26-0.62,1.81c-0.05,1.56,0,3.12,0.07,4.67
	c0.14,3.29,0.32,6.58,0.49,9.86c0.06,1.1,0.51,1.79,2.03,1.64c-0.99-5.98-1.09-11.9-0.79-17.84c0.23-0.05,0.47-0.11,0.7-0.16
	c0.24,0.57,0.7,1.15,0.7,1.72c0.05,4.79,0.01,9.58,0.01,14.37c0,0.7,0.1,1.4,0.17,2.24c0.74-0.04,1.29-0.08,1.85-0.11
	c-0.15-5.69-0.01-11.17-0.03-16.89c0.98,0.72,1.58,1.52,2.23,1.57c1.33,0.09,2.43,0.34,3.45,1.26c0.97,0.87,2.05,1.67,3.21,2.25
	c2.26,1.13,4.61,2.08,7.19,3.23c0.74-1.42,2.06-2.75,1.9-3.87c-0.38-2.8,0.09-5.48,0.28-8.21c0.07-0.95-0.11-2.18-0.68-2.88
	c-2.07-2.53-4.31-4.95-7.32-6.45c-1.65-0.83-3.3-1.69-5-2.41c-1.3-0.55-2.35-1.46-4.13-1.02c-4.75,1.17-8.74,3.78-12.85,6.18
	c-1.52,0.89-1.9,3.42-0.66,4.68c1.04,1.06,2.49,1.7,3.75,2.55c0.26,0.18,0.45,0.46,0.67,0.7c-0.17,0.73-0.5,1.46-0.5,2.19
	c0.02,4.11-0.11,8.2,0.58,12.31c0.27,1.59,0.99,2.11,2.22,2.61c-0.57-1.47,0.88-3.36-1.02-4.52c-0.06-0.04-0.03-0.23-0.03-0.35
	c0-3.74,0-7.48,0-11.34C96.95,130.24,96.47,129.89,95.99,129.55z M267.92,220.72c1.06-0.58,2.13-1.16,3.1-1.7
	c-0.73-2.23-0.97-4.16-0.63-6.11c0.19-0.02,0.39-0.04,0.58-0.06c0.16,1.64,0.31,3.28,0.5,5.21c0.49-0.7,0.71-1.2,1.09-1.53
	c2.15-1.85,1.67-4.02,1-6.34c-1.36-4.73-4.49-8.17-8.05-11.3c-2.37-2.08-4.87-4.02-7.24-6.11c-2.11-1.86-4.62-2.37-7.28-2.32
	c-1.15,0.02-2.4,0.24-3.43,0.74c-1.79,0.88-3.44,2.06-4.93,2.98c-0.42,1.68,0.45,2.42,1.55,3.17c1.55,1.06,2.86,2.4,3.08,4.41
	c0.05,0.47-0.17,0.96-0.27,1.44c-0.46-0.11-0.97-0.13-1.38-0.35c-1.24-0.64-2.33-1.65-4.19-1.58c3.04,3.1,4.08,7.34,7.66,10.01
	c-0.06-2.24,0.67-4.22-0.2-6.32c-0.51-1.23-0.34-2.72,0.32-4.06c0.34,0.52,0.43,1.03,0.44,1.55c0.03,0.77-0.29,1.76,0.07,2.28
	c0.78,1.13,0.55,2.29,0.54,3.44c-0.01,1.13-0.27,2.26-0.28,3.39c-0.01,0.54,0.2,1.15,0.5,1.61c0.54,0.83,1.21,1.58,2.05,2.66
	c0.22-3.31,0.35-6.35,0.64-9.38c0.13-1.32,0.59-2.61,0.9-3.92c0.16,0.02,0.33,0.04,0.49,0.05c0.04,0.62,0.18,1.25,0.11,1.86
	c-0.18,1.76-0.48,3.51-0.67,5.27c-0.26,2.37-0.52,4.75-0.67,7.13c-0.04,0.7,0.3,1.43,0.47,2.14c0.19-0.03,0.38-0.05,0.56-0.08
	c0.34-3.2,0.62-6.41,1.03-9.6c0.23-1.77,0.66-3.51,1.01-5.27c0.15,0,0.3,0.01,0.45,0.01c0.23,1.07,0.47,2.14,0.72,3.31
	c-0.42,0-0.73,0-1,0c-0.17,2.07-0.3,4.09-0.5,6.11c-0.22,2.2-0.52,4.39-0.74,6.59c-0.13,1.29,0.53,2.39,1.56,2.4
	c2.17,0.01,4.35-0.15,6.55-0.24c-0.31-2.23,0.6-10.5,1.46-11.23c-0.16,3.58-0.32,7.16-0.5,11.19c1.37-0.59,2.47-1.06,3.56-1.53
	L267.92,220.72z M125.25,203.07c0.15,0.06,0.3,0.11,0.45,0.17c-0.15,1.97-1.88,3.6-1,5.89c0.88,2.28,3.02,2.68,4.76,4.14
	c0.92-1.55,1.8-3.03,2.83-4.75c1.38,1.17,1.45,3.51,2.91,3.52c1.92-0.8,3.29-1.37,4.83-2.01c0.2,1.23,0.33,2.08,0.48,3.01
	c2.61-0.58,4.64-1.9,6.43-3.57c2.17-2.03,4.23-4.19,6.42-6.21c2.51-2.31,4.14-4.94,3.65-8.52c-0.06-0.44,0.1-0.9,0.21-1.7
	c0.4,0.5,0.58,0.62,0.6,0.76c0.47,3.29-0.07,6.33-2.48,8.79c-2.64,2.68-5.18,5.48-8.04,7.91c-2.13,1.8-4.35,3.73-7.44,3.88
	c-0.37,0.02-0.74,0.53-1.08,0.85c-0.51,0.47-0.99,0.97-1.47,1.47c-0.35,0.37-0.67,0.76-1.14,1.29c0.69,0.5,1.16,0.97,1.73,1.21
	c1.07,0.46,2.2,0.79,3.67,1.3c0.95-1.37,1.86-3.36,3.35-4.7c3.19-2.87,5.54-6.53,9.11-9.08c1.86-1.33,3.18-3.54,4.43-5.55
	c2.29-3.68,4.03-7.58,3.6-12.12c-0.19-1.96-0.25-3.95-0.19-5.92c0.16-4.86-0.38-9.67-1.69-14.31c-0.7-2.45-1.83-4.98-4.84-5.69
	c-0.21-0.05-0.42-0.24-0.56-0.42c-2.16-2.68-4.99-4.37-8.15-5.63c-1.53-0.61-4.05-0.41-5.07,0.53c-1.93,1.76-2.26,4.4-3.64,6.47
	c-0.12,0.17-0.03,0.47-0.09,0.7c-0.21,0.81-0.44,1.62-0.73,2.65c-0.6-0.52-1.03-0.72-1.19-1.06c-0.8-1.73-1.65-3.45-2.22-5.25
	c-0.28-0.89-0.65-1.36-1.5-1.49c-1.84-0.29-3.53-0.19-5.24,0.9c-2.31,1.46-4.96,2.37-7.24,3.86c-1.26,0.82-2.41,2.21-2.99,3.6
	c-0.77,1.84-0.74,4-1.41,5.9c-1.98,5.57-2.5,11.2-0.99,16.92c0.91,3.45,2.17,6.82,3.21,10.24c0.17,0.55,0.02,1.2,0.02,1.8
	c0.84,2.03,2,4.04,3.23,6.01c0.92,1.46,1.77,3.01,2.93,4.27c1.42,1.54,3.07,2.85,3.18,5.12c2.14-0.39,2.49-0.87,1.77-2.47
	c-0.6-1.34-1.17-2.72-2.59-3.53c-0.59-0.34-1.11-0.96-1.42-1.57c-1.92-3.71-3.63-7.51-4.31-11.68c-0.08-0.51-0.11-1.12,0.09-1.58
	c0.96-2.24,1.99-4.46,3.05-6.65c0.14-0.29,0.6-0.43,0.91-0.64c0.1,0.11,0.21,0.22,0.31,0.32c-0.98,2.17-1.92,4.37-2.95,6.52
	c-0.98,2.04,0.26,3.82,0.51,5.71c1.12,0.1,0.56,0.92,0.66,1.48c0.16,0.9,0.39,1.79,0.65,2.96
	C124.22,205.48,124.74,204.28,125.25,203.07z M91.79,44.97c2.39,0.19,4.76,0.4,7.14,0.57c1.64,0.12,3.33-0.07,4.68,1.23
	c0.37,0.36,0.92,0.58,1.43,0.73c3.75,1.06,7.31,2.57,10.44,4.68c0.54-0.2,0.93-0.47,1.31-0.46c1.68,0.01,2.47-1.09,3.34-2.29
	c1.39-1.93,2.84-3.85,4.45-5.6c3.03-3.3,6.27-6.42,9.28-9.74c2.17-2.39,4.1-5.01,6.19-7.47c2.94-3.45,5.8-7.02,10.43-8.65
	c-9.94-6.8-20.43-12.11-31.97-14.34c-0.45,0.55-1.07,0.91-1.63,1.33c-1.96,1.48-3.98,2.89-5.83,4.49
	c-5.89,5.07-11.68,10.27-17.58,15.32c-3.15,2.7-6.07,5.56-8.49,8.97s-5.12,6.63-7.66,9.95c-0.95,1.24-1.81,2.56-2.72,3.85
	c0.35,0.23,0.44,0.33,0.54,0.35c3.12,0.34,6.25,0.63,9.37,1.02c1.79,0.22,3.33,0.03,4.59-1.47C89.88,46.5,90.91,45.76,91.79,44.97z
	 M139.21,220.73c-0.18,0.2-0.41,0.38-0.56,0.61c-3.23,4.89-4.58,10.5-6.01,16.06c-0.12,0.45,0.18,1.24,0.55,1.55
	c3.41,2.9,6.84,5.76,10.33,8.56c3.26,2.62,6.64,5.09,9.89,7.72c2.69,2.17,5.27,4.49,7.92,6.72c0.43,0.36,0.95,0.62,1.62,1.05
	c0.6-5.57,2.06-10.67,3.6-15.77c2.53-8.35,5.06-16.69,8.68-24.65c0.17-0.37,0.06-0.93-0.07-1.36c-0.84-2.62-1.65-5.25-2.6-7.82
	c-3.08-8.29-6.23-16.57-9.32-24.78c-0.02,0.23-0.02,0.57-0.07,0.9c-0.32,2.29-0.45,4.62-1.03,6.84c-0.74,2.85-2.23,5.36-4.13,7.67
	c-1.28,1.56-2.28,3.29-3.98,4.54c-1.86,1.36-3.94,2.64-4.59,5.14c-0.05,0.19-0.33,0.35-0.53,0.45c-2.17,1.03-3.71,2.65-4.74,4.81
	c-0.25,0.52-0.74,0.93-1.14,1.37C141.28,222.24,141.28,222.24,139.21,220.73z M188.31,200.36c-0.51,0.14-0.83,0.3-1.17,0.32
	c-2.04,0.11-3.51,1.25-4.52,2.85c-1.02,1.61-1.63,3.3-1.7,5.41c-0.05,1.68-0.34,3.35-0.12,5.08c0.16,1.27,0.03,2.57,0.04,3.86
	c0,1.25-0.32,2.62,0.07,3.74c1.33,3.77,2.12,7.81,5.81,10.37c3.21,2.23,6.55,3.77,10.66,3.77c-0.54-1.28-1.02-2.43-1.51-3.58
	c-1.04-2.46-1.04-2.46-0.64-3.53c0.89,2.05,1.77,3.92,2.51,5.85c0.44,1.16,1.09,1.85,2.56,1.83c-0.68-1.82-1.34-3.57-1.99-5.33
	c0.22-0.08,0.44-0.17,0.66-0.25c0.65,1.55,1.43,3.07,1.91,4.67c0.31,1.05,0.71,1.36,1.74,1.01c-0.61-1.54-1.19-3.01-1.77-4.47
	c2.09,0.99,1.61,3.62,3.53,4.63c-0.13-0.84-0.47-1.57-0.72-2.33c-0.23-0.68-0.99-1.36-0.19-2.21c1.05,1.51,1.19,3.41,2.5,4.6
	c0.13-0.06,0.27-0.12,0.4-0.19c-0.41-1.02-0.82-2.04-1.23-3.07c0.14-0.06,0.28-0.12,0.42-0.18c0.61,0.87,1.18,1.77,1.83,2.6
	c0.32,0.41,0.74,0.83,1.21,1.01c1.78,0.67,3.59,1.24,5.39,1.87c1.07,0.37,2.1,0.87,3.19,1.14c0.39,0.1,1.12-0.18,1.31-0.5
	c1.82-3.18,2.98-6.6,3.52-10.24c0.14-0.92-0.09-1.47-0.99-1.73c-0.07-0.02-0.08-0.2-0.16-0.39c0.42-0.1,0.84-0.2,1.44-0.34
	c-0.2-3.03-0.28-5.96-0.65-8.86c-0.14-1.05,0.05-2.57-1.62-3c-0.21-0.05-0.24-0.96-0.28-1.48c-0.06-0.81,0.19-1.75-0.14-2.42
	c-1.02-2.07-2.03-4.2-3.46-5.98c-1.24-1.55-3.17-2.53-4.57-3.98c-3.43-3.55-7.58-5.93-12.09-7.72c-1.98-0.79-4.05-1.45-6.26-1.06
	c-0.7,0.12-1.59,0.07-2.05,0.48C188.98,194.6,187.52,196.98,188.31,200.36z M120.61,51.78c-0.11,0.23-0.22,0.47-0.33,0.7
	c0.8,0.61,1.55,1.27,2.39,1.81c2.72,1.73,5.33,3.74,8.24,5.04c5.94,2.65,12.1,4.79,18.07,7.37c5.01,2.16,10.36,2.81,15.57,4.08
	c1.06,0.26,1.74,0.01,2.42-0.93c2.51-3.48,5.12-6.88,7.7-10.32c2.68-3.57,5.88-6.75,7.95-10.79c1.17-2.28,2.55-4.45,3.87-6.64
	c0.44-0.73,1.02-1.39,1.52-2.07c-2.53,0-4.95-0.24-7.3,0.04c-7.53,0.91-15.05,1.97-22.56,3.04c-4.26,0.6-8.51,1.31-12.75,2.01
	c-3.3,0.55-6.66,0.91-9.87,1.81C130.5,48.35,125.58,50.14,120.61,51.78z M107.52,73.04c3.19,2.39,4.96,5.8,5.89,9.65
	c0.28,1.15,0.8,1.77,1.72,2.3c2.24,1.27,4.4,2.67,6.69,3.82c3.72,1.87,7.51,3.6,11.29,5.35c0.37,0.17,0.95,0.23,1.3,0.06
	c1.77-0.85,3.55-1.7,5.22-2.73c4-2.48,8.01-4.95,11.87-7.63c3.57-2.48,7-5.15,10.37-7.88c1.34-1.09,2.34-2.59,3.6-4.02
	c-3.82-0.79-7.35-1.24-10.7-2.26c-8.42-2.55-16.56-5.89-24.48-9.67c-3.3-1.57-6.38-3.77-9.18-6.13c-1.63-1.37-2.92-1.72-4.89-0.92
	c1.42,2.16,2.67,4.32,4.19,6.27c0.62,0.8,0.85,1.42,0.72,2.39c-0.16,1.22-0.03,2.48-0.12,3.71c-0.04,0.62-0.15,1.31-0.46,1.82
	c-1.21,1.98-3.13,3.1-5.27,3.77C112.74,71.72,110.15,72.34,107.52,73.04z M118.8,106.92c0.11-0.18,0.23-0.37,0.34-0.55
	c1.07,0.66,2.43,1.09,3.15,2.02c2.2,2.83,4.33,5.75,6.17,8.82c2.76,4.62,5.32,9.36,7.84,14.12c0.75,1.42,1.68,1.92,3.25,1.93
	c4.01,0.02,8.03,0.1,12.04,0.38c3.76,0.26,7.51,0.73,11.24,1.28c2.48,0.36,4.94,0.91,7.35,1.57c1.89,0.52,3.7,1.34,5.87,2.15
	c-3.49-3.74-6.81-7.18-9.99-10.73c-3.72-4.15-8.19-7.19-13.13-9.67c-2.5-1.25-4.82-2.85-7.24-4.27c-1.49-0.88-2.91-1.93-4.5-2.57
	c-4.97-2-10.14-3.5-14.73-6.41c-1.43-0.91-3.03-1.73-4.66-2.12c-1.55-0.37-3.28-0.33-4.87-0.08c-2.14,0.33-4.22,1.04-6.45,1.62
	c0.63,0.84,1.13,1.51,1.64,2.16c1.77,2.27,2.38,4.62,0.65,7.23c-0.55,0.83-0.91,1.78-1.4,2.77c1.46,0.65,2.92,1.08,4.13,1.88
	c1.67,1.11,3.12,2.56,4.74,3.76c2.65,1.97,3.42,4.51,2.9,7.73c-0.31,1.91-0.13,3.92,0.02,5.87c0.08,1.03,0.06,1.88-0.7,2.64
	c-0.32,0.32-0.54,0.74-1.04,1.43c1.75,0.9,3.34,1.72,4.93,2.53c0.51-0.79,0.81-1.31,1.16-1.78c2.15-2.87,4.26-5.77,6.49-8.57
	c0.72-0.91,0.78-1.58,0.15-2.53c-3.73-5.7-6.16-12.16-10.48-17.53C122.17,110.17,121.2,107.9,118.8,106.92z M73.81,81.51
	c0.15,0,0.31,0,0.46-0.01c0.22-4.14,3.12-6.84,5.21-9.96c0.59-0.89,1.39-1.73,2.73-1.5c-1.11,1.57-1.93,3.3-3.25,4.48
	c-2.08,1.86-2.76,4.25-3.48,6.72c-0.18,0.61-0.6,1.16-0.91,1.73c-0.74-0.44-1.5-0.83-2.19-1.33c-0.25-0.18-0.25-0.66-0.44-0.97
	c-1.07-1.75-2.28-3.33-4.8-3.33c-0.54,1.67-1.13,3.28-1.56,4.94c-0.18,0.68-0.13,1.5,0.05,2.19c0.53,2.01,1.38,3.95,1.75,5.98
	c0.65,3.58,1.34,7.1,2.96,10.43c1.22,2.51,2.8,4.85,5.25,5.92c4.43,1.94,9.19,2.98,14.03,3.43c0.77,0.07,1.91-0.11,2.31-0.62
	c1.64-2.08,3.13-4.3,4.55-6.54c1.09-1.72,0.94-3.78,1.29-5.7c0.56-3.09,0.23-5.93-1.49-8.57c-2.67-4.1-5.28-8.24-8.08-12.26
	c-0.89-1.29-2.25-2.26-3.44-3.33c-0.75-0.67-1.57-1.26-2.36-1.88c0.1-0.14,0.21-0.28,0.31-0.42c2.1,0.86,3.89,2.21,5.67,4.14
	c-0.61-2.27-0.96-4.38-2.64-5.68c-1.77-1.36-3.79-2.4-5.85-3.67c-0.45,0.72-0.89,1.41-1.41,2.23c-0.75-0.88-1.11-1.62,0.34-2.26
	c-1.95-3.42-4.67-5.51-8.56-6.03c-0.36,2.05-0.7,3.93-1.03,5.81c-0.72,4.11-2.39,7.72-5.59,10.52c-0.3,0.27-0.77,0.53-0.83,0.86
	c-0.45,2.34-0.87,4.71,1,6.47c0.78-2.02,1.6-4.12,2.39-6.23c0.31-0.82,0.87-1.17,1.67-0.88c2.03,0.73,4.04,1.51,5.06,3.66
	C73.2,80.4,73.52,80.95,73.81,81.51z M248.53,239.93c0.21,0.01,0.43,0.03,0.64,0.04c0,2.25-0.03,4.51,0.03,6.76
	c0.01,0.52,0.2,1.26,0.56,1.49c1.2,0.74,4.09,0.25,4.95-0.93c1.03-1.41,1.78-3.01,2.68-4.51c0.72-1.2,1.17-2.42,1.14-3.87
	c-0.02-1.18,0.18-2.38,0.47-3.53c0.84-3.42,0.61-6.66-1.54-9.56c-2.42-3.27-5.2-6.29-6.58-10.25c-0.27-0.77-0.92-1.39-1.95-1.73
	c-0.66-0.21-0.71-1.89-1.41-2.44c-3.03-2.4-6.15-4.69-9.34-6.89c-0.76-0.52-1.88-0.52-3.05-0.82c0.31,4.47,3.3,7.78,3.92,12.38
	c-5.57-3.52-11.27-3.83-17.24-2.73c0.39,2.16,0.88,4.14,1.09,6.15c0.26,2.56,0.42,5.1,2.23,7.16c0.37,0.42,0.58,0.99,0.94,1.62
	c-1.15,0.08-2.08,0.14-2.86,0.19c-0.32,1.59-0.64,3.04-0.88,4.51c-0.08,0.48-0.13,1.13,0.13,1.46c0.67,0.86,1.52,1.58,2.44,2.5
	c0.45-1.98,0.87-3.65,1.2-5.34c0.32-1.62,0.74-3.26,0.74-4.89c0-2.03,0.11-4.02,0.72-4.81c0.11,1.67,0.49,3.38,0.28,5.02
	c-0.33,2.53-0.97,5.04-1.63,7.51c-0.62,2.36-0.71,4.52,1.25,6.33c0.08,0.08,0.2,0.12,0.35,0.21c0.11-0.33,0.24-0.65,0.32-0.98
	c1.15-4.89,2.39-9.76,1.97-14.86c-0.08-0.91,0.24-1.85,0.37-2.78c0.13,0.02,0.25,0.05,0.38,0.07c0,1.13-0.01,2.25,0,3.38
	c0.02,1.09-0.33,2.26,0.66,3.16c0.06,0.05-0.1,0.32-0.14,0.5c-0.8,3.8-1.49,7.63-2.45,11.39c-0.42,1.65,0.4,2.24,1.6,3.05
	c0.16-0.6,0.3-1.04,0.39-1.48c0.38-1.81,0.72-3.63,1.13-5.43c0.41-1.8,0.52-3.45-0.04-5.37c-0.55-1.85-0.02-4.02,0.1-6.05
	c0.02-0.35,0.34-0.69,0.52-1.03c0.06,0.05,0.12,0.1,0.18,0.15c0,2.37,0,4.74,0,7.32c0.38-0.72,0.64-1.23,0.91-1.73
	c0.16,0.06,0.33,0.12,0.49,0.19c-0.85,4.61-1.7,9.22-2.58,13.97c0.41,0.24,0.91,0.52,1.69,0.98c0.4-1.67,0.8-3.14,1.09-4.64
	c0.29-1.52,0.55-3.05,0.69-4.59c0.14-1.57,0.08-3.16,0.17-4.74c0.08-1.43,0.24-2.86,0.36-4.29c0.13,0.02,0.25,0.04,0.38,0.06
	c0.16,2.5,0.63,5.03,0.4,7.49c-0.31,3.32-1.16,6.58-1.77,9.87c-0.08,0.44-0.13,0.89-0.21,1.41c2.39,0.63,4.61,1.38,6.89,1.78
	c2.28,0.39,4.62,0.43,6.85,0.62C248.27,245.45,247.67,242.64,248.53,239.93z M47.55,80.36c-0.34,2.41-0.69,4.69-0.96,6.97
	c-0.05,0.43,0.12,0.97,0.37,1.34c0.65,1,1.28,2.05,2.11,2.89c2.69,2.73,5.44,5.39,8.2,8.04c1.59,1.53,3.18,3.07,4.88,4.47
	c2.89,2.39,5.95,4.59,8.78,7.06c1.51,1.32,3.2,2.83,3.86,4.61c1,2.69,1.5,5.68,1.63,8.56c0.15,3.44-0.12,6.86,1.64,10.04
	c0.24,0.44-0.13,1.33-0.41,1.92c-0.43,0.9-1.03,1.72-1.56,2.58c-1.25,2.03-2.52,4.04-3.74,6.09c-0.54,0.91-0.98,1.87-1.47,2.81
	c0.17,0.1,0.34,0.2,0.51,0.3c1.4-1.95,2.81-3.9,4.03-5.6c4.46,1.07,6.86,4.22,9.19,7.37c2.43-2.29,4.75-4.48,7.01-6.61
	c-1.6-3.25-3.3-6.71-5.01-10.16c-0.09,0.03-0.18,0.07-0.28,0.1c0,0.85,0,1.69,0,2.75c-1.23-0.65-1.28-1.79-0.85-2.38
	c1.05-1.42,0.07-2.32-0.47-3.38c-1.09-2.11-2.39-4.09-2.63-6.59c-0.26-2.69,0.43-5.61-1.69-8.01c0.52,0.12,0.85,0.31,1.1,0.58
	c1.07,1.18,1.21,2.68,1.39,4.17c0.23,1.82,0.27,3.7,0.81,5.42c0.51,1.63,1.57,3.08,2.14,4.14c0.24-1.31,0.38-3.08,0.93-4.71
	c0.45-1.34,1.35-1.51,2.71-0.99c0.14-0.24,0.37-0.48,0.42-0.75c0.32-1.82,1.33-3.01,3.09-3.58c0.27-0.09,0.44-0.43,0.7-0.55
	c3.29-1.49,6.08-4.12,9.91-4.42c0.35-0.03,0.68-0.27,1.02-0.41c-0.01-0.17-0.02-0.34-0.03-0.5c-3.8-0.93-7.84,0.5-11.64-0.96
	c1.03-0.38,2.07-0.58,3.12-0.59c1.53-0.01,3.07,0.1,4.6,0.2c1.24,0.08,2.5,0.12,3.7,0.4c0.53,0.12,0.99,1.18,1.39,1.13
	c1.79-0.23,2.68,1.45,4.17,1.76c3.27-4.31,3.27-6.36-0.01-10.43c-0.11-0.14-0.19-0.34-0.34-0.41c-0.3-0.16-0.65-0.37-0.95-0.35
	c-1.66,0.15-3.33,0.33-4.98,0.55c-1.72,0.23-3.45,0.8-5.14,0.68c-1.92-0.14-3,0.71-3.95,2.09c-0.24,0.34-0.49,0.68-0.7,1.04
	c-1.16,1.98-3,2.59-5.08,2.18c-3.81-0.76-7.59-1.63-11.35-2.63c-1.58-0.42-3.3-0.98-4.49-2.01c-1.49-1.29-2.48-3.15-3.72-4.74
	c-0.3-0.38-0.7-0.72-1.11-0.97c-1.87-1.16-4-2.02-5.62-3.46c-5.14-4.54-9.44-9.79-12.21-16.16c-0.18-0.41-0.83-0.74-1.32-0.85
	C48.65,80.25,47.98,80.36,47.55,80.36z M97.19,163.81c0.31,0.34,0.62,0.68,1.05,1.13c0-1.55,0.09-2.97-0.02-4.37
	c-0.25-3.27-0.55-6.54-0.93-9.79c-0.13-1.15-0.28-2.47-0.93-3.34c-0.94-1.26-2.34-2.18-3.58-3.27c-3.58,1.35-5.34,4.83-8.3,7.07
	c-2.34-3.27-4.62-6.52-8.88-7.64c-0.33,0.42-0.76,0.91-1.12,1.44c-0.6,0.89-1.08,1.88-1.75,2.71c-0.66,0.83-1.76,1.39-2.22,2.29
	c-1.38,2.73-2.7,5.53-1.84,8.74c0.42-0.17,0.92-0.36,1.62-0.64c-0.58,1.19-0.99,2.02-1.4,2.85c0.1,0.06,0.2,0.11,0.31,0.17
	c0.38-0.51,0.76-1.03,1.14-1.54c0.11,0.06,0.22,0.12,0.33,0.18c-0.41,1.23-0.82,2.45-1.23,3.68c0.07,0.01,0.13,0.03,0.2,0.04
	c0.36-0.4,0.72-0.8,1.08-1.2c0.11,0.06,0.22,0.13,0.33,0.19c-0.6,1.61-1.62,3.15-0.91,5.06c0.52-0.81,1.01-1.57,1.49-2.32
	c0.14,0.08,0.28,0.16,0.41,0.24c-0.17,0.41-0.39,0.81-0.51,1.24c-0.3,1.02-0.84,2.08-0.75,3.07c0.16,1.75,0.47,3.57,1.16,5.16
	c1.03,2.39,2.44,4.62,3.69,6.91c0.51,0.92,1.05,1.83,1.68,2.92c0.65-0.1,1.47-0.19,2.29-0.36c3.2-0.64,5.72-2.55,8.24-4.45
	c1.28-0.96,2.53-1.97,3.72-3.03c0.77-0.69,0.74-2.11,2.1-2.33c0.11-0.02,0.23-0.52,0.19-0.77c-0.13-0.81-0.38-1.61-0.49-2.43
	c-0.08-0.56-0.02-1.14-0.02-1.71c0.15-0.01,0.29-0.01,0.44-0.02c0.26,0.87,0.52,1.74,0.78,2.61c0.37-0.68,0.47-1.35,0.43-2.01
	c-0.03-0.64-0.2-1.28-0.31-1.92c0.11-0.02,0.22-0.05,0.33-0.07c0.21,0.34,0.43,0.67,0.8,1.25c-0.16-0.99-0.27-1.66-0.38-2.33
	c0.13-0.03,0.26-0.06,0.39-0.09c0.29,0.44,0.57,0.88,0.8,1.22C98.55,167.01,97.17,165.52,97.19,163.81z M47.86,79.24
	c3.87,0,7.51-1.08,11.13-2.29c3.25-1.09,5.44-3.28,6.99-6.28c1.89-3.64,2.38-7.6,2.77-11.58c0.09-0.96-0.18-2.02-0.54-2.94
	c-0.79-2.03-1.75-3.99-2.62-5.98c-1.05-2.39-3.26-2.91-5.26-1.25c-0.31,0.26-0.71,0.42-1.08,0.6c-1.47,0.71-1.66,0.61-1.94-0.97
	c-0.37-2.13-1.78-3.41-3.92-3.43c-0.95-0.01-1.89,0.17-2.84,0.29c-3.27,0.42-5.98,2.22-8.72,3.78c-1.28,0.73-2.39,2.22-2.98,3.62
	c-1,2.34-1.72,4.84-2.2,7.34c-0.84,4.35-0.76,8.7,1.61,12.66c0.88,1.47,2.1,2.74,3.01,4.2c1.28,2.05,2.91,3,5.34,2.23
	C46.99,79.13,47.44,79.24,47.86,79.24z M205.54,179.33c0.08-0.15,0.16-0.3,0.23-0.45c-1.06-0.73-2.03-1.84-3.19-2.13
	c-3.94-0.97-7.83-1.44-11.33,1.64c-1.23,1.08-2.72,2.03-4.86,1.46c-4.57-1.21-8.68-3.33-12.81-5.48c-4.27-2.23-8.53-4.47-12.62-6.62
	c0.46,2.14,1.19,4.38,1.36,6.66c0.14,1.84,1.01,2.52,2.51,3.18c5.39,2.38,10.83,4.69,15.75,8.01c0.36,0.24,0.69,0.66,0.84,1.06
	c0.23,0.63,0.29,1.32,0.41,1.99c0.12,0.7,0.4,1.42,0.3,2.09c-0.38,2.66-0.78,5.33-1.37,7.94c-0.36,1.6-1.22,3.09-1.64,4.68
	c-0.5,1.88-1.19,3.84-1.07,5.72c0.19,2.9,0.99,5.75,1.59,8.94c0.5-1.38,0.53-2.56,0.27-3.78c-0.82-3.85-0.2-7.5,1.7-10.91
	c1.2-2.17,2.99-3.63,5.68-4.04c-0.35-3.62,1.8-6.05,3.94-8.33c2.76,0,5.5-0.15,8.05,1.08c2.4,1.16,4.83,2.28,7.62,3.59
	c-1.64-1.52-2.98-2.76-4.31-4.01c-1.4-1.3-3.03-2.04-4.94-2.24c-1.66-0.17-3.3-0.49-4.96-0.71c-0.76-0.1-1.19-0.41-1.08-1.26
	c0.9,0.08,1.73,0.06,2.51,0.23c2.33,0.52,4.94,0.62,6.89,1.8c2.71,1.64,4.98,4.04,7.33,6.23c2.13,1.98,4.09,4.15,6.19,6.17
	c1.19,1.15,2.49,2.19,3.85,3.37c1.25-0.41,2.67-0.88,4.28-1.41c-0.67,2.13-2.74,1.62-3.8,2.33c0.94,2.14,1.82,4.13,2.78,6.31
	c5.1-1.01,10.43-1.07,15.71,1.28c-0.21-0.53-0.38-0.96-0.56-1.39c-1.09-2.71-2.49-5.27-2.97-8.23c-0.18-1.11-0.13-1.66,0.79-1.85
	c3.39,0.35,6,2.25,8.61,4.18c-0.23-0.59-0.84-0.98-0.86-1.4c-0.1-1.61-1.51-2.31-2.3-3.38c-1.21-1.62-3.1-2.28-5.09-2.72
	c-2.31-0.52-4.56-1.3-7.03-2.02c0.29,1.25,1.62,1.85,0.88,2.74c-1.43-1.52-2.75-3.07-4.22-4.46c-2.62-2.47-6.15-2.72-9.41-3.6
	c-0.8-0.21-1.67-0.41-2.46-0.3c-1.5,0.21-2.39-0.55-3.44-1.43c-1.5-1.25-3.07-2.69-4.86-3.25c-4.27-1.34-8.51-2.91-13.09-3.05
	c-0.93-0.03-2-0.55-1.87-1.97c1.81-1.04,3.59-2.12,5.42-3.1c2.97-1.58,5.97-1.9,8.95,0.04
	C204.34,178.88,204.96,179.07,205.54,179.33z M151.04,18.32c-0.35,0.29-0.7,0.74-1.16,0.93c-2.7,1.17-4.83,3.08-6.71,5.24
	c-3.77,4.33-7.37,8.8-11.17,13.09c-2.38,2.68-5.06,5.08-7.48,7.74c-1.45,1.6-2.65,3.43-3.96,5.16c0.1,0.11,0.19,0.22,0.29,0.33
	c1.27-0.45,2.58-0.79,3.79-1.37c3.69-1.78,7.59-2.9,11.59-3.68c3.4-0.66,6.81-1.23,10.23-1.83c3.47-0.6,6.93-1.24,10.41-1.75
	c3.66-0.54,7.38-0.81,11.01-1.48c5.72-1.06,11.45-1.85,17.29-1.62c1.09,0.04,2.2-0.11,3.29-0.17c-0.34-0.49-0.72-0.75-1.13-0.93
	c-2.56-1.14-5.18-2.15-7.67-3.42c-4.3-2.19-8.52-4.54-12.78-6.82c-1.94-1.04-3.95-1.98-5.83-3.12
	C157.67,22.58,154.37,20.43,151.04,18.32z M117.94,163.15c-1.87-0.23-3.47-0.58-4.82-1.74c-0.66-0.57-1.13-0.47-1.54,0.34
	c-1.26,2.51-2.83,4.9-3.77,7.52c-2.05,5.67-3.88,11.43-5.58,17.22c-0.57,1.95-0.94,4.18-0.6,6.15c0.79,4.68,2.78,9.05,5.09,13.15
	c2.92,5.18,6.07,10.27,9.53,15.11c2.83,3.96,6.21,7.54,9.45,11.2c1.68,1.9,3.58,3.61,5.56,5.59c1.62-6.32,3.27-12.16,6.57-17.56
	c-1.65-0.1-1.86-1.7-2.72-2.2c-1.61-0.95-0.84-2.12-0.88-3.23c-0.02-0.47,0.19-0.97,0.1-1.42c-0.08-0.4-0.42-0.74-0.64-1.11
	c-0.31,1.29-0.27,2.43-0.31,3.56c-0.07,1.77-0.7,2.49-2.39,2.29c-0.9-0.11-1.42,0.3-2.1,0.61c-0.86,0.4-1.8,0.61-2.96,0.99
	c-0.08-2.77-1.43-4.36-3.23-5.68c-0.27-0.2-0.46-0.53-0.64-0.83c-1.7-2.81-3.44-5.59-5.04-8.45c-0.44-0.78-0.47-1.8-0.64-2.72
	c-0.08-0.4,0.04-0.84-0.07-1.23c-0.62-2.17-1.21-4.36-1.96-6.48c-1.63-4.63-2.59-9.37-1.78-14.26c0.45-2.69,1.41-5.3,2.07-7.96
	c0.28-1.14,0.73-2.4,0.51-3.48c-0.49-2.41-0.24-3.4,1.87-4.64C117.34,163.67,117.63,163.39,117.94,163.15z M187.09,288.69
	c0.15-1.48,0.2-2.66,0.4-3.81c0.82-4.59,0.71-9.23,0.01-13.77c-0.96-6.25-2.23-12.48-3.71-18.63c-1.97-8.14-4.26-16.21-6.45-24.3
	c-0.4-1.47-0.94-2.89-1.42-4.34c-0.14-0.02-0.27-0.03-0.41-0.05c-1.21,3.28-2.55,6.53-3.62,9.86c-1.7,5.29-3.32,10.62-4.78,15.98
	c-1.07,3.92-1.87,7.91-2.75,11.88c-0.31,1.4-0.22,2.59,1.24,3.54c3.1,2.02,5.89,4.44,8.28,7.3c3.5,4.17,7.11,8.24,10.6,12.41
	C185.42,285.9,186.12,287.22,187.09,288.69z M32.1,141.33c0.08,0.09,0.15,0.18,0.23,0.28c0.57-0.25,1.12-0.53,1.71-0.74
	c4.03-1.46,7.97-3.41,12.13-4.22c5.25-1.03,10.69-1.1,16.04-1.64c0.65-0.07,1.42-0.3,1.88-0.73c3.71-3.52,7.36-7.1,11-10.67
	c0.22-0.22,0.4-0.59,0.41-0.9c0.06-3.06-0.63-3.93-3.67-4.65c-0.52-0.12-1.06-0.17-1.6-0.21c-5.78-0.4-11.49,0.21-17.1,1.53
	c-9.14,2.15-8.76,2.1-13.42,8.33c-2.13,2.84-3.65,6.14-5.39,9.26C33.52,138.38,32.84,139.87,32.1,141.33z M30.73,63.8
	c0.2,1.04,0.22,1.9,0.54,2.61c0.67,1.46,1.5,2.83,2.26,4.24c0.17,0.31,0.31,0.9,0.46,0.9c1.24-0.02,0.75,0.84,0.67,1.36
	c-0.03,0.22-0.69,0.57-0.75,0.52c-0.35-0.33-0.69-0.72-0.9-1.16c-1.12-2.26-2.2-4.55-3.47-7.19c-1.01,1.07-1.78,1.74-2.37,2.54
	c-2.06,2.82-3.54,5.95-4.71,9.21c-0.53,1.48-0.89,3.18-0.71,4.71c0.28,2.47,0.95,4.92,1.67,7.32c0.87,2.89,2.26,5.52,4.78,7.37
	c0.32,0.23,0.71,0.48,1.08,0.5c1.61,0.09,3.22,0.08,4.84,0.14c2.09,0.08,3.87-0.6,5.29-2.13c1.17-1.27,2.27-2.59,3.41-3.89
	c2.62-2.95,3.5-6.38,2.82-10.35c-1.99,0.46-3.34-0.4-4.32-2.05c-0.18-0.3-0.46-0.55-0.71-0.8c-4.22-4.08-5.85-9.15-5.64-14.9
	c0.04-1.12,0.34-2.23,0.49-3.1c-1.06,0.28-2.03,0.58-3.02,0.79c-2.36,0.48-3.94,1.74-4.16,4.45C29.23,64.49,30.08,64.1,30.73,63.8z
	 M101.64,54.46c-0.62,0-1.13,0-1.63,0c-2.52,0.01-5.01,0.19-7.31,1.32c-0.47,0.23-1.12,0.78-1.12,1.19
	c-0.03,1.32-0.5,2.73,0.33,3.96c1.79,2.66,3.55,5.34,5.45,7.92c0.43,0.58,1.3,0.95,2.05,1.15c1.61,0.43,3.33,0.5,4.88,1.06
	c4.32,1.56,8.11-0.27,11.94-1.69c1.07-0.39,2.01-1.27,2.87-2.07c0.65-0.6,1.05-1.36,0.62-2.41c-0.46-1.12-0.66-2.35-1.02-3.74
	c-0.14,0.68-0.24,1.15-0.37,1.79c-0.9-1.97-0.81-2.75,0.46-3.59c0.35,0.99,0.69,1.93,1.06,2.96c0.39-0.87,0.68-1.55-0.03-2.38
	c-0.77-0.89-1.36-1.94-2-2.93c-1.53-2.36-3.03-4.73-5.85-5.81c-3.32-1.27-6.6-2.63-9.94-3.85c-0.61-0.22-1.44-0.06-2.11,0.11
	c-1.28,0.32-1.83,1.38-1.93,3.05c-0.07,1.28,0.75,1.61,1.7,1.92C100.59,52.72,101.41,53.14,101.64,54.46z M181.13,226.58
	c-0.06-2.3-1.43-4.13-1.77-6.32c-0.13-0.82-0.91-1.54-1.04-2.36c-0.42-2.52-0.56-5.08-1.03-7.59c-0.54-2.91-0.01-5.55,1.28-8.14
	c0.55-1.11,1.05-2.27,1.33-3.47c0.48-2.03,0.79-4.1,1.15-6.16c0.68-3.82,0.01-5.62-3.35-7.54c-3.62-2.07-7.37-3.9-11.08-5.79
	c-1.19-0.6-2.45-1.06-3.82-1.64c0.12,1.76,0.25,3.31,0.32,4.86c0.04,0.88-0.27,1.85-0.01,2.64c1.37,4.08,2.84,8.12,4.33,12.16
	c3.08,8.36,6.18,16.72,9.29,25.07c0.2,0.53,0.52,1.09,0.93,1.46C178.78,224.76,179.98,225.65,181.13,226.58z M26.1,159.04
	c0.65-0.13,0.84-0.13,1-0.21c7.02-3.14,13.92-6.55,21.52-8.17c0.42-0.09,0.85-0.39,1.15-0.71c4.08-4.46,8.13-8.93,12.18-13.41
	c0.14-0.15,0.22-0.35,0.56-0.89c-4.81,0.5-9.26,0.94-13.7,1.43c-1.07,0.12-2.17,0.23-3.17,0.59c-3.98,1.43-7.93,2.97-11.9,4.44
	c-1.91,0.71-3.21,1.95-3.79,3.94C28.72,150.28,27.45,154.49,26.1,159.04z M97.7,104.66c0.21,0,0.69,0.06,1.15-0.01
	c3.31-0.47,6.63-0.88,9.92-1.47c5.75-1.04,11.47-2.31,16.92-4.47c2.38-0.94,4.62-2.21,6.82-3.27c-6.35-3.34-12.49-6.56-18.68-9.81
	c-0.1,0.46-0.16,1-0.33,1.5c-0.35,1.07-0.48,2.36-1.18,3.13c-2.12,2.38-4.81,3.69-8.13,3.32c-1.53-0.17-3.07-0.28-4.47-0.41
	C99.04,97.06,98.37,100.85,97.7,104.66z M59.69,140.24c-2.3,2.59-4.46,5.32-6.93,7.74c-2.24,2.2-2.95,4.93-3.64,7.78
	c-1.16,4.76-2.41,9.49-3.64,14.23c-0.13,0.51-0.44,0.98-0.69,1.45c-1,1.87-2,3.73-3.15,5.86c1.83-0.89,3.47-1.67,5.09-2.48
	c0.19-0.09,0.36-0.33,0.43-0.53c0.85-2.6,1.75-5.19,2.5-7.82c1.85-6.44,3.62-12.89,5.44-19.34c0.1-0.36,0.32-0.69,0.49-1.03
	c0.2,0.06,0.4,0.12,0.6,0.18c-0.46,2.26-1.56,4.37-2.09,6.61c-0.55,2.32-1.2,4.63-1.79,6.94c-0.61,2.37-1.14,4.76-1.82,7.11
	c-0.68,2.32-1.5,4.59-2.27,6.94c3.04-1.24,6.06-2.45,9.05-3.71c0.27-0.11,0.42-0.53,0.59-0.82c1.95-3.49,3.1-7.29,3.78-11.16
	c1.06-6.07,1.78-12.2,2.57-18.31c0.16-1.25,0.02-2.55,0.02-3.82c-0.17-0.05-0.33-0.11-0.5-0.16c-0.56,1.68-2.49,2.06-2.84,4.27
	c-0.66,4.29-2.05,8.46-3.03,12.71c-1.2,5.18-2.29,10.38-3.47,15.56c-0.24,1.04-0.68,2.03-1.02,3.05c-0.18-0.06-0.36-0.12-0.54-0.17
	C54.41,160.8,57.76,150.67,59.69,140.24z M157.59,163.49c-0.07-2.37-0.67-3.92-2.45-4.88c-0.73-0.39-1.41-0.88-2.07-1.38
	c-1.39-1.04-4.44-2.44-6.43-2.92c-0.21-0.05-0.45-0.21-0.56-0.4c-1.55-2.5-4.07-3.58-6.69-4.39c-2.43-0.75-5.04-0.99-6.93-2.99
	c-0.6-0.64-1.25-1.31-2.02-1.68c-1.77-0.84-3.66-1.42-5.44-2.24c-1.34-0.62-2.58-1.44-3.87-2.16c-0.07-0.04-0.2,0.02-0.32,0.03
	c0.05,0.28,0.1,0.55,0.16,0.89c-1.7,0.36-3.38,0.7-5.05,1.1c-0.25,0.06-0.49,0.34-0.66,0.57c-0.51,0.71-0.98,1.44-1.44,2.14
	c2.51,0.87,4.92,1.72,7.34,2.55c2.6,0.89,3.65,3.42,5.42,5.27c-0.24,0.48-0.5,1.08-0.82,1.65c-1.06,1.86-1.92,3.9-4.3,4.55
	c-0.34,0.09-0.8,0.76-0.74,1.07c0.22,1.08-0.35,1.82-0.87,2.71c2.36-1.07,4.59-2.27,6.79-3.53c1.8-1.04,3.66-1.27,5.69-0.8
	c1.42,0.33,2.05,1.2,2.41,2.53c0.36,1.34,0.94,2.61,1.54,4.22c0.91-2.28,1.64-4.13,2.38-5.98c1.14-2.85,4.89-4.57,7.75-3.49
	c3.37,1.28,6.39,3.1,8.87,5.77C155.84,162.33,156.61,162.76,157.59,163.49z M95.32,84.51c1.15,2.16,2.28,4.32,3.46,6.46
	c0.22,0.39,0.58,0.9,0.95,0.98c2.98,0.67,6,1.25,8.95-0.14c2.19-1.03,3.18-3.05,4.02-5.15c0.41-1.03,0.22-1.95-0.45-2.29
	c0.14-0.77,0.46-1.36,0.3-1.74c-0.96-2.23-1.84-4.53-3.13-6.56c-1.29-2.02-3.23-3.57-5.64-4.15c-1.98-0.48-4.03-0.67-5.87-0.95
	c0.24,2.22,0.48,4.51,0.75,6.8C98.99,80.72,97.54,82.77,95.32,84.51z M99.89,149.49c-0.62,2.68-1.31,4.88-1.15,7.22
	c0.21,3.16,0.56,6.3,0.69,9.46c0.09,2.28-0.26,4.52-1.6,6.51c-0.36,0.53-0.63,1.28-0.58,1.89c0.09,0.95,0.56,1.87,0.75,2.82
	c0.36,1.81,0.58,3.66,0.98,5.46c0.39,1.74,0.92,3.45,1.4,5.17c2.45-9.68,5.71-18.98,10.73-27.44c-0.26-0.35-0.31-0.5-0.4-0.54
	c-4.16-1.76-6.93-4.94-9.1-8.77C101.28,150.71,100.68,150.3,99.89,149.49z M23.22,180.5c8.54-9.76,16.94-19.36,25.34-28.96
	c-0.06-0.11-0.12-0.23-0.18-0.34c-2.64,0.85-5.34,1.55-7.9,2.59c-4.36,1.78-8.61,3.84-12.96,5.64c-1.02,0.42-1.51,0.8-1.66,1.93
	C25.03,167.69,24.12,174.01,23.22,180.5z M94.07,83.27c2.01-0.9,3.49-3.11,3.39-4.96c-0.06-1.14-0.12-2.27-0.24-3.4
	c-0.26-2.51-0.7-5.06-2.24-7.08c-1.57-2.08-2.33-4.76-4.92-6.15c-1.62-0.87-2.89-2.4-4.35-3.59c-0.35-0.29-0.83-0.57-1.26-0.6
	c-2.45-0.12-4.77,0.5-7.4,1.22c1.39,2.72,1.73,5.78,4.99,6.82c0.2,0.06,0.36,0.26,0.54,0.4c0.61,0.49,1.16,1.12,1.85,1.44
	c2.18,0.99,3.78,2.46,4.52,4.77c0.27,0.85,0.51,1.72,0.78,2.58c0.38,1.23,0.59,2.54,1.18,3.66C91.8,80.06,92.96,81.58,94.07,83.27z
	 M68.77,131.22c-0.06-0.1-0.13-0.2-0.19-0.3c-0.22,0.35-0.37,0.8-0.68,1.02c-2.11,1.55-2.95,3.44-2.82,6.2
	c0.14,2.89-0.56,5.82-0.97,8.73c-0.64,4.62-1.19,9.26-2.07,13.84c-0.53,2.77-1.6,5.44-2.51,8.4c1.47-0.84,2.78-1.54,4.01-2.34
	c0.31-0.2,0.46-0.75,0.54-1.16c0.23-1.22,0.18-2.53,0.6-3.67c1.5-4.08,3.15-8.11,4.73-12.16c0.71-1.82,1.18-3.77,2.12-5.46
	c1.04-1.87,1.2-3.78,1.21-5.81c0.02-2.51,0.14-5.03,0.28-7.54c0.08-1.45,0.27-2.9,0.42-4.35c-1.57,1.52-3.23,2.58-3.51,5.15
	c-0.42,3.85-1.36,7.64-1.53,11.55c-0.12,2.75-0.4,5.49-0.68,8.23c-0.07,0.69-0.4,1.34-0.61,2.01c-0.17-0.04-0.34-0.09-0.51-0.13
	C67.33,146.03,68.05,138.62,68.77,131.22z M68.39,99.27c-1.86-2.05-1.57-4.67-2.05-7.08c-0.39-1.97-0.85-3.92-1.28-5.91
	c-0.71,0.24-1.06,0.37-1.26,0.44c-0.72-1.59-1.58-2.99-1.99-4.51c-0.41-1.55-0.39-3.21-0.54-4.74c-2.99,0.89-6.16,1.84-9.46,2.82
	c0.32,0.66,0.55,1.29,0.9,1.82c1.97,2.99,4.04,5.91,5.93,8.94C60.99,94.82,64.13,97.62,68.39,99.27z M250.01,189.09
	c-0.31-0.07-0.89-0.19-1.46-0.32c-2.58-0.59-5.04-0.6-7.45,0.82c-0.98,0.58-2.26,0.91-3.4,0.89c-1.77-0.04-3.52-0.54-5.29-0.72
	c-0.74-0.08-1.62-0.03-2.25,0.31c-2.05,1.09-4.01,2.34-5.9,3.46c0.85,0.71,1.7,1.44,2.58,2.15c0.21,0.17,0.48,0.33,0.74,0.39
	c2.71,0.66,5.44,1.24,8.13,1.95c2.78,0.73,5.26,2.38,8.19,2.77c0.85,0.11,1.61,0.86,2.41,1.32c0.1-0.08,0.19-0.15,0.29-0.23
	c-0.34-0.58-0.56-1.28-1.03-1.73c-1.03-0.98-2.15-1.86-3.28-2.73c-1.07-0.83-2.18-1.6-2.08-3.54c0.62,0.66,1.03,1.09,1.75,1.85
	c-0.7-1.89-0.19-2.72,1.35-3.19c0.99-0.31,1.8-1.15,2.76-1.63C247.41,190.21,248.8,189.64,250.01,189.09z M98.38,168.15
	c-0.14-0.05-0.28-0.1-0.41-0.16c-0.62,1.33-1.36,2.62-1.85,4c-1.01,2.86-2.88,5.07-5.11,6.98c-1.57,1.35-3.4,2.39-5.03,3.67
	c-2.32,1.83-4.99,2.76-7.85,3.2c-1.18,0.18-2.16,0.02-2.18-1.57c-0.01-0.47-0.38-0.98-0.68-1.41c-2.2-3.21-4.26-6.46-4.75-10.48
	c-0.15-1.22-0.4-2.86-1.23-3.45c-1.35-0.97-0.59-1.77-0.48-2.72c0.05-0.45-0.03-0.95-0.17-1.39c-0.27-0.89-0.8-1.75-0.88-2.64
	c-0.15-1.64-0.04-3.3-0.04-4.96c-0.16-0.02-0.32-0.04-0.48-0.06c-0.73,2.49-1.5,4.97-2.17,7.48c-0.12,0.46,0.11,1.03,0.21,1.55
	c0.26,1.34,0.53,2.67,0.8,4.01c0.37,1.84,0.42,3.82,1.16,5.5c1.7,3.89,3.96,7.41,7.36,10.19c1.56,1.28,2.89,2.01,5,1.8
	c3.38-0.35,6.21-1.53,8.5-4.03c1.49-1.63,2.87-3.37,4.48-4.88c2.39-2.23,3.54-5.19,5.04-7.95
	C98.03,170.02,98.13,169.04,98.38,168.15z M145.17,151.37c-3.26-6.47-5.6-13.36-9.84-19.44c-2.6,3.53-5.12,6.96-7.69,10.45
	c0.46,0.3,0.74,0.52,1.04,0.68c1.53,0.8,3.06,1.48,4.27,2.87c0.8,0.93,2.09,1.77,3.28,1.97
	C139.48,148.43,142.39,149.65,145.17,151.37z M101.99,150.56c1.3,1.64,2.52,3.24,3.8,4.78c1.96,2.35,4.77,3.45,7.32,4.96
	c1.84,1.09,3.61,1.9,5.93,1.35c0.15-2.43,1.88-3.66,4.02-4.62c-6.22-0.43-10.1-4.32-13.51-8.26
	C107.04,149.37,104.69,149.92,101.99,150.56z M77.82,49.2c-2.84-0.59-5.38-1.11-8.04-1.66c0.74,2.04,1.75,3.78,1.93,5.61
	c0.17,1.8-0.51,3.68-0.82,5.48c1.74,0.61,3.58,1.25,5.53,1.93c-0.63-2.17-0.71-4.39,0.22-6.5c0.13,0.01,0.26,0.02,0.4,0.03
	c-0.1,1.28-0.21,2.55-0.34,4.16c1.85-1.44,0.43-3.46,1.49-4.73c0.15,0.01,0.3,0.03,0.45,0.04c0,1.25,0,2.51,0,3.76
	c0.14,0.01,0.29,0.01,0.43,0.02c0.35-1.14-0.32-2.58,1.01-3.45c-0.05,0.94-0.1,1.87-0.16,2.88c0.49,0,0.93,0,1.35,0
	c0.14-1.19,0.26-2.26,0.38-3.33c0.18,0.02,0.37,0.04,0.55,0.06c0,0.99,0,1.98,0,3.19c2.39-0.47,4.25,0.19,5.81,1.82
	c0.64,0.66,1.48,1.12,2.41,1.81c-0.14-0.42-0.15-0.69-0.26-0.74c-1.32-0.57-1.72-1.77-2.24-2.96c-0.9-2.06-2.26-3.66-4.5-4.54
	C81.36,51.25,79.45,50.05,77.82,49.2z M49.28,152.95c-0.14-0.05-0.27-0.11-0.41-0.16c-1.71,1.98-3.44,3.94-5.11,5.95
	c-0.36,0.44-0.55,1.04-0.74,1.6c-0.32,0.96-0.52,1.96-0.85,2.91c-1.27,3.66-2.61,7.31-3.87,10.98c-0.51,1.5-0.9,3.04-1.34,4.56
	c0.09,0.1,0.18,0.2,0.27,0.31c0.94-0.5,2.16-0.78,2.76-1.55c2.54-3.26,4.62-6.79,5.48-10.93c0.27-1.28,0.79-2.51,1.13-3.77
	C47.52,159.55,48.4,156.25,49.28,152.95z M185.24,232.03c0.36,0.6,0.61,1.32,1.11,1.77c2.08,1.89,4.09,3.92,6.4,5.49
	c3.4,2.31,7.36,2.61,11.35,2.18c4.42-0.48,8.83-1.09,13.3-0.44c-0.9-0.41-1.86-0.67-2.73-1.1c-3.08-1.5-6.22-2.7-9.75-2.29
	c-0.62,0.07-1.34,0.22-1.87-0.01c-1.02-0.44-1.37,0-1.52,0.67c-0.87-0.19-1.69-0.37-2.51-0.56c-0.28-0.07-0.57-0.15-0.83-0.26
	c-0.67-0.28-1.31-0.75-2-0.83C192.09,236.18,188.46,234.78,185.24,232.03z M97.96,46.61c-1.57-0.09-3.09,0.14-4.37-0.32
	c-1.28-0.46-1.73-0.25-2.6,0.74c-1.1,1.26-2.58,2.26-4.07,3.06c-1.35,0.73-2.74,0.06-4.07-0.56c-0.51-0.24-1.22-0.04-1.84-0.04
	c1.22,0.8,2.5,1.37,3.73,2.03c1.56,0.84,3.14,1.65,3.78,3.55c0.33,1,1.01,1.88,1.53,2.81c0.14,0,0.28,0,0.42,0
	c0.11-2.32,1.51-3.4,3.48-3.77c1.75-0.33,3.54-0.48,5.51-0.73C96.85,52.25,96.64,51.2,97.96,46.61z M110.26,148.09
	c2.78,3.3,5.8,6.2,10.06,7.33c3.82,1.02,3.48,0.81,4.96-2.41c-0.88-1.09-1.58-2.6-2.76-3.29c-2.17-1.27-4.66-2-6.95-3.08
	c-2.05-0.96-3.73-0.66-5.14,1.11C110.39,147.79,110.37,147.85,110.26,148.09z M35.65,168.64c-0.08-0.02-0.16-0.03-0.24-0.05
	c-4.35,4.79-8.71,9.58-13.06,14.38c0.1,0.15,0.2,0.3,0.3,0.45c2.72-0.82,5.43-1.63,8.12-2.44
	C32.41,176.83,34.03,172.74,35.65,168.64z M31.92,180.59c1.07-0.3,1.8-0.46,2.51-0.71c0.81-0.28,1.33-0.66,1.64-1.69
	c1.19-4.05,2.61-8.04,3.99-12.04c0.58-1.68,1.27-3.31,1.92-4.96c-0.09-0.04-0.18-0.09-0.27-0.13c-1.85,2.09-3.71,4.19-5.45,6.15
	c0.16,0.63,0.51,1.21,0.37,1.63c-0.51,1.52-1.19,2.98-1.79,4.47C33.91,175.61,32.99,177.92,31.92,180.59z M88.53,124.85
	c-0.39,0.78-0.95,1.38-0.97,2c-0.06,2.01-0.31,4.15,0.25,6.02c0.75,2.51,2.19,4.82,3.33,7.22c0.3-0.64,0.54-1.44,0.26-1.74
	c-1.24-1.31-0.53-2.81-0.57-4.21c-0.05-1.61,0.1-3.23,0.29-4.83C91.35,127.33,90.42,126.06,88.53,124.85z M75.56,124.71
	c-0.17-0.1-0.34-0.21-0.51-0.31c-0.18,0.3-0.5,0.6-0.53,0.91c-0.32,4.88-1.5,9.74-0.61,14.87c1.16-1.91,2.23-3.66,3.4-5.58
	C75.06,131.77,75.48,128.21,75.56,124.71z M92.31,128.18c0,2.35,0.01,4.55,0,6.76c-0.02,2.26-0.07,4.53-0.08,6.79
	c0,0.21,0.08,0.49,0.22,0.63c0.85,0.82,1.73,1.61,2.82,2.62c-0.24-1.53-0.01-3.13-0.69-3.77c-1.21-1.13-0.91-2.34-0.9-3.53
	c0.04-2.85,0.25-5.69,0.39-8.53C93.51,128.84,93,128.56,92.31,128.18z M132.72,210.45c-0.25,0-0.49,0-0.74-0.01
	c-0.25,2.24-0.49,4.48-0.74,6.72c0.57-0.06,1.04-0.27,1.07-0.53C132.49,214.57,132.6,212.51,132.72,210.45z M190.86,177.21
	c-1.93-1.08-3.8-2.26-5.79-3.2c-3.56-1.69-7.14-3.34-10.79-4.82c-3.59-1.46-7.27-2.71-10.93-4.01c-0.78-0.28-1.64-0.33-2.44-0.57
	c-0.48-0.15-0.9-0.47-1.35-0.71c0.07-0.17,0.13-0.34,0.2-0.51c1.13,0.25,2.31,0.36,3.38,0.76c5.7,2.12,11.45,4.16,17.05,6.53
	c3.44,1.46,6.64,3.49,9.99,5.19c0.7,0.36,0.82,0.74,0.64,1.39L190.86,177.21z M65.25,46.11c-1.09-0.7-2.19-1.39-3.46-2.2
	c1.57-0.32,2.26,0.06,3.7,1.85C65.41,45.87,65.33,45.99,65.25,46.11z M117.73,187.1c0.85-1.95,1.69-3.9,2.58-5.83
	c0.1-0.21,0.55-0.26,0.97-0.27c-1.17,2.06-1.5,4.5-3.02,6.33C118.08,187.25,117.9,187.17,117.73,187.1z M118.71,190.98
	c1.35-2.28,2.05-4.89,3.62-7.05c0.18,0.09,0.37,0.19,0.55,0.28c-1.17,2.38-2.35,4.76-3.52,7.14
	C119.14,191.23,118.92,191.1,118.71,190.98z M123.21,188.39c-1.08,3.77-2.53,6.2-3.76,6.12
	C121.18,192.64,121.23,189.94,123.21,188.39z M193.4,204.68c-0.21,2.6-2.17,3.66-3.21,5.61C189.62,208,190.61,206.29,193.4,204.68z
	 M195.04,211.41c0,0.3,0,0.51,0,0.87c0.5-0.61,0.92-1.12,1.33-1.62c-0.18,1.95-1.66,2.98-2.69,4.35
	C194.24,213.85,193.12,212.03,195.04,211.41z M194.56,206.63c-0.04,0.35,0.04,0.79-0.14,1.05c-0.6,0.88-1.26,1.73-1.97,2.52
	c-0.21,0.23-0.68,0.22-1.03,0.32c0.02-0.37-0.11-0.93,0.09-1.09c1-0.85,2.09-1.59,3.14-2.38
	C194.62,206.92,194.59,206.78,194.56,206.63z M196.97,213.02c-0.31,0.5-0.62,0.99-0.94,1.49c0.04,0.05,0.08,0.1,0.12,0.15
	c0.46-0.58,0.92-1.16,1.39-1.74c-0.19,2.21-0.78,2.62-3.5,2.7c0.93-1.07,1.74-1.99,2.55-2.91
	C196.72,212.81,196.85,212.91,196.97,213.02z M196.05,217.76c0.92-1.11,1.59-1.92,2.41-2.92c0.35,0.45,0.93,0.9,0.85,1.16
	C198.95,217.36,197.78,217.61,196.05,217.76z M191.54,203.19c-0.18,1.65-1.31,2.64-2.57,3.52
	C189.09,205.01,190.35,204.12,191.54,203.19z M187.78,202.72c0.52-0.61,1.05-1.23,1.57-1.84c0.5,0.32,0.85,0.54,1.49,0.94
	c-0.94,0.55-1.74,1.01-2.54,1.48C188.13,203.11,187.96,202.92,187.78,202.72z M91.82,108.97c-1.06-0.58-1.62-0.99-1.9-2.03
	c-0.29-1.08-1.08-2.18-1.95-2.93c-2.53-2.2-3.91-4.97-4.55-8.33c0.27,0.21,0.64,0.36,0.8,0.63c0.96,1.65,1.86,3.33,2.81,4.98
	c0.29,0.51,0.61,1.11,1.09,1.39c2.02,1.19,2.59,3.36,3.68,5.18C91.92,108.08,91.82,108.42,91.82,108.97z M73.44,65.93
	c1.7,1.3,0.82,2.48,0.05,4.12c-0.61-1.23-1.06-2.13-1.53-3.08C72.5,66.58,72.94,66.27,73.44,65.93z M83.99,93.97
	c-0.09-0.73-0.15-1.23-0.24-2c-0.4,0.49-0.64,0.79-0.88,1.08c-0.14-0.05-0.28-0.1-0.42-0.15c0.19-0.98,0.37-1.96,0.63-3.3
	C84.91,93.2,84.91,93.2,83.99,93.97z M76.77,68.78c-0.12-1.06-0.87-2.14-0.07-3.18C77.36,66.67,77.85,67.74,76.77,68.78z
	 M71.31,68.82c1.7,1.2,1.82,2.08,0.71,3.18C71.77,70.9,71.54,69.86,71.31,68.82z M236.59,245.23c-0.03-0.41-0.15-0.83-0.08-1.21
	c0.6-3.03,1.33-6.03,1.83-9.08c0.17-1.01-0.25-2.11-0.35-3.17c-0.06-0.65-0.01-1.3-0.01-2.11c0.99,1.18,1.3,3.71,0.8,7.82
	c-0.32,2.62-0.9,5.2-1.37,7.8C237.14,245.26,236.86,245.24,236.59,245.23z M242.62,246.78c-0.89-0.61-0.9-0.61-0.67-2.8
	c0.11-1.07,0.21-2.14,0.36-3.21c0.15-0.99,0.24-2.02,0.58-2.95c0.35-0.96,0.95-1.82,1.43-2.69c0.42,1.72-0.12,3.83-0.79,5.65
	c-0.56,1.53-0.54,3.28-0.78,4.93C242.71,245.99,242.68,246.28,242.62,246.78z M241.64,236.08c-0.67,3.85-1.29,7.41-1.92,10.96
	c-0.14,0.04-0.28,0.07-0.41,0.11c-0.14-0.38-0.45-0.79-0.4-1.14c0.39-2.66,0.86-5.31,1.29-7.96
	C240.34,237.19,240.64,236.49,241.64,236.08z M245.17,247.98c-0.5-0.45-0.95-0.69-0.93-0.87c0.3-2.71,0.26-5.48,1.09-8.1
	c0.21,0.02,0.41,0.05,0.62,0.07C245.7,241.94,245.45,244.79,245.17,247.98z M251.82,247.8c-0.48-1.72-0.96-3.44-1.45-5.2
	C251.62,242.82,252.55,245.57,251.82,247.8z M81.34,135.31c-0.46-1.44-1.15-2.88-0.06-4.31C81.31,132.43,82.04,133.87,81.34,135.31z
	 M79.34,135.73c-0.21-1.71-0.38-3.02-0.59-4.69C80.1,132.44,80.28,133.97,79.34,135.73z M47.01,53.69
	c-2.79,5.64-3.91,11.39-3.29,17.51c-1.36-3.12-1.58-6.23-0.5-9.46c0.74-2.2,1.21-4.48,1.82-6.71
	C45.32,54.02,46.04,53.66,47.01,53.69z M46.59,77.21c-0.82,1.17-1.7,1.26-2.49,0.21c-0.65-0.86-1.13-1.85-1.49-3.01
	c0.82,0.49,1.63,0.98,2.59,1.56c-0.34,0.3-0.56,0.5-1.11,0.98C45.11,77.06,45.79,77.13,46.59,77.21z M220.25,207.92
	c1.47-0.94,2.63-1.68,3.96-2.52C223.63,207.18,222.33,208.06,220.25,207.92z M222.08,208.98c1.16-0.87,2.14-1.61,3.16-2.38
	C225.09,208.32,223.81,209.32,222.08,208.98z M257.68,220.79c-0.16-0.27-0.48-0.56-0.45-0.81c0.4-3.86,0.84-7.71,1.5-11.55
	c0.87,4.15,0.07,8.21-0.56,12.28C258,220.74,257.84,220.77,257.68,220.79z M261.94,209.88c-0.28,3.93-0.57,7.87-0.85,11.8
	c-1.35-0.02-1.39-0.09-1.28-0.92c0.31-2.34,0.56-4.69,0.85-7.04c0.16-1.3,0.34-2.61,0.51-3.91
	C261.43,209.83,261.69,209.85,261.94,209.88z M267.96,220.68c-0.94,0.31-1.22-0.18-1.14-1c0.22-2.5,0.45-4.99,0.69-7.48
	c0.01-0.13,0.17-0.25,0.51-0.71c0.72,3.31,0.15,6.27-0.1,9.23L267.96,220.68z M252.49,201.83c-0.11,1.2-0.21,2.39-0.32,3.59
	c-0.17-0.01-0.33-0.03-0.5-0.04c-0.9-1.25,0.05-2.38,0.13-3.57C252.03,201.81,252.26,201.82,252.49,201.83z M32.63,89.27
	c1.47-1.05,1.67-2.55,1.88-4.08c0.39-2.8,0.86-5.59,1.61-8.42c0.11,0.34,0.35,0.69,0.31,1.01c-0.25,1.7-0.6,3.38-0.85,5.08
	c-0.12,0.81-0.05,1.66-0.17,2.47c-0.18,1.16-0.39,2.32-0.73,3.43C34.35,89.81,33.61,89.9,32.63,89.27z M107.92,66.14
	c-0.89-0.07-1.52-0.16-2.15-0.16c-1.8-0.03-2-0.38-0.98-2.39c0.09,0.65,0.15,1.05,0.2,1.39C105.77,65.75,107.39,64.3,107.92,66.14z
	 M116.85,60.79c-0.36-1.55-0.66-2.88-0.97-4.21C117.21,57.75,117.59,59.61,116.85,60.79z M71.93,50.73
	c1.79-0.85,2.18,1.41,3.56,1.56C73.76,53.07,73.02,51.51,71.93,50.73z"/>
</svg>
